<?xml version="1.0" encoding="UTF-8"?>
<svg version="1.1" xmlns="http://www.w3.org/2000/svg" width="672" height="769">
<path d="M0 0 C6.15884811 3.75167968 12.3990289 7.3671856 18.62841797 11 C26.39016756 15.52736529 34.13010081 20.08560097 41.83024597 24.71679688 C48.68417664 28.83869876 55.56203828 32.91991794 62.44091797 37 C63.8309147 37.82483141 65.22088809 38.64970217 66.61083984 39.47460938 C69.48363471 41.17951243 72.35652746 42.88425038 75.22949219 44.58886719 C81.32731873 48.20706886 87.42390848 51.82735322 93.52053833 55.4475708 C96.84810914 57.42347441 100.17576821 59.39922935 103.50341797 61.375 C104.83675172 62.16666596 106.17008505 62.95833263 107.50341797 63.75 C108.16341797 64.141875 108.82341797 64.53375 109.50341797 64.9375 C112.50341797 66.71875 112.50341797 66.71875 115.50341797 68.5 C116.4933802 69.08778984 116.4933802 69.08778984 117.50334167 69.68745422 C118.83692988 70.47927254 120.17051753 71.27109179 121.50410461 72.06291199 C124.83353384 74.03976615 128.16297271 76.01660407 131.49243164 77.9934082 C137.53900139 81.58346795 143.58549783 85.17365091 149.63163757 88.76443481 C152.35138578 90.3796761 155.0711791 91.9948414 157.79098511 93.60998535 C159.13843219 94.4101723 160.4858647 95.2103838 161.83328247 96.01062012 C169.90969776 100.80710885 177.98902087 105.59860734 186.07373047 110.38110352 C189.38852719 112.34397654 192.69994937 114.31245375 196.01123047 116.28125 C200.40699825 118.89243955 204.82004884 121.47090483 209.24560547 124.03125 C236.62923461 139.97617347 257.19640414 159.24737897 265.88277799 190.64094043 C268.17614127 199.81993501 268.79482919 208.79914209 268.76411438 218.22918701 C268.76793993 219.49405229 268.77176547 220.75891757 268.77570695 222.06211209 C268.78590822 225.53862984 268.78382544 229.01504355 268.77952635 232.49156952 C268.77704465 236.25449205 268.78609116 240.01739045 268.79356384 243.78030396 C268.80627346 251.13943743 268.80810917 258.49853435 268.80576358 265.85767695 C268.80397588 271.84409965 268.80573972 277.8305113 268.80998802 283.81693268 C268.81058321 284.67104922 268.8111784 285.52516576 268.81179162 286.40516461 C268.81300346 288.14068451 268.8142176 289.8762044 268.815434 291.61172429 C268.82629538 307.86573602 268.82415384 324.11972697 268.81804916 340.37373987 C268.81288259 355.21580542 268.82413107 370.05780529 268.84314737 384.89985785 C268.86255973 400.16904877 268.87077574 415.43820867 268.86702412 430.707412 C268.86511706 439.26808538 268.86755113 447.82870289 268.88173866 456.38936615 C268.89369692 463.67819761 268.89500791 470.96693881 268.8829485 478.25577161 C268.87709051 481.96818432 268.875874 485.68043231 268.8879509 489.39283371 C268.98145301 520.2224651 264.87829036 544.88520336 244.50341797 569.125 C243.54628906 570.37216797 243.54628906 570.37216797 242.56982422 571.64453125 C232.46059469 583.7794287 216.71033803 591.54978719 203.20053101 599.38104248 C200.0201459 601.22502345 196.84615594 603.07996639 193.67138672 604.93359375 C193.04531021 605.29882141 192.4192337 605.66404907 191.77418518 606.04034424 C186.72345303 608.98925578 181.69943193 611.98008179 176.69091797 615 C168.23206974 620.09697552 159.74663337 625.14808543 151.25341797 630.1875 C150.57242035 630.59160095 149.89142273 630.9957019 149.18978882 631.41204834 C145.69227781 633.48737015 142.1945758 635.56236975 138.69677734 637.63720703 C132.6271913 641.23779403 126.55930201 644.84123834 120.49133301 648.44454956 C117.16210212 650.42149122 113.83275394 652.39823532 110.50341797 654.375 C109.17008408 655.16666573 107.83675074 655.95833239 106.50341797 656.75 C98.50341821 661.49999986 98.50341821 661.49999986 96.50349426 662.68745422 C95.16990606 663.47927254 93.83631841 664.27109179 92.50273132 665.06291199 C89.17330209 667.03976615 85.84386323 669.01660407 82.5144043 670.9934082 C76.46779929 674.58348889 70.42126966 678.17369625 64.37509155 681.76449585 C34.23031524 699.66732354 34.23031524 699.66732354 21.75341797 707.04736328 C16.27431579 710.28981535 10.8014812 713.54187519 5.34115601 716.81582642 C2.48937282 718.52518709 -0.36464037 720.23080664 -3.21875 721.9362793 C-4.58394671 722.75345205 -5.94809113 723.57238609 -7.31103516 724.39331055 C-30.96111792 738.63603431 -30.96111792 738.63603431 -41.99658203 741.5 C-43.65173828 741.94472656 -43.65173828 741.94472656 -45.34033203 742.3984375 C-70.39640845 748.16629668 -94.50425362 743.62010126 -116.49658203 731.125 C-117.32625488 730.65481445 -118.15592773 730.18462891 -119.01074219 729.70019531 C-125.62701448 725.92598088 -132.18684611 722.05849639 -138.73632812 718.1697998 C-140.55289027 717.09157821 -142.37032886 716.01484726 -144.18798828 714.93847656 C-151.56051868 710.57208362 -158.92755222 706.19650192 -166.29150391 701.81565857 C-173.02682083 697.80889147 -179.76550939 693.80781522 -186.50463867 689.8074646 C-189.83543443 687.83022561 -193.16599616 685.8525925 -196.49658203 683.875 C-197.82991425 683.08333145 -199.16324758 682.29166479 -200.49658203 681.5 C-213.82991536 673.58333333 -227.1632487 665.66666667 -240.49658203 657.75 C-241.15655685 657.35814011 -241.81653168 656.96628021 -242.49650574 656.56254578 C-243.83009394 655.77072746 -245.16368159 654.97890821 -246.49726868 654.18708801 C-249.82669791 652.21023385 -253.15613677 650.23339593 -256.4855957 648.2565918 C-262.53220071 644.66651111 -268.57873034 641.07630375 -274.62490845 637.48550415 C-292.66391181 626.77146798 -292.66391181 626.77146798 -310.71142578 616.07177734 C-312.89057303 614.78041883 -315.06896691 613.48778813 -317.24658203 612.19384766 C-322.70463748 608.95252025 -328.17064969 605.72728779 -333.65884399 602.537323 C-336.51550974 600.87509616 -339.36733539 599.20466222 -342.21875 597.53344727 C-343.58063314 596.73798153 -344.94463425 595.9461274 -346.31103516 595.15844727 C-372.18142128 580.23895156 -391.1137898 561.18075755 -400.67236328 532.33203125 C-403.03381413 523.14363719 -403.78874833 514.39311439 -403.76400757 504.92001343 C-403.76853868 503.63220683 -403.77306979 502.34440023 -403.77773821 501.01756918 C-403.78988145 497.47231887 -403.78971809 493.92716353 -403.78734946 490.38189721 C-403.78693908 486.54667753 -403.79800152 482.71148741 -403.8074646 478.87628174 C-403.82402822 471.37296749 -403.82957205 463.86968468 -403.83068936 456.36635368 C-403.8316421 450.26216161 -403.8357637 444.15797985 -403.84209061 438.05379105 C-403.85969092 420.71823274 -403.86893146 403.38269913 -403.86742966 386.04713182 C-403.86734975 385.11392695 -403.86726983 384.18072208 -403.8671875 383.21923828 C-403.86710574 382.28488381 -403.86702398 381.35052933 -403.86693974 380.38786109 C-403.86612734 365.25539724 -403.88525645 350.12303305 -403.91346423 334.99059801 C-403.94225012 319.42423978 -403.95600137 303.85793006 -403.95427668 288.29154456 C-403.95361471 279.56368842 -403.95902185 270.83593675 -403.98063278 262.10810471 C-403.99891991 254.67543156 -404.00313056 247.24291022 -403.98961394 239.81022422 C-403.98312182 236.02473733 -403.98282927 232.23954102 -404.00032043 228.45408249 C-404.12618154 199.38535881 -399.90096726 174.9289724 -380.49658203 152.125 C-379.69994141 151.10986328 -379.69994141 151.10986328 -378.88720703 150.07421875 C-370.8357842 140.12951579 -359.55451492 133.21422296 -348.55395508 126.96435547 C-346.02421976 125.52709129 -343.50672186 124.06891198 -340.98803711 122.61239624 C-339.69420698 121.86446415 -338.39977492 121.11757231 -337.10473633 120.37173462 C-331.02239447 116.86593497 -325.00529423 113.25539521 -318.99658203 109.625 C-309.93150947 104.1610007 -300.82163023 98.77894042 -291.68408203 93.4375 C-282.87826396 88.28930744 -274.09291179 83.11129137 -265.35571289 77.84716797 C-257.67152666 73.22041387 -249.96046411 68.63950033 -242.24658203 64.0625 C-241.56558441 63.65839905 -240.88458679 63.2542981 -240.18295288 62.83795166 C-236.68544188 60.76262985 -233.18773987 58.68763025 -229.68994141 56.61279297 C-223.61989623 53.01193361 -217.55155053 49.40821238 -211.48312378 45.80462646 C-208.82682041 44.22728949 -206.17042039 42.65011533 -203.51402283 41.07293701 C-198.13197415 37.87745479 -192.75006562 34.68173682 -187.3684082 31.4855957 C-171.8519159 22.27042363 -156.33539729 13.05530409 -140.80517578 3.86328125 C-136.62605816 1.38921792 -132.45201358 -1.09309454 -128.28173828 -3.58203125 C-127.29383301 -4.17000488 -126.30592773 -4.75797852 -125.28808594 -5.36376953 C-123.4644824 -6.44919583 -121.64238665 -7.53716201 -119.82226562 -8.62841797 C-111.60472695 -13.51116291 -103.44413162 -17.91663065 -94.24658203 -20.625 C-93.24498047 -20.93630859 -93.24498047 -20.93630859 -92.22314453 -21.25390625 C-57.83513729 -31.70516335 -28.5826462 -17.50516131 0 0 Z M-127.62548828 16.97265625 C-135.4983066 21.74976871 -143.44570289 26.39670595 -151.39950562 31.037323 C-158.56800965 35.22005269 -165.71123664 39.43923228 -172.82341003 43.71679688 C-179.6773407 47.83869876 -186.55520234 51.91991794 -193.43408203 56 C-194.82407876 56.82483141 -196.21405215 57.64970217 -197.60400391 58.47460938 C-200.47679878 60.17951243 -203.34969152 61.88425038 -206.22265625 63.58886719 C-212.32048279 67.20706886 -218.41707255 70.82735322 -224.51370239 74.4475708 C-227.8412732 76.42347441 -231.16893228 78.39922935 -234.49658203 80.375 C-235.82991578 81.16666596 -237.16324912 81.95833263 -238.49658203 82.75 C-246.49658208 87.50000003 -246.49658208 87.50000003 -248.49650574 88.68745422 C-249.83009394 89.47927254 -251.16368159 90.27109179 -252.49726868 91.06291199 C-255.82669791 93.03976615 -259.15613677 95.01660407 -262.4855957 96.9934082 C-268.5321302 100.58344702 -274.57859344 104.17360558 -280.62469482 107.76437378 C-283.34511423 109.3800105 -286.06559314 110.99554701 -288.78607178 112.61108398 C-290.13054501 113.40953356 -291.47498694 114.20803583 -292.81939697 115.0065918 C-299.83441873 119.17338828 -306.85122227 123.33708344 -313.87548828 127.48828125 C-319.4393321 130.77640467 -324.99902908 134.07141224 -330.55371094 137.375 C-332.44826275 138.50160921 -334.34370159 139.62672876 -336.24023438 140.75 C-359.2842074 154.42377472 -376.40991994 169.90574824 -384.20751953 196.5546875 C-386.60339027 206.31178426 -386.64444403 216.43724036 -386.6302948 226.42558289 C-386.63256036 227.6160898 -386.63482591 228.8065967 -386.63716012 230.03317958 C-386.64236121 233.30670713 -386.64315089 236.58019976 -386.64196575 239.85373008 C-386.64176038 243.39648377 -386.64729342 246.93922947 -386.65202332 250.48197937 C-386.66030112 257.41144182 -386.66307685 264.34089577 -386.66363569 271.27036276 C-386.66411223 276.90783617 -386.6661738 282.54530679 -386.66933632 288.18277931 C-386.67813511 304.19529878 -386.68275692 320.20781157 -386.68200585 336.22033348 C-386.68196589 337.08211318 -386.68192593 337.94389288 -386.68188477 338.83178711 C-386.68184388 339.69462914 -386.681803 340.55747117 -386.68176088 341.44645993 C-386.68135465 355.42205987 -386.69092055 369.39763285 -386.70502313 383.373225 C-386.71941704 397.7519302 -386.72629166 412.13062228 -386.72542936 426.50933486 C-386.72509842 434.57034401 -386.72779983 442.63132488 -386.73860741 450.6923275 C-386.74775218 457.55663159 -386.74985522 464.42089459 -386.74309798 471.28520217 C-386.73985271 474.78087452 -386.73970312 478.27646821 -386.74845123 481.77213287 C-386.81141929 512.58491746 -384.34029319 537.56928239 -362.50439453 561.2890625 C-349.38253045 574.13074443 -331.50364719 582.34356417 -315.74072266 591.52734375 C-306.9939741 596.62837038 -298.32414804 601.84558618 -289.68408203 607.125 C-281.90587482 611.87642949 -274.10811597 616.55916874 -266.13012695 620.96923828 C-260.34293925 624.17747757 -254.68041372 627.57917592 -249.01513672 630.99707031 C-241.11327488 635.76285321 -233.18299546 640.47958275 -225.24658203 645.1875 C-223.86767036 646.00568748 -222.48876416 646.82388417 -221.10986328 647.64208984 C-218.30332835 649.30730713 -215.49666598 650.97230941 -212.68994141 652.63720703 C-206.62035536 656.23779403 -200.55246608 659.84123834 -194.48449707 663.44454956 C-191.15526619 665.42149122 -187.825918 667.39823532 -184.49658203 669.375 C-183.16324814 670.16666573 -181.82991481 670.95833239 -180.49658203 671.75 C-179.50658203 672.3378125 -179.50658203 672.3378125 -178.49658203 672.9375 C-176.49658203 674.125 -174.49658203 675.3125 -172.49658203 676.5 C-171.8366626 676.89182465 -171.17674316 677.28364929 -170.49682617 677.68734741 C-169.16267011 678.47950766 -167.82852298 679.27168297 -166.49438477 680.06387329 C-163.17371214 682.03561126 -159.8528877 684.00709257 -156.53173828 685.97802734 C-150.38107506 689.62849401 -144.23182747 693.28127481 -138.08789062 696.9430542 C-135.24163436 698.63920935 -132.39452748 700.33393391 -129.54736328 702.02856445 C-128.21360874 702.82294231 -126.88025334 703.61799084 -125.54736328 704.41381836 C-118.4035966 708.67890483 -111.23202784 712.89500839 -104.00830078 717.0234375 C-103.36332642 717.3975174 -102.71835205 717.77159729 -102.05383301 718.15701294 C-93.31578626 723.10973421 -83.28860055 726.28167847 -73.19580078 726.22265625 C-72.21933594 726.21943359 -71.24287109 726.21621094 -70.23681641 726.21289062 C-69.22941406 726.20451172 -68.22201172 726.19613281 -67.18408203 726.1875 C-66.15734375 726.18298828 -65.13060547 726.17847656 -64.07275391 726.17382812 C-61.54730321 726.16208184 -59.02197298 726.14565565 -56.49658203 726.125 C-58.47825888 724.63635837 -60.46106736 723.1509829 -62.46142578 721.6875 C-71.10071659 714.84449738 -73.92472069 705.71057442 -75.49658203 695.125 C-75.76635293 690.99706506 -75.77128078 686.88381942 -75.75727844 682.74812317 C-75.76110399 681.53734736 -75.76492954 680.32657154 -75.76887101 679.07910556 C-75.77736041 675.74431454 -75.77698418 672.40974579 -75.77269042 669.07496154 C-75.77021247 665.4681248 -75.77925068 661.8613134 -75.78672791 658.25448608 C-75.79944841 651.19754387 -75.80127182 644.14063975 -75.79892764 637.083688 C-75.79714097 631.34320416 -75.7989016 625.60273184 -75.80315208 619.86224937 C-75.80374727 619.04365283 -75.80434246 618.22505628 -75.80495569 617.38165378 C-75.80616751 615.71836609 -75.80738164 614.0550784 -75.80859806 612.39179071 C-75.81946389 596.80785251 -75.81731594 581.22393597 -75.81121322 565.63999655 C-75.80604772 551.4082139 -75.8172915 537.17649978 -75.83631144 522.94473068 C-75.85572245 508.30728456 -75.86393995 493.66987081 -75.86018819 479.03241175 C-75.85828073 470.824414 -75.86071893 462.61647452 -75.87490273 454.40848732 C-75.88685934 447.41894754 -75.88817388 440.42950187 -75.87611256 433.4399607 C-75.87025308 429.87957827 -75.8690422 426.31936761 -75.88111496 422.75899696 C-75.99084248 388.01962052 -75.99084248 388.01962052 -68.87158203 374.875 C-68.52385742 374.21226074 -68.17613281 373.54952148 -67.81787109 372.86669922 C-57.96040574 354.72140059 -41.58404439 344.56568887 -24.49658203 334.125 C-22.40748284 332.83814423 -20.31896623 331.55034234 -18.23095703 330.26171875 C-13.80025711 327.52911832 -9.36653777 324.80152314 -4.93017578 322.078125 C0.82610214 318.54343331 6.57369711 314.99497382 12.31591797 311.4375 C13.16629639 310.91075684 14.0166748 310.38401367 14.89282227 309.84130859 C17.42986882 308.26949811 19.96668775 306.69732097 22.50341797 305.125 C34.93525328 297.41947606 47.38014891 289.73572366 59.83886719 282.07373047 C70.07319938 275.77812515 80.29046637 269.45521119 90.50341797 263.125 C102.93525328 255.41947606 115.38014891 247.73572366 127.83886719 240.07373047 C137.223344 234.30091002 146.59387087 228.50582527 155.95898438 222.70166016 C158.55020385 221.09600909 161.14194705 219.49120696 163.73388672 217.88671875 C164.60368164 217.34821289 165.47347656 216.80970703 166.36962891 216.25488281 C168.11598452 215.17417554 169.86272528 214.09409039 171.60986328 213.01464844 C176.1065765 210.23513757 180.59456118 207.44284412 185.06982422 204.62890625 C217.1186952 184.52241502 217.1186952 184.52241502 232.89404297 187.58984375 C239.54422212 189.50120476 243.70878139 193.33036342 248.50341797 198.125 C246.05221476 180.96657757 234.49137137 163.97495422 221.16601562 153.36669922 C215.89532382 149.43032058 210.16368729 146.18388968 204.48974609 142.87304688 C201.04121121 140.85444732 197.60758368 138.81167833 194.17529297 136.765625 C186.61105203 132.25908589 179.03675802 127.7696565 171.46026611 123.28375244 C168.49375559 121.52712594 165.52788696 119.76941766 162.56201172 118.01171875 C159.28055213 116.06702422 155.99904549 114.12240965 152.71728516 112.17822266 C140.00068716 104.64418889 127.29255374 97.09590542 114.58398438 89.54833984 C108.55573501 85.96824022 102.52704417 82.38888414 96.49838257 78.80947876 C93.16670923 76.83135028 89.83506509 74.85317263 86.50341797 72.875 C85.17008477 72.0833331 83.83675144 71.29166643 82.50341797 70.5 C69.17008464 62.58333333 55.8367513 54.66666667 42.50341797 46.75 C41.84348343 46.35816528 41.18354889 45.96633057 40.50361633 45.56262207 C39.16961676 44.77055696 37.83562222 43.97848339 36.50163269 43.18640137 C33.17853386 41.21326156 29.85534921 39.24026659 26.53198242 37.26757812 C18.99775461 32.79515527 11.46582874 28.31889631 3.9365387 23.83816528 C-1.43564602 20.6420638 -6.81396415 17.45640963 -12.1943512 14.2741394 C-15.87687741 12.09344395 -19.54323809 9.88830444 -23.19970703 7.6640625 C-61.13291298 -15.21300936 -92.13951218 -4.58679814 -127.62548828 16.97265625 Z M29.50341797 399.125 C26.56389272 400.6412191 26.56389272 400.6412191 23.50341797 402.8125 C22.45154297 403.51761719 21.39966797 404.22273438 20.31591797 404.94921875 C16.89606407 407.59485573 14.72728082 409.37838834 14.1628418 413.78222656 C14.17855225 414.76674805 14.1942627 415.75126953 14.21044922 416.765625 C14.22011719 417.83554687 14.22978516 418.90546875 14.23974609 420.0078125 C14.26488281 421.11898438 14.29001953 422.23015625 14.31591797 423.375 C14.32945312 424.50164062 14.34298828 425.62828125 14.35693359 426.7890625 C14.39226152 429.56819264 14.44159277 432.34635363 14.50341797 435.125 C13.56308716 435.58181152 13.56308716 435.58181152 12.60375977 436.04785156 C0.68194888 442.161885 -7.52563491 459.9715961 -11.46142578 472.09765625 C-14.38529889 482.97123042 -16.19033626 497.88055584 -10.49658203 508.125 C-6.3402294 514.77249988 -0.71814209 517.79030071 6.76513672 519.703125 C9.68873683 520.15355126 12.57811784 520.30565939 15.53222656 520.4152832 C22.64960384 520.68674176 28.95217207 521.07528208 35.50341797 524.125 C39.36782923 528.36046714 39.73531688 532.5444648 39.50341797 538.125 C37.73354622 547.80655008 34.09428055 556.01381103 26.03857422 561.9375 C17.23868476 567.44239326 10.38150681 568.36512355 0.22802734 567.95898438 C-0.59246094 567.94029297 -1.41294922 567.92160156 -2.25830078 567.90234375 C-3.00039795 567.87390381 -3.74249512 567.84546387 -4.50708008 567.81616211 C-7.1378982 568.22455393 -7.91292162 569.00897505 -9.49658203 571.125 C-10.36941782 573.25898759 -10.36941782 573.25898759 -10.91845703 575.65234375 C-11.24910156 576.96428711 -11.24910156 576.96428711 -11.58642578 578.30273438 C-11.80427734 579.21345703 -12.02212891 580.12417969 -12.24658203 581.0625 C-12.5965625 582.4227832 -12.5965625 582.4227832 -12.95361328 583.81054688 C-14.5197725 589.48268872 -14.5197725 589.48268872 -13.49658203 595.125 C-6.01323535 598.86667334 2.76924527 597.41137952 10.50341797 595.125 C12.97841797 594.135 12.97841797 594.135 15.50341797 593.125 C15.50341797 600.715 15.50341797 608.305 15.50341797 616.125 C20.16862926 615.19195774 22.31332133 614.25747722 26.19091797 611.75 C27.14353516 611.14414062 28.09615234 610.53828125 29.07763672 609.9140625 C31.70838051 608.18630801 31.70838051 608.18630801 33.50341797 605.125 C33.77941748 602.50898445 33.77941748 602.50898445 33.69873047 599.58203125 C33.6890625 597.97231445 33.6890625 597.97231445 33.67919922 596.33007812 C33.66244141 595.21052734 33.64568359 594.09097656 33.62841797 592.9375 C33.61939453 591.80634766 33.61037109 590.67519531 33.60107422 589.50976562 C33.57748659 586.71463172 33.54457096 583.91992155 33.50341797 581.125 C34.11604492 580.83923096 34.72867188 580.55346191 35.35986328 580.2590332 C47.54114464 573.81460816 55.32334391 556.80521649 59.49560547 544.609375 C63.2634656 531.58250975 65.42877516 516.02043815 59.69482422 503.25390625 C56.23974049 497.08006811 52.20065364 493.50292073 45.50341797 491.125 C39.30865882 489.46444659 33.14071781 489.01537719 26.75341797 488.6875 C20.29641019 488.31965419 15.2425902 487.86417224 10.50341797 483.125 C8.21787034 475.15136015 10.48730652 468.00788132 14.19091797 460.875 C17.24278777 457.24574943 20.51741205 454.67002176 24.50341797 452.125 C25.13763672 451.71894531 25.77185547 451.31289063 26.42529297 450.89453125 C32.28040185 447.75138172 38.13336535 447.6199849 44.65161133 447.62768555 C48.82670511 447.59210016 48.82670511 447.59210016 52.37451172 445.62109375 C53.98111697 442.06877279 54.85706614 438.48687936 55.69091797 434.6875 C55.86816406 433.93662109 56.04541016 433.18574219 56.22802734 432.41210938 C57.10002668 428.58406595 57.73132944 425.0780852 57.50341797 421.125 C49.19825924 417.64842193 40.60209975 419.88552729 32.50341797 423.125 C32.50341797 415.535 32.50341797 407.945 32.50341797 400.125 C31.51341797 399.795 30.52341797 399.465 29.50341797 399.125 Z M152.94873047 535.24609375 C152.38339096 535.57753387 151.81805145 535.908974 151.23558044 536.25045776 C149.36377634 537.34987277 147.49600101 538.45593199 145.62841797 539.5625 C144.33024238 540.32785868 143.03198285 541.093075 141.73364258 541.8581543 C132.47472379 547.32415523 123.258665 552.86103439 114.06591797 558.4375 C113.47304993 558.79689667 112.88018188 559.15629333 112.26934814 559.52658081 C108.67077375 561.71028768 105.07272701 563.89375258 101.50341797 566.125 C100.40811768 566.7636499 99.31281738 567.4022998 98.18432617 568.06030273 C95.3664577 569.82033417 95.3664577 569.82033417 94.82226562 572.32324219 C94.85368652 573.09829102 94.88510742 573.87333984 94.91748047 574.671875 C94.93681641 575.51621094 94.95615234 576.36054687 94.97607422 577.23046875 C95.02634766 578.10316406 95.07662109 578.97585938 95.12841797 579.875 C95.15548828 580.76316406 95.18255859 581.65132812 95.21044922 582.56640625 C95.28105173 584.75508395 95.3795627 586.93879568 95.50341797 589.125 C99.22805751 588.45086462 102.00420233 586.80753793 105.23779297 584.87890625 C106.36145264 584.21133301 107.4851123 583.54375977 108.64282227 582.85595703 C109.84650884 582.13339563 111.05003765 581.41057134 112.25341797 580.6875 C113.48610895 579.95142935 114.71893839 579.21559051 115.9519043 578.47998047 C124.23877994 573.52638586 132.46725228 568.48623243 140.61914062 563.31347656 C142.72319986 561.98637623 144.83700673 560.67575898 146.95263672 559.3671875 C147.69231689 558.90876465 148.43199707 558.4503418 149.1940918 557.97802734 C150.61335731 557.09889809 152.03370888 556.22151889 153.45532227 555.34619141 C156.02862827 553.74742869 158.35331317 552.2751048 160.50341797 550.125 C160.77996184 548.18818864 160.77996184 548.18818864 160.69873047 545.9921875 C160.69228516 545.18652344 160.68583984 544.38085938 160.67919922 543.55078125 C160.66244141 542.70902344 160.64568359 541.86726562 160.62841797 541 C160.61939453 540.15050781 160.61037109 539.30101562 160.60107422 538.42578125 C160.57747444 536.32540116 160.5416028 534.22516556 160.50341797 532.125 C157.45002593 532.125 155.56654844 533.70536669 152.94873047 535.24609375 Z " fill="#ffffff" transform="translate(403.49658203125,23.875)"/>
</svg>
