<?xml version="1.0" standalone="no"?>
<!DOCTYPE svg PUBLIC "-//W3C//DTD SVG 20010904//EN"
 "http://www.w3.org/TR/2001/REC-SVG-20010904/DTD/svg10.dtd">
<svg version="1.1" xmlns="http://www.w3.org/2000/svg"
 width="910.000000pt" height="910.000000pt" viewBox="0 0 230.000000 230.000000"
    preserveAspectRatio="xMidYMid meet">
    
<g transform="translate(0.000000,225.000000) scale(0.100000,-0.100000)"
fill="#FFFFFF" stroke="none">
<path d="M1055 2043 c-91 -49 -693 -398 -709 -412 -10 -9 -27 -34 -37 -56 -17
-37 -19 -73 -19 -445 0 -237 4 -420 10 -441 5 -19 22 -47 37 -61 23 -21 615
-368 720 -422 41 -20 95 -21 136 0 103 53 697 401 720 422 15 14 32 42 37 61
13 48 13 824 0 872 -5 19 -22 47 -37 61 -23 21 -617 369 -720 422 -40 20 -99
20 -138 -1z m200 -378 c91 -23 179 -71 245 -131 66 -61 107 -121 94 -134 -17
-16 -208 -130 -219 -130 -5 1 -22 17 -36 38 -14 20 -50 51 -80 67 -47 26 -64
30 -134 30 -70 0 -87 -4 -133 -29 -97 -54 -142 -133 -142 -250 0 -61 5 -83 28
-127 50 -96 167 -158 273 -146 62 8 138 47 177 91 17 20 35 36 38 36 13 0 234
-132 234 -139 0 -16 -59 -88 -109 -133 -129 -116 -318 -163 -490 -123 -145 35
-292 145 -359 272 -39 74 -72 197 -72 268 0 71 33 194 72 268 66 124 213 237
354 271 79 19 187 19 259 1z m365 -475 c0 -27 3 -30 30 -30 28 0 30 -3 30 -35
0 -32 -2 -35 -30 -35 -27 0 -30 -3 -30 -30 0 -27 -3 -30 -30 -30 -27 0 -30 3
-30 30 0 27 -3 30 -30 30 -28 0 -30 3 -30 35 0 32 2 35 30 35 27 0 30 3 30 30
0 27 3 30 30 30 27 0 30 -3 30 -30z m230 0 c0 -27 3 -30 30 -30 28 0 30 -3 30
-35 0 -32 -2 -35 -30 -35 -27 0 -30 -3 -30 -30 0 -27 -3 -30 -30 -30 -27 0
-30 3 -30 30 0 27 -3 30 -30 30 -28 0 -30 3 -30 35 0 32 2 35 30 35 27 0 30 3
30 30 0 27 3 30 30 30 27 0 30 -3 30 -30z"/>
</g>
</svg>
