<?xml version="1.0" standalone="no"?>
<!DOCTYPE svg PUBLIC "-//W3C//DTD SVG 20010904//EN"
 "http://www.w3.org/TR/2001/REC-SVG-20010904/DTD/svg10.dtd">
<svg version="1.0" xmlns="http://www.w3.org/2000/svg"
 width="900.000000pt" height="900.000000pt" viewBox="0 0 900.000000 900.000000"
 preserveAspectRatio="xMidYMid meet">

<g transform="translate(0.000000,900.000000) scale(0.100000,-0.100000)"
fill="#FFFFFF" stroke="none">
<path d="M4310 8609 c-75 -19 -150 -52 -245 -107 -27 -16 -75 -42 -105 -59
-30 -16 -73 -40 -95 -53 -22 -12 -152 -85 -290 -163 -254 -142 -514 -289 -595
-335 -25 -14 -63 -36 -85 -47 -22 -12 -92 -51 -155 -86 -159 -90 -424 -240
-490 -276 -30 -17 -95 -54 -143 -82 -49 -28 -91 -51 -93 -51 -2 0 -21 -10 -42
-23 -20 -13 -66 -39 -102 -59 -36 -19 -139 -77 -230 -128 -246 -139 -299 -168
-370 -208 -36 -19 -82 -46 -102 -59 -21 -13 -41 -23 -44 -23 -13 0 -120 -77
-168 -121 -96 -87 -178 -227 -214 -367 -16 -62 -17 -192 -17 -1857 0 -2025 -7
-1860 82 -2036 80 -161 214 -274 492 -416 25 -12 53 -28 61 -33 25 -17 281
-160 286 -160 3 0 17 -8 32 -19 15 -10 88 -52 162 -94 162 -90 764 -428 835
-469 28 -15 100 -55 160 -89 61 -33 124 -68 140 -78 17 -10 55 -31 85 -48 30
-17 123 -69 205 -115 83 -46 285 -160 450 -253 165 -92 318 -179 340 -192 88
-52 184 -94 265 -114 72 -18 105 -20 210 -16 179 7 217 20 485 169 88 49 372
210 420 237 17 10 55 31 85 48 30 16 71 39 90 50 19 11 98 55 175 98 77 43
212 119 300 168 88 50 196 110 240 135 44 24 141 79 215 122 74 42 167 94 205
115 39 21 171 95 295 165 288 163 689 389 805 454 177 98 280 199 355 348 81
161 75 10 75 2023 0 1665 -1 1795 -17 1857 -36 138 -119 281 -210 363 -91 82
-45 54 -658 398 -69 38 -190 107 -270 152 -80 46 -185 105 -235 132 -49 28
-142 79 -205 115 -63 36 -142 80 -175 98 -33 18 -109 61 -170 95 -145 83 -174
99 -275 155 -47 26 -128 72 -180 102 -52 30 -126 72 -165 93 -38 21 -135 75
-215 120 -80 45 -172 97 -205 115 -33 18 -76 43 -96 54 -330 190 -408 229
-513 256 -105 27 -270 26 -376 -1z m505 -1969 c246 -38 423 -93 640 -200 294
-145 547 -350 745 -603 13 -16 19 -32 14 -36 -11 -9 -129 -78 -429 -251 -126
-73 -256 -148 -289 -166 -32 -19 -62 -33 -67 -32 -4 2 -32 26 -61 53 -85 80
-137 119 -238 177 -216 124 -391 171 -635 170 -287 0 -541 -88 -770 -267 -240
-187 -408 -468 -460 -767 -21 -119 -21 -327 0 -438 57 -306 213 -567 450 -757
230 -184 491 -276 785 -276 319 0 629 123 861 341 36 34 69 62 72 62 6 0 60
-31 317 -180 192 -111 246 -142 285 -164 85 -48 185 -109 185 -113 0 -28 -263
-300 -375 -388 -90 -70 -277 -195 -293 -195 -6 0 -12 -3 -14 -8 -5 -11 -190
-96 -298 -136 -110 -41 -245 -77 -380 -101 -126 -23 -476 -32 -607 -15 -348
42 -664 159 -947 348 -134 89 -315 241 -382 319 -27 31 -59 68 -71 81 -96 104
-234 318 -308 476 -144 307 -205 586 -205 929 1 385 85 715 265 1042 44 80
150 238 204 305 175 218 418 421 656 550 33 18 65 36 70 40 24 17 239 101 330
129 216 66 373 88 630 90 145 1 221 -4 320 -19z m1845 -1420 l0 -180 174 0
c149 0 175 2 180 16 3 9 6 90 6 180 l0 164 180 0 180 0 0 -180 0 -180 180 0
180 0 0 -180 0 -180 -180 0 -180 0 0 -180 0 -180 180 0 180 0 0 -180 0 -180
-180 0 -181 0 1 -162 c0 -90 1 -171 0 -180 0 -17 -15 -18 -180 -18 l-180 0 0
180 0 180 -174 0 c-154 0 -175 -2 -180 -17 -4 -9 -6 -85 -6 -167 1 -83 1 -157
0 -163 0 -10 -43 -13 -180 -13 l-180 0 -1 163 c-1 89 -2 169 -3 177 -1 13 -29
15 -178 18 l-178 2 0 180 0 180 174 0 c149 0 175 2 180 16 3 9 6 90 6 180 l0
164 -180 0 -180 0 0 180 0 180 178 2 177 3 3 178 2 177 180 0 180 0 0 -180z"/>
<path d="M6660 4546 c0 -73 3 -154 6 -180 l7 -46 167 0 c144 0 169 2 174 16 3
9 6 90 6 180 l0 164 -180 0 -180 0 0 -134z"/>
</g>
</svg>
