<?xml version="1.0" encoding="UTF-8"?>
<svg version="1.1" xmlns="http://www.w3.org/2000/svg" width="2048" height="2048">
<path d="M0 0 C53.28824851 -0.01650286 106.57649722 -0.03231099 159.86474609 -0.04760742 C161.42893302 -0.04805651 161.42893302 -0.04805651 163.02471968 -0.04851467 C274.77442348 -0.08058035 386.52412735 -0.10824865 498.27383423 -0.12702942 C500.75647288 -0.12744777 503.23911153 -0.12786613 505.72175018 -0.12828448 C557.83452334 -0.13705279 609.94729659 -0.14520291 662.06006996 -0.15263903 C688.23856329 -0.15637518 714.41705661 -0.1602301 740.59554991 -0.16419732 C744.5444438 -0.16479507 748.4933377 -0.16538943 752.4422316 -0.16598364 C813.23997215 -0.17516213 874.0377109 -0.18688581 934.83544922 -0.20599365 C936.14236765 -0.20640435 937.44928607 -0.20681505 938.79580809 -0.20723819 C959.86681449 -0.21387519 980.93782083 -0.22072606 1002.00882716 -0.22760532 C1062.70976521 -0.2474197 1123.41070188 -0.26564914 1184.11164284 -0.27341938 C1185.36027108 -0.27357999 1186.60889933 -0.27374059 1187.89536479 -0.27390606 C1215.30773459 -0.27740359 1242.72010441 -0.28008805 1270.13247436 -0.28200295 C1281.1627855 -0.2827878 1292.19309662 -0.28368966 1303.22340775 -0.28463173 C1305.03422142 -0.28478215 1305.03422142 -0.28478215 1306.8816172 -0.28493561 C1345.75896242 -0.28822329 1384.63629734 -0.30103089 1423.51363841 -0.31884663 C1462.68596298 -0.33675387 1501.85827756 -0.34529416 1541.03060632 -0.34087196 C1546.44783086 -0.34026275 1551.86505541 -0.33976059 1557.28227997 -0.33932304 C1558.87513006 -0.33918858 1558.87513006 -0.33918858 1560.50015894 -0.3390514 C1577.29276255 -0.33791089 1594.08534497 -0.34685024 1610.87794281 -0.36002959 C1627.40373942 -0.37279126 1643.92950864 -0.3747999 1660.45530786 -0.36549544 C1670.13494394 -0.36036656 1679.81449296 -0.36336708 1689.49411881 -0.37865101 C1695.93711092 -0.38799592 1702.38004131 -0.38628754 1708.82303162 -0.37590322 C1712.46624401 -0.37033223 1716.10928811 -0.36914672 1719.75248697 -0.38170573 C1742.31174917 -0.45455313 1764.53541387 0.92589478 1786.625 5.75 C1787.8217334 6.00531494 1789.0184668 6.26062988 1790.25146484 6.52368164 C1830.68441834 15.39065137 1869.85261253 31.47075678 1904 55 C1904.60070313 55.40927734 1905.20140625 55.81855469 1905.8203125 56.24023438 C1924.32587112 68.89656907 1940.78703578 83.74749209 1956.6875 99.5 C1957.56688232 100.36625 1958.44626465 101.2325 1959.35229492 102.125 C1965.33643562 108.10182719 1970.7614996 114.36351615 1976 121 C1976.84727661 122.05840088 1976.84727661 122.05840088 1977.71166992 123.13818359 C2009.944936 163.62093757 2031.44303951 210.85322268 2042.25 261.375 C2042.48420654 262.44709717 2042.71841309 263.51919434 2042.9597168 264.6237793 C2047.21440646 285.47618269 2048.44649059 306.44789262 2048.37752342 327.67810059 C2048.38066189 330.16317528 2048.3851123 332.64824859 2048.39073652 335.1333189 C2048.39991789 340.50294893 2048.4000035 345.87245893 2048.39168589 351.24208164 C2048.37929095 359.28057716 2048.38448424 367.31899972 2048.39283381 375.35749711 C2048.40656803 389.06484916 2048.40621607 402.77216769 2048.39799118 416.47952271 C2048.38971574 430.3559741 2048.38801374 444.23240347 2048.39420319 458.1088562 C2048.3945907 458.98774428 2048.39497822 459.86663236 2048.39537748 460.77215341 C2048.39697743 464.35216618 2048.39862357 467.93217892 2048.40032831 471.51219164 C2048.41616836 504.80053105 2048.4172848 538.08885572 2048.40888596 571.37719727 C2048.40863757 572.36214381 2048.40838918 573.34709035 2048.40813327 574.36188376 C2048.40788448 575.34841952 2048.40763569 576.33495528 2048.40737936 577.35138607 C2048.39980259 607.4360007 2048.397859 637.52060923 2048.4014473 667.60522461 C2048.40167974 669.62171378 2048.4019112 671.63820295 2048.40214171 673.65469211 C2048.40307315 681.75861759 2048.40402915 689.86254307 2048.405021 697.96646854 C2048.40777169 720.61871823 2048.40948374 743.27096794 2048.41037941 765.92321777 C2048.41042035 766.95465134 2048.41046128 767.98608491 2048.41050346 769.04877404 C2048.41173085 801.90283759 2048.40835291 834.75689903 2048.40183067 867.61096191 C2048.40161993 868.67617522 2048.40140918 869.74138852 2048.40119205 870.83888101 C2048.39775741 888.13603089 2048.39409893 905.43318074 2048.39042152 922.73033057 C2048.3758531 991.32803876 2048.3765293 1059.92572939 2048.39111328 1128.5234375 C2048.39477701 1145.81197101 2048.39841023 1163.10050453 2048.40183067 1180.38903809 C2048.40214769 1181.98592783 2048.40214769 1181.98592783 2048.40247111 1183.61507796 C2048.40894199 1216.43564633 2048.41168205 1249.25621324 2048.41037941 1282.07678223 C2048.41033866 1283.1074534 2048.4102979 1284.13812458 2048.41025592 1285.20002822 C2048.40931838 1307.827331 2048.40741727 1330.45463362 2048.4046479 1353.08193624 C2048.40366052 1361.17851181 2048.40272128 1369.27508738 2048.40179577 1377.37166295 C2048.4015636 1379.38578394 2048.40132741 1381.39990493 2048.40108718 1383.41402593 C2048.39750991 1413.48872527 2048.4005489 1443.56341775 2048.40813327 1473.63811624 C2048.40838166 1474.62306278 2048.40863004 1475.60800933 2048.40888596 1476.62280273 C2048.40925803 1478.09748361 2048.40925803 1478.09748361 2048.40963761 1479.60195601 C2048.4179212 1512.79647268 2048.41485035 1545.99097169 2048.39904372 1579.18548584 C2048.39738675 1582.75403847 2048.39577663 1586.32259113 2048.39420319 1589.8911438 C2048.39381257 1590.76689632 2048.39342195 1591.64264884 2048.39301949 1592.54493931 C2048.38711517 1606.38064581 2048.3912083 1620.21633024 2048.3995102 1634.05203475 C2048.40746948 1647.67478105 2048.40461786 1661.29749033 2048.39046794 1674.92023197 C2048.3825004 1682.8938833 2048.38256145 1690.86743278 2048.39491273 1698.8410791 C2048.40318327 1704.78186431 2048.39558909 1710.72256428 2048.38214391 1716.66334212 C2048.37914739 1719.0360247 2048.381054 1721.4087205 2048.38876172 1723.78139246 C2048.45255579 1744.93743539 2046.77138761 1765.92155835 2042.25 1786.625 C2041.99468506 1787.8217334 2041.73937012 1789.0184668 2041.47631836 1790.25146484 C2035.85466224 1815.88594507 2027.33773495 1840.35335202 2016 1864 C2015.57654297 1864.8863916 2015.15308594 1865.7727832 2014.71679688 1866.68603516 C2004.1105808 1888.59747787 1990.64729489 1909.33987193 1975 1928 C1974.19046875 1929.010625 1973.3809375 1930.02125 1972.546875 1931.0625 C1965.70136809 1939.47353677 1958.07855432 1947.13288283 1950.4375 1954.8125 C1949.90678894 1955.34847809 1949.37607788 1955.88445618 1948.82928467 1956.43667603 C1941.89110498 1963.42799979 1934.76088455 1969.91162202 1927 1976 C1926.29689697 1976.56243408 1925.59379395 1977.12486816 1924.86938477 1977.7043457 C1884.40238195 2009.95188253 1837.13945751 2031.44460527 1786.625 2042.25 C1785.55290283 2042.48420654 1784.48080566 2042.71841309 1783.3762207 2042.9597168 C1762.52381731 2047.21440646 1741.55210738 2048.44649059 1720.32189941 2048.37752342 C1717.83682472 2048.38066189 1715.35175141 2048.3851123 1712.8666811 2048.39073652 C1707.49705107 2048.39991789 1702.12754107 2048.4000035 1696.75791836 2048.39168589 C1688.71942284 2048.37929095 1680.68100028 2048.38448424 1672.64250289 2048.39283381 C1658.93515084 2048.40656803 1645.22783231 2048.40621607 1631.52047729 2048.39799118 C1617.6440259 2048.38971574 1603.76759653 2048.38801374 1589.8911438 2048.39420319 C1588.57281168 2048.39478446 1588.57281168 2048.39478446 1587.22784659 2048.39537748 C1583.64783382 2048.39697743 1580.06782108 2048.39862357 1576.48780836 2048.40032831 C1543.19946895 2048.41616836 1509.91114428 2048.4172848 1476.62280273 2048.40888596 C1475.14538292 2048.40851338 1475.14538292 2048.40851338 1473.63811624 2048.40813327 C1472.65158048 2048.40788448 1471.66504472 2048.40763569 1470.64861393 2048.40737936 C1440.5639993 2048.39980259 1410.47939077 2048.397859 1380.39477539 2048.4014473 C1378.37828622 2048.40167974 1376.36179705 2048.4019112 1374.34530789 2048.40214171 C1366.24138241 2048.40307315 1358.13745693 2048.40402915 1350.03353146 2048.405021 C1327.38128177 2048.40777169 1304.72903206 2048.40948374 1282.07678223 2048.41037941 C1280.52963187 2048.41044082 1280.52963187 2048.41044082 1278.95122596 2048.41050346 C1246.09716241 2048.41173085 1213.24310097 2048.40835291 1180.38903809 2048.40183067 C1179.32382478 2048.40161993 1178.25861148 2048.40140918 1177.16111899 2048.40119205 C1159.86396911 2048.39775741 1142.56681926 2048.39409893 1125.26966943 2048.39042152 C1056.67196124 2048.3758531 988.07427061 2048.3765293 919.4765625 2048.39111328 C902.18802899 2048.39477701 884.89949547 2048.39841023 867.61096191 2048.40183067 C866.01407217 2048.40214769 866.01407217 2048.40214769 864.38492204 2048.40247111 C831.56435367 2048.40894199 798.74378676 2048.41168205 765.92321777 2048.41037941 C764.8925466 2048.41033866 763.86187542 2048.4102979 762.79997178 2048.41025592 C740.172669 2048.40931838 717.54536638 2048.40741727 694.91806376 2048.4046479 C686.82148819 2048.40366052 678.72491262 2048.40272128 670.62833705 2048.40179577 C668.61421606 2048.4015636 666.60009507 2048.40132741 664.58597407 2048.40108718 C634.51127473 2048.39750991 604.43658225 2048.4005489 574.36188376 2048.40813327 C573.37693722 2048.40838166 572.39199067 2048.40863004 571.37719727 2048.40888596 C570.39407668 2048.409134 569.4109561 2048.40938205 568.39804399 2048.40963761 C535.20352732 2048.4179212 502.00902831 2048.41485035 468.81451416 2048.39904372 C465.24596153 2048.39738675 461.67740887 2048.39577663 458.1088562 2048.39420319 C456.79522742 2048.39361726 456.79522742 2048.39361726 455.45506069 2048.39301949 C441.61935419 2048.38711517 427.78366976 2048.3912083 413.94796525 2048.3995102 C400.32521895 2048.40746948 386.70250967 2048.40461786 373.07976803 2048.39046794 C365.1061167 2048.3825004 357.13256722 2048.38256145 349.1589209 2048.39491273 C343.21813569 2048.40318327 337.27743572 2048.39558909 331.33665788 2048.38214391 C328.9639753 2048.37914739 326.5912795 2048.381054 324.21860754 2048.38876172 C303.06256461 2048.45255579 282.07844165 2046.77138761 261.375 2042.25 C260.1782666 2041.99468506 258.9815332 2041.73937012 257.74853516 2041.47631836 C193.26314883 2027.33463641 137.93865693 1994.69229322 91.3125 1948.5 C89.99342651 1947.200625 89.99342651 1947.200625 88.64770508 1945.875 C82.66356438 1939.89817281 77.2385004 1933.63648385 72 1927 C71.43514893 1926.29439941 70.87029785 1925.58879883 70.28833008 1924.86181641 C38.055064 1884.37906243 16.55696049 1837.14677732 5.75 1786.625 C5.51579346 1785.55290283 5.28158691 1784.48080566 5.0402832 1783.3762207 C0.60178119 1761.62294566 -0.45084918 1739.81005222 -0.37451235 1717.66578523 C-0.36515132 1713.9468104 -0.37363902 1710.22786276 -0.37963298 1706.50888675 C-0.38776677 1699.99253438 -0.38493872 1693.47626121 -0.37464955 1686.95991294 C-0.35930773 1677.20509883 -0.36155705 1667.45034035 -0.36704927 1657.6955185 C-0.37591346 1641.06472988 -0.37066878 1624.43397298 -0.35761642 1607.80318832 C-0.34445805 1590.96288184 -0.33790145 1574.12259175 -0.33932304 1557.28227997 C-0.33940912 1556.21657727 -0.3394952 1555.15087456 -0.33958388 1554.05287784 C-0.34005304 1548.6183595 -0.34062888 1543.18384119 -0.34124239 1537.74932287 C-0.34545924 1498.46585464 -0.33519202 1459.18240098 -0.31719017 1419.89893723 C-0.29941045 1381.00709333 -0.28786243 1342.11525568 -0.28463173 1303.22340775 C-0.28452849 1302.01466162 -0.28442526 1300.8059155 -0.28431889 1299.5605407 C-0.28337927 1288.52017432 -0.2825162 1277.47980794 -0.28174497 1266.43944154 C-0.27982702 1238.99684187 -0.27694919 1211.55424235 -0.27341938 1184.11164284 C-0.27325943 1182.86209885 -0.27309948 1181.61255486 -0.27293468 1180.3251459 C-0.265074 1119.57239309 -0.24615291 1058.81964441 -0.22631836 998.06689453 C-0.21944325 976.98974613 -0.2126171 955.91259771 -0.20599365 934.83544922 C-0.2055828 933.52820584 -0.20517196 932.22096247 -0.20474866 930.87410566 C-0.18570914 870.08016372 -0.1745373 809.28622107 -0.16538927 748.49227693 C-0.16479508 744.54448652 -0.1641975 740.59669611 -0.16359923 736.64890569 C-0.15963981 710.48623956 -0.15581588 684.3235734 -0.15208265 658.16090723 C-0.14465354 606.10567218 -0.13642851 554.05043726 -0.12765651 501.99520242 C-0.12723879 499.51631187 -0.12682163 497.03742132 -0.12640502 494.55853078 C-0.10765073 382.99393385 -0.07963844 271.42933994 -0.04760742 159.86474609 C-0.04730762 158.82030993 -0.04700781 157.77587376 -0.04669892 156.69978801 C-0.03169817 104.46652517 -0.01617614 52.23326249 0 0 Z " fill="#ffffff" transform="translate(0,0)"/>
<path d="M0 0 C0.54414551 0.44311523 1.08829102 0.88623047 1.64892578 1.34277344 C9.43577115 7.69358113 16.55865838 14.25704012 23 22 C23.44520996 22.51304688 23.89041992 23.02609375 24.34912109 23.5546875 C43.50943035 45.6373165 55.12609789 72.58854013 62.39599609 100.69433594 C62.94982969 102.80848489 63.53738195 104.9084628 64.14453125 107.0078125 C66.85772532 116.58020506 68.56949464 126.1707374 70 136 C70.13293457 136.8981543 70.26586914 137.79630859 70.40283203 138.72167969 C73.9455025 162.98918154 74 186.22603526 74 211 C28.46 211 -17.08 211 -64 211 C-64.33 197.8 -64.66 184.6 -65 171 C-67.86824552 133.54867838 -67.86824552 133.54867838 -88 103 C-91.21588665 100.96614312 -94.46886765 99.40309895 -98 98 C-98.82628906 97.65195313 -99.65257812 97.30390625 -100.50390625 96.9453125 C-115.3312398 91.329953 -135.3471595 92.33310659 -149.73046875 98.546875 C-161.41261778 103.93828374 -167.69423603 109.83879778 -174 121 C-174.391875 121.68578125 -174.78375 122.3715625 -175.1875 123.078125 C-186.28596677 145.10164499 -185.29426016 177.92645197 -177.6875 201 C-168.83123627 225.21917019 -152.20290773 238.97219965 -130 251 C-128.30037109 251.92232422 -128.30037109 251.92232422 -126.56640625 252.86328125 C-118.1227217 257.3064087 -109.40184815 260.92128059 -100.5625 264.5 C-64.05170712 279.31734238 -28.05492801 297.55949019 3 322 C4.24910156 322.96099609 4.24910156 322.96099609 5.5234375 323.94140625 C12.35171214 329.27263014 18.69827027 335.06587117 25 341 C25.721875 341.66773438 26.44375 342.33546875 27.1875 343.0234375 C37.76230218 353.12919603 45.34965662 365.08406706 52 378 C52.4021875 378.77843262 52.804375 379.55686523 53.21875 380.35888672 C60.41363118 394.45916753 65.99696383 408.99363738 71 424 C71.22913086 424.68078613 71.45826172 425.36157227 71.69433594 426.06298828 C74.27809431 433.88615551 75.90412002 441.94150174 77.5625 450 C77.76069336 450.95390625 77.95888672 451.9078125 78.16308594 452.890625 C81.60166832 470.25972876 83.47483081 487.30024116 83.28125 505.00683594 C83.24977867 507.89531422 83.24021849 510.78324098 83.234375 513.671875 C83.17484294 528.31107354 82.90300662 542.87459998 80.25 557.3125 C79.98449341 558.77840576 79.98449341 558.77840576 79.71362305 560.27392578 C73.82926938 591.7612328 62.65857488 623.74351895 44 650 C43.29488281 650.99644531 42.58976562 651.99289062 41.86328125 653.01953125 C10.6732636 695.74481575 -33.14852937 721.42751348 -85.13742065 729.62916565 C-97.23288596 731.38241375 -109.22019465 731.57062557 -121.42333984 731.46655273 C-125.13033694 731.43745811 -128.83590441 731.44603969 -132.54296875 731.45898438 C-187.72387348 731.41124094 -238.55397329 715.82081424 -278.453125 676.57421875 C-282.31542095 672.64364989 -285.70238898 668.40686226 -289 664 C-289.39106934 663.4838916 -289.78213867 662.9677832 -290.18505859 662.43603516 C-315.1363649 629.34220354 -328.27825303 589.78555396 -334 549 C-334.15662109 547.97108643 -334.15662109 547.97108643 -334.31640625 546.92138672 C-337.16443701 527.71069824 -336 508.41101621 -336 489 C-289.14 489 -242.28 489 -194 489 C-193.67 498.24 -193.34 507.48 -193 517 C-190.58172707 541.5454702 -185.82130654 572.13968694 -165.484375 589.09765625 C-148.56250872 601.25722588 -133.10281475 603.08840015 -112.35888672 600.6953125 C-101.54128372 598.89505762 -90.28139222 594.56852702 -82.69140625 586.375 C-63.7444697 559.77052558 -62.72885411 521.43076313 -67.51660156 490.33129883 C-70.89905456 471.25718891 -78.63390447 454.33994585 -93 441 C-93.5878125 440.43023438 -94.175625 439.86046875 -94.78125 439.2734375 C-117.43080644 418.06060665 -149.18490459 405.3180866 -177 392.5 C-207.04136934 378.65095145 -236.90398971 363.93333796 -262 342 C-263.16595703 340.99839844 -263.16595703 340.99839844 -264.35546875 339.9765625 C-277.0785767 328.81011539 -288.61260552 317.12053456 -298 303 C-298.38849121 302.42910645 -298.77698242 301.85821289 -299.17724609 301.27001953 C-314.13896485 279.04718568 -321.35943027 252.98004877 -325.54589844 226.82128906 C-325.83930776 224.99836536 -326.14387815 223.17718732 -326.46191406 221.35839844 C-328.92666963 207.09688623 -329.28919168 192.93540702 -329.3125 178.5 C-329.31608521 177.60430298 -329.31967041 176.70860596 -329.32336426 175.7857666 C-329.34801489 164.3410567 -328.66828483 153.32425779 -327 142 C-326.75807401 140.07483394 -326.52058497 138.14910114 -326.2890625 136.22265625 C-320.63480011 91.48298811 -304.13132158 51.8636535 -273 19 C-272.49839355 18.46439453 -271.99678711 17.92878906 -271.47998047 17.37695312 C-210.16609541 -47.75089953 -94.08688334 -53.09490078 0 0 Z " fill="#000000" transform="translate(1342,1153)"/>
<path d="M0 0 C0.83692383 0.14421387 1.67384766 0.28842773 2.53613281 0.43701172 C22.18243383 3.85502065 41.6611414 11.19152159 59 21 C59.58168945 21.3285498 60.16337891 21.65709961 60.76269531 21.99560547 C68.38466774 26.36533728 75.33698401 31.28417746 82 37 C82.80953125 37.68707031 83.6190625 38.37414063 84.453125 39.08203125 C109.95571419 61.33664918 126.90833659 90.92026603 137 123 C137.53173828 124.66095703 137.53173828 124.66095703 138.07421875 126.35546875 C149.74263311 164.9580886 151 203.6645801 151 244 C105.46 244 59.92 244 13 244 C12.67 231.13 12.34 218.26 12 205 C11.22831686 194.96217107 11.22831686 194.96217107 10 185 C9.84144531 183.89374268 9.84144531 183.89374268 9.6796875 182.76513672 C7.32940276 166.89046642 3.91303723 147.76322356 -9.33984375 137.12109375 C-16.26291069 132.63411352 -23.02276869 130.03534297 -31 128 C-31.62753174 127.8249292 -32.25506348 127.6498584 -32.90161133 127.46948242 C-48.28333502 124.02805663 -67.11073939 127.18494108 -80.5390625 135.25 C-88.74515599 141.08544426 -93.71747965 147.97760275 -98 157 C-98.556875 158.093125 -99.11375 159.18625 -99.6875 160.3125 C-108.98511681 186.43437579 -107.87493321 219.85308261 -96 245 C-81.4160643 272.55909192 -52.36229998 285.33724205 -24.9543457 296.79492188 C-10.7332354 302.74323992 3.20465914 309.12121512 17 316 C17.98629395 316.49113281 18.97258789 316.98226563 19.98876953 317.48828125 C44.48186667 329.76925868 68.20843495 344.04215063 89 362 C89.80308594 362.69222656 90.60617187 363.38445312 91.43359375 364.09765625 C93.99700779 366.35756207 96.50610007 368.66357099 99 371 C99.75434326 371.70334473 99.75434326 371.70334473 100.52392578 372.42089844 C141.39813775 410.84539341 159.12005079 475.37786923 161.14794922 529.98388672 C162.81648093 593.26798325 147.39147164 658.62407496 102.92016602 705.91821289 C101.6171923 707.28239857 100.30872142 708.64132738 99 710 C97.96552734 711.12921875 97.96552734 711.12921875 96.91015625 712.28125 C85.88762528 723.95963214 72.11483974 733.43773263 58 741 C56.9776123 741.54817383 56.9776123 741.54817383 55.93457031 742.10742188 C35.40204282 752.89237259 12.99445649 760.02631959 -10 763 C-10.6055069 763.08441345 -11.21101379 763.1688269 -11.83486938 763.25579834 C-18.61862609 764.12097704 -25.36356338 764.17880473 -32.1953125 764.203125 C-33.45979218 764.20882507 -34.72427185 764.21452515 -36.02706909 764.22039795 C-38.7015134 764.22981609 -41.37584651 764.2367278 -44.05029297 764.24023438 C-48.06364168 764.24671604 -52.07661518 764.28087254 -56.08984375 764.3125 C-75.78960237 764.39453404 -95.13070029 763.34918181 -114.25 758.25 C-115.23613281 757.99395996 -116.22226563 757.73791992 -117.23828125 757.47412109 C-141.93773254 750.86502598 -166.57346691 739.90403216 -186 723 C-186.79535156 722.31421875 -187.59070312 721.6284375 -188.41015625 720.921875 C-190.98169628 718.65598553 -193.49773339 716.34215133 -196 714 C-196.94875 713.11699219 -197.8975 712.23398438 -198.875 711.32421875 C-212.37438966 698.47556209 -222.22454974 683.35008651 -231 667 C-231.35513672 666.35111816 -231.71027344 665.70223633 -232.07617188 665.03369141 C-255.53649844 621.53147767 -259 570.22653811 -259 522 C-212.14 522 -165.28 522 -117 522 C-116.67 530.25 -116.34 538.5 -116 547 C-115.63076041 551.597856 -115.24690289 556.11986038 -114.6875 560.6875 C-114.55706299 561.77071533 -114.42662598 562.85393066 -114.29223633 563.9699707 C-113.26550233 571.96455776 -111.78648612 579.40987451 -109 587 C-108.77940918 587.61375488 -108.55881836 588.22750977 -108.33154297 588.85986328 C-102.00491004 606.28310599 -92.665689 621.98783383 -75.3203125 630.28125 C-66.74841073 633.84227744 -59.09474701 634.21025971 -49.875 634.25 C-48.70195313 634.270625 -47.52890625 634.29125 -46.3203125 634.3125 C-31.51357666 634.37830771 -17.77352258 630.04339914 -6.5625 620.125 C9.03181487 603.97867398 11.55755374 576.64814205 11.33618164 555.30615234 C11.31244283 552.86913099 11.31567356 550.43320304 11.32226562 547.99609375 C11.30057041 535.34491028 10.59206256 522.68144345 6.875 510.5 C6.66182129 509.79842773 6.44864258 509.09685547 6.22900391 508.37402344 C-4.36399115 475.41639152 -33.49063067 458.29046383 -62.66625977 443.14868164 C-70.83799304 438.99324776 -79.15767291 435.16399372 -87.48583984 431.3347168 C-96.95980311 426.97138858 -106.38586549 422.51466865 -115.77709961 417.9758606 C-117.35165389 417.21591449 -118.92745085 416.45853631 -120.50463867 415.70407104 C-171.08476717 391.49057092 -218.18308393 355.70237741 -237.6875 301.38671875 C-239.22732959 296.95510618 -240.63743539 292.4888817 -242 288 C-242.55300781 286.20755859 -242.55300781 286.20755859 -243.1171875 284.37890625 C-245.34043367 276.64924806 -246.83409671 268.86001061 -248.1875 260.9375 C-248.35459473 259.9686084 -248.52168945 258.9997168 -248.69384766 258.00146484 C-251.25105267 242.29743447 -251.24006249 226.55609783 -251.25 210.6875 C-251.25100708 209.572612 -251.25201416 208.457724 -251.25305176 207.30905151 C-251.24328196 191.33385964 -250.90455275 175.7522208 -248 160 C-247.86609863 159.20464844 -247.73219727 158.40929688 -247.59423828 157.58984375 C-244.03713634 136.65252617 -237.4077662 116.02518864 -228 97 C-227.65888184 96.29085449 -227.31776367 95.58170898 -226.96630859 94.85107422 C-220.10548912 80.66608231 -211.48917825 67.80337406 -200 56.9296875 C-198.08508529 55.08209401 -196.39219203 53.16571306 -194.6875 51.125 C-170.49280483 23.30110055 -134.38623727 8.23055588 -99 1 C-97.61327098 0.70187069 -96.22655165 0.4036963 -94.83984375 0.10546875 C-90.90561894 -0.69397833 -86.96799975 -1.3954253 -83 -2 C-82.31873047 -2.10441406 -81.63746094 -2.20882813 -80.93554688 -2.31640625 C-54.11496695 -6.18640774 -26.55238055 -4.92153734 0 0 Z " fill="#000000" transform="translate(1725,1120)"/>
<path d="M0 0 C1.5321989 0.21992273 3.06469786 0.4377789 4.59765625 0.65234375 C49.35192389 7.73342229 94.55225937 32.65817527 121.75 69.25 C158.29522468 120.21782154 161 182.50633602 161 243 C111.17 243 61.34 243 10 243 C9.67 232.44 9.34 221.88 9 211 C7.45731819 187.26643376 5.14640521 165.18970697 -13 148 C-14.01320313 147.03126953 -14.01320313 147.03126953 -15.046875 146.04296875 C-29.52361212 133.5527012 -48.78394945 132.79631067 -67 134 C-75.70172033 135.21130783 -83.65663633 139.34092546 -91 144 C-91.64582031 144.40476562 -92.29164063 144.80953125 -92.95703125 145.2265625 C-107.90292419 156.22512029 -112.30462697 179.92116708 -115 197 C-115.1700162 198.03184072 -115.34003241 199.06368143 -115.51520061 200.12679005 C-117.57342588 214.67689755 -117.29301796 229.31124731 -117.27610838 243.97251809 C-117.27361751 248.02653952 -117.28268435 252.08053892 -117.29014587 256.134552 C-117.30283048 264.05582541 -117.30469436 271.97706483 -117.30234561 279.89834668 C-117.30055508 286.34464758 -117.30232775 292.79093825 -117.30657005 299.23723793 C-117.30746284 300.6188741 -117.30746284 300.6188741 -117.30837366 302.02842212 C-117.30958554 303.90026496 -117.31079968 305.77210779 -117.31201603 307.64395062 C-117.32286778 325.15954778 -117.32074046 342.67512564 -117.31463119 360.19072387 C-117.3094655 376.16975822 -117.32071252 392.14873154 -117.33972941 408.12775382 C-117.35916179 424.58364457 -117.36735428 441.03950654 -117.36360615 457.49540883 C-117.36170211 466.71459768 -117.36410331 475.93373464 -117.37832069 485.15291405 C-117.39030466 493.00249491 -117.39156161 500.85199194 -117.37953053 508.70157411 C-117.37369029 512.69627284 -117.37240539 516.69081877 -117.38453293 520.68550682 C-117.4731129 552.10036857 -116.95386604 587.64970104 -94 612 C-81.52993544 623.63524852 -64.9530567 627.9087852 -48.28515625 627.3515625 C-32.86169138 626.38214734 -19.5660668 620.15307051 -9 609 C11.03968728 584.86660229 8.99092248 550.26324816 10 521 C59.83 521 109.66 521 161 521 C162.12314997 528.86204979 162.24292958 536.52352133 162.25 544.4375 C162.25100708 545.21666779 162.25201416 545.99583557 162.25305176 546.7986145 C162.24121312 560.38362133 161.33821518 573.59749751 159 587 C158.8448291 587.89235352 158.6896582 588.78470703 158.52978516 589.70410156 C157.49296311 595.50227253 156.30736209 601.2570823 155 607 C154.71511719 608.25425781 154.43023438 609.50851562 154.13671875 610.80078125 C145.17090547 646.9405132 127.55290913 678.14978933 102 705 C101.34773438 705.70511719 100.69546875 706.41023438 100.0234375 707.13671875 C80.14164123 727.99145399 53.63390859 741.10312582 27 751 C26.33597168 751.24878906 25.67194336 751.49757813 24.98779297 751.75390625 C0.71196576 760.64382466 -26.2321888 763.41989356 -51.9375 763.3125 C-52.84641998 763.31067719 -53.75533997 763.30885437 -54.69180298 763.30697632 C-114.23934528 763.10756431 -172.15716882 749.57202448 -216 707 C-218.47503181 704.43812497 -220.75103314 701.76156505 -223 699 C-223.40331543 698.5143457 -223.80663086 698.02869141 -224.22216797 697.52832031 C-231.40865847 688.84781698 -237.57638258 679.87855154 -243 670 C-243.3412793 669.37931641 -243.68255859 668.75863281 -244.03417969 668.11914062 C-253.6474435 650.36450028 -259.94393389 631.73632171 -264 612 C-264.15307617 611.29520508 -264.30615234 610.59041016 -264.46386719 609.86425781 C-269.87254957 584.81415807 -269.29960558 558.80834007 -269.26144934 533.31602013 C-269.25685107 528.7536533 -269.26394431 524.19130061 -269.26940918 519.62893677 C-269.2782265 510.73178748 -269.27641607 501.83467225 -269.2705839 492.93752172 C-269.26603831 485.69912679 -269.26546691 478.4607413 -269.26763153 471.22234535 C-269.267938 470.1860443 -269.26824446 469.14974324 -269.26856022 468.08203912 C-269.26919976 465.97585763 -269.26984819 463.86967614 -269.2705054 461.76349465 C-269.27618586 442.09134195 -269.26968612 422.41920799 -269.25890467 402.74705837 C-269.24996459 385.91412656 -269.25152941 369.08122233 -269.26074219 352.24829102 C-269.2714739 332.63128005 -269.2756437 313.01428542 -269.26951766 293.39727193 C-269.26888065 291.3010399 -269.26825191 289.20480786 -269.26763153 287.10857582 C-269.26732298 286.07756658 -269.26701443 285.04655735 -269.26669653 283.98430541 C-269.26497877 276.7627536 -269.26786458 269.54121228 -269.27259064 262.31966209 C-269.27823156 253.50781576 -269.27661582 244.69600501 -269.26602915 235.88416269 C-269.26081633 231.39931456 -269.25863968 226.91452549 -269.26532745 222.42967796 C-269.28977433 204.53529003 -269.23676805 186.7884605 -267 169 C-266.89547091 168.16328966 -266.79094182 167.32657933 -266.68324518 166.46451414 C-260.65589608 118.90174403 -239.15267282 74.81262626 -202 44 C-201.10023438 43.24976563 -200.20046875 42.49953125 -199.2734375 41.7265625 C-167.08919491 15.89768933 -127.2510162 3.77593058 -87 -2 C-86.23961426 -2.11859375 -85.47922852 -2.2371875 -84.69580078 -2.359375 C-56.70670539 -6.67230142 -27.79140325 -4.48644556 0 0 Z " fill="#000000" transform="translate(791,1121)"/>
</svg>
