<?xml version="1.0" standalone="no"?>
<!DOCTYPE svg PUBLIC "-//W3C//DTD SVG 20010904//EN"
 "http://www.w3.org/TR/2001/REC-SVG-20010904/DTD/svg10.dtd">
<svg version="1.0" xmlns="http://www.w3.org/2000/svg"
 width="225.000000pt" height="225.000000pt" viewBox="0 0 225.000000 225.000000"
 preserveAspectRatio="xMidYMid meet">

<g transform="translate(0.000000,225.000000) scale(0.100000,-0.100000)"
fill="#FFFFFF" stroke="none">
<path d="M240 2154 c0 -54 162 -1850 167 -1855 5 -4 168 -52 363 -108 l355
-101 355 101 c195 56 358 104 363 108 5 5 167 1801 167 1855 0 4 -398 6 -885
6 -487 0 -885 -2 -885 -6z m1440 -396 c2 -78 -95 -1135 -104 -1144 -6 -6 -110
-39 -231 -73 l-220 -62 -223 64 c-123 36 -226 68 -230 71 -6 7 -31 252 -32
319 l0 38 113 -3 112 -3 7 -84 c4 -46 9 -85 12 -88 3 -3 58 -21 123 -39 l118
-35 115 32 c63 17 119 35 123 39 5 4 13 56 18 116 5 60 11 124 13 142 l5 32
-259 0 c-238 0 -259 1 -264 18 -2 9 -7 63 -11 120 l-7 102 280 0 280 0 7 88
c3 48 9 99 11 115 l6 27 -426 0 c-233 0 -427 3 -429 8 -3 4 -8 55 -12 115 l-7
107 556 0 556 0 0 -22z"/>
</g>
</svg>
