<?xml version="1.0" encoding="UTF-8"?>
<svg version="1.1" xmlns="http://www.w3.org/2000/svg" width="2048" height="2048">
<path d="M0 0 C0.64727051 0.42434326 1.29454102 0.84868652 1.96142578 1.28588867 C16.46088966 11.17673404 29.01606787 23.05315945 41.25 35.5625 C43.3402398 37.68815937 45.43280036 39.8114624 47.52819824 41.93203735 C48.81390439 43.2343349 50.09649515 44.53971972 51.37512207 45.84896851 C54.23564362 48.75693041 57.12947261 51.54583416 60.24291992 54.18240356 C65.90852033 59.11740578 71.15844773 64.47234125 76.45507812 69.79492188 C77.6154529 70.95721929 78.77605813 72.11928668 79.93687439 73.28114319 C82.42257012 75.76998342 84.90670771 78.26036451 87.38963318 80.75196838 C91.32147154 84.69740732 95.25719121 88.63895936 99.19348145 92.57995605 C108.25814004 101.65662251 117.3177641 110.73830861 126.37734222 119.82004547 C134.68539936 128.14831896 142.99453276 136.47551117 151.30773306 144.79865122 C155.21491898 148.71079825 159.11965855 152.62536535 163.02249908 156.54184723 C165.45665015 158.98349421 167.89290415 161.42303474 170.32971382 163.86202812 C171.45281808 164.98699327 172.57506326 166.11281688 173.69634819 167.23959541 C178.95897849 172.52718048 184.23867381 177.7375148 189.90923691 182.59117317 C193.17374027 185.42218077 196.27156857 188.4268731 199.38427734 191.42260742 C200.45921196 192.45395309 200.45921196 192.45395309 201.55586243 193.50613403 C208.15091785 199.8471955 214.69608656 206.23924538 221.22528648 212.648036 C225.58975967 216.93019421 229.96947248 221.1936013 234.39160156 225.41625977 C270.79882932 260.22508044 270.79882932 260.22508044 275.93981934 283.78134155 C277.41777345 289.99495058 279.673772 295.95443758 281.79296875 301.97265625 C282.64503436 304.48578751 283.49282872 307.00037082 284.33642578 309.51635742 C284.76565804 310.79313111 285.19504152 312.06985396 285.62457275 313.3465271 C285.83970772 313.98632381 286.05484268 314.62612053 286.27649689 315.28530502 C288.32597399 321.37695163 290.38282678 327.46611181 292.44140625 333.5546875 C292.66749825 334.22351896 292.89359024 334.89235043 293.12653351 335.58144951 C298.04411853 350.12070258 303.09156535 364.61394199 308.21948242 379.08032227 C311.03392949 387.04794742 313.73518 394.96999402 315.75 403.1875 C316.81476563 403.2803125 317.87953125 403.373125 318.9765625 403.46875 C324.87051231 404.21292253 330.45218522 405.97255786 336.125 407.6875 C337.30892334 408.04352295 338.49284668 408.3995459 339.71264648 408.76635742 C370.22115846 418.04979761 399.21093667 429.98220099 427.75 444.1875 C428.58015625 444.59790527 429.4103125 445.00831055 430.265625 445.43115234 C456.46481283 458.47110407 481.08567967 474.70189277 503.75 493.1875 C504.28544434 493.62384766 504.82088867 494.06019531 505.37255859 494.50976562 C519.43934943 506.04342346 532.38062191 518.72763809 545.25 531.5625 C545.81657318 532.12639435 546.38314636 532.6902887 546.96688843 533.27127075 C548.61636783 534.91483237 550.26192959 536.56221602 551.90625 538.2109375 C552.63374199 538.93546867 552.63374199 538.93546867 553.37593079 539.67463684 C556.02274706 542.33884205 558.53805232 545.0753446 560.985672 547.92416382 C564.48320246 551.93345988 568.15084572 555.72344473 571.92260742 559.47363281 C572.60968623 560.16086048 573.29676504 560.84808815 574.00466442 561.5561409 C576.28589851 563.83668574 578.57067647 566.11364543 580.85546875 568.390625 C582.50051789 570.03375312 584.14533813 571.67711043 585.78994751 573.32067871 C589.32155581 576.84913457 592.8547097 580.37603277 596.3890686 583.9017334 C601.50714687 589.00740199 606.62213478 594.11615616 611.73615634 599.22588778 C620.04597813 607.52865593 628.35766597 615.82955313 636.67089844 624.12890625 C637.16752704 624.62470704 637.66415563 625.12050782 638.17583358 625.63133287 C641.70050575 629.15010531 645.22524506 632.66881048 648.75 636.1875 C652.77641352 640.20698484 656.80279664 644.22650013 660.82910156 648.24609375 C661.57312912 648.98887912 661.57312912 648.98887912 662.33218753 649.74667025 C670.61609005 658.01686527 678.89801246 666.28904049 687.17853642 674.56261826 C692.72981415 680.10892238 698.28351919 685.65278084 703.83911133 691.19476318 C707.29793618 694.64611332 710.7546742 698.09954779 714.21085739 701.55354309 C715.80991728 703.15073565 717.40983905 704.74706587 719.01070023 706.342453 C721.20193478 708.52643222 723.39002013 710.71352083 725.57739258 712.90136719 C726.52016446 713.83874662 726.52016446 713.83874662 727.48198223 714.79506302 C730.4097767 717.72962212 733.1726565 720.69169881 735.7964772 723.90167463 C740.11432658 728.84997627 745.18454001 732.49585723 750.4718647 736.34646034 C796.51049717 770.78025894 849.92981681 812.64043028 858.86804719 872.73061825 C861.08842561 888.92100743 861.92795312 905.12299713 862.23779297 921.45068359 C862.2563543 922.38580682 862.27491562 923.32093004 862.29403942 924.28439033 C862.7568411 949.14841291 862.1063049 973.95467577 861.13916158 998.79858132 C860.57450683 1013.55207379 860.28989259 1028.29262463 860.18649673 1043.05632401 C860.17893537 1044.11763601 860.17137401 1045.17894802 860.16358352 1046.272421 C860.12634667 1051.66629261 860.09320198 1057.06018116 860.06162716 1062.45408852 C859.83292377 1100.28047973 859.09880815 1138.08080049 858.04833984 1175.89257812 C857.03156931 1212.5347592 856.25569758 1249.16970514 855.79248047 1285.82324219 C855.77077865 1287.52941603 855.77077865 1287.52941603 855.74863841 1289.27005803 C855.60355239 1300.6968693 855.46322015 1312.1237349 855.32636389 1323.55064754 C855.04767306 1346.81112794 854.7373366 1370.07115032 854.40774536 1393.33096313 C854.39264347 1394.3994932 854.37754157 1395.46802326 854.36198204 1396.56893303 C853.35654279 1467.45259879 851.61440711 1538.32185751 849.75 1609.1875 C848.47336831 1609.66843811 847.19652772 1610.14882173 845.91959953 1610.62897205 C844.8530724 1611.03033193 844.8530724 1611.03033193 843.76499927 1611.43980008 C841.38826769 1612.32172695 838.99548752 1613.13735173 836.58642578 1613.92651367 C835.64517853 1614.23568726 834.70393127 1614.54486084 833.73416138 1614.86340332 C832.73134125 1615.19078491 831.72852112 1615.5181665 830.6953125 1615.85546875 C829.08727249 1616.38243347 829.08727249 1616.38243347 827.44674683 1616.92004395 C823.9234935 1618.07373169 820.39931154 1619.2245493 816.875 1620.375 C815.64974609 1620.77554596 814.42449219 1621.17609192 813.16210938 1621.58877563 C795.38409305 1627.39974606 777.58560902 1633.14448259 759.76593018 1638.82650757 C741.01376451 1644.80634765 722.28703892 1650.86286793 703.56509781 1656.93648529 C682.07493895 1663.90786479 660.58203619 1670.86968192 639.0625 1677.75 C638.07475586 1678.06583038 637.08701172 1678.38166077 636.06933594 1678.70706177 C625.04363202 1682.23112457 614.01328439 1685.74045885 602.98046875 1689.2421875 C601.94376541 1689.57139694 600.90706207 1689.90060638 599.83894348 1690.23979187 C594.90027059 1691.80807655 589.96111486 1693.37479102 585.02075195 1694.93774414 C583.28464968 1695.48838634 581.54856466 1696.03908297 579.8125 1696.58984375 C579.01937912 1696.84003265 578.22625824 1697.09022156 577.40910339 1697.34799194 C573.50124158 1698.56768707 573.50124158 1698.56768707 569.75 1700.1875 C569.00312365 1702.22850371 569.00312365 1702.22850371 568.43017578 1704.76489258 C566.50490316 1712.24234636 564.18015378 1719.58526741 561.8671875 1726.94921875 C561.37983533 1728.50611339 560.89266807 1730.06306592 560.40567017 1731.62007141 C559.36185835 1734.95598216 558.31680431 1738.29150014 557.27075195 1741.62670898 C555.59452018 1746.9712179 553.92107565 1752.31659707 552.24804688 1757.66210938 C550.20435681 1764.19133448 548.16004031 1770.72036277 546.11489487 1777.24913216 C542.54351277 1788.65037977 538.97703719 1800.05315364 535.4140625 1811.45703125 C535.15858328 1812.27472363 534.90310406 1813.092416 534.63988304 1813.93488693 C533.35561636 1818.04543349 532.07144465 1822.1560097 530.787323 1826.26660156 C528.46592914 1833.69747832 526.14382522 1841.12813318 523.82172203 1848.5587883 C523.0434731 1851.04916733 522.26524329 1853.53955233 521.48701477 1856.02993774 C518.25256802 1866.38024164 515.01743351 1876.73033039 511.78189087 1887.08029175 C509.84349979 1893.28089329 507.9053087 1899.48155733 505.96715736 1905.68223381 C504.45003409 1910.53586561 502.9327238 1915.38943885 501.41506958 1920.24290466 C495.72238378 1938.4511042 490.04347954 1956.66354042 484.37768555 1974.88012695 C483.73036315 1976.96113607 483.08303196 1979.04214245 482.43569183 1981.12314606 C480.87369359 1986.14456597 479.31180223 1991.16601912 477.75 1996.1875 C474.13619852 1996.18941498 470.52239702 1996.19129945 466.90859551 1996.19316631 C465.53382814 1996.1938809 464.15906077 1996.19460327 462.78429341 1996.19533301 C453.94411946 1996.20002007 445.10394585 1996.20394158 436.26377106 1996.20664024 C432.66702268 1996.20780749 429.07027434 1996.20904002 425.473526 1996.21031189 C424.54772412 1996.21063292 423.62192223 1996.21095394 422.66806574 1996.2112847 C409.85076247 1996.21601926 397.03348903 1996.22847656 384.21619838 1996.24682885 C373.71835422 1996.26174766 363.22050695 1996.27264084 352.72265625 1996.28173828 C351.64430089 1996.28271562 350.56594553 1996.28369295 349.45491274 1996.2846999 C317.74382161 1996.3118195 286.03656537 1996.18926453 254.32645751 1995.9443595 C233.39681373 1995.78406509 212.46690683 1995.66992737 191.53687352 1995.57490063 C187.99337972 1995.55854516 184.44989285 1995.54103294 180.90640497 1995.52344513 C118.57402043 1995.22474613 56.7365118 1996.70839826 -5.44838643 2001.01297575 C-40.92513892 2003.46350087 -76.43272372 2005.36580131 -111.96876633 2006.70744187 C-113.82415307 2006.77752712 -115.67950951 2006.84841891 -117.53483474 2006.92011398 C-203.76757852 2010.24380593 -277.76024055 2009.04837031 -351.81539917 1943.96334839 C-388.12301296 1910.31704213 -419.72956277 1870.58386003 -446.88269806 1829.34360695 C-447.39621069 1828.56983436 -447.90972332 1827.79606177 -448.43879694 1826.99884152 C-449.37151988 1825.58815315 -450.29446047 1824.17091046 -451.20407349 1822.74521136 C-454.05734156 1818.42537787 -457.25566397 1815.22552205 -461.22040731 1811.90614581 C-464.42531165 1809.19225379 -467.36037305 1806.22182754 -470.3261261 1803.2518158 C-470.99081931 1802.59009371 -471.65551252 1801.92837162 -472.34034795 1801.24659735 C-474.54476613 1799.05078128 -476.74566246 1796.85147083 -478.9465332 1794.65209961 C-480.53556629 1793.06770072 -482.12479473 1791.48349774 -483.71420288 1789.8994751 C-488.01644951 1785.6102965 -492.3154032 1781.31783276 -496.61334634 1777.0243423 C-499.30390438 1774.33672403 -501.99504473 1771.64969016 -504.68636131 1768.9628315 C-512.157577 1761.503714 -519.62793548 1754.04374113 -527.0948 1746.58026791 C-527.57147248 1746.10381499 -528.04814496 1745.62736207 -528.53926207 1745.13647119 C-529.01698374 1744.65896779 -529.49470541 1744.1814644 -529.98690349 1743.68949121 C-530.95472772 1742.72211042 -531.92255352 1741.75473119 -532.89038086 1740.78735352 C-533.37044164 1740.30751416 -533.85050242 1739.82767481 -534.3451105 1739.33329488 C-542.11416972 1731.56817899 -549.88995606 1723.80983727 -557.66868482 1716.05440908 C-565.68080899 1708.06608853 -573.68707518 1700.07194146 -581.68801755 1692.07241827 C-586.16992951 1687.5915501 -590.65419477 1683.11310168 -595.14455605 1678.64069939 C-599.37261195 1674.42922643 -603.59332047 1670.2105218 -607.80872726 1665.98638916 C-609.34793214 1664.44641936 -610.88965489 1662.90896095 -612.43421364 1661.37436104 C-621.42682512 1652.43629268 -629.64551497 1643.33214278 -637.25 1633.1875 C-638.97070865 1630.97245242 -640.7048907 1628.76827786 -642.4375 1626.5625 C-647.00785838 1620.62625036 -651.23571281 1614.51135462 -655.25 1608.1875 C-655.72840332 1607.43436523 -656.20680664 1606.68123047 -656.69970703 1605.90527344 C-663.87345176 1594.56249382 -670.74239236 1583.09779873 -677.11328125 1571.28466797 C-678.18517507 1569.30709754 -679.27729295 1567.3422308 -680.375 1565.37890625 C-697.95342296 1533.55099955 -715.85578853 1495.49081243 -722.72749329 1459.70054626 C-723.78207121 1454.60903579 -723.78207121 1454.60903579 -727.04367065 1450.77592468 C-729.44625434 1449.66373143 -731.82077953 1448.85497261 -734.35546875 1448.08984375 C-735.28539139 1447.77314224 -736.21531403 1447.45644073 -737.17341614 1447.13014221 C-740.25037609 1446.09118867 -743.34260711 1445.10910453 -746.4375 1444.125 C-748.61274842 1443.40008135 -750.78656066 1442.67084027 -752.95898438 1441.9375 C-757.47556739 1440.41659081 -761.99777694 1438.91451447 -766.52490234 1437.42529297 C-772.85409767 1435.33281221 -779.14584082 1433.14567835 -785.42578125 1430.91015625 C-786.40590179 1430.56143967 -787.38602234 1430.21272308 -788.39584351 1429.85343933 C-792.33593026 1428.44848259 -796.27414897 1427.03842532 -800.21044922 1425.62289429 C-810.40758009 1421.95691171 -820.603957 1418.35339564 -830.94233704 1415.10279846 C-874.56768292 1401.37748139 -874.56768292 1401.37748139 -888.28930664 1382.75366211 C-894.44882795 1374.69205975 -901.68070554 1367.62414815 -908.85742188 1360.48242188 C-910.01971929 1359.3220471 -911.18178668 1358.16144187 -912.34364319 1357.00062561 C-914.83248342 1354.51492988 -917.32286451 1352.03079229 -919.81446838 1349.54786682 C-923.75990732 1345.61602846 -927.70145936 1341.68030879 -931.64245605 1337.74401855 C-940.00867093 1329.38887166 -948.37911155 1321.03796412 -956.75 1312.6875 C-965.78917397 1303.67038092 -974.82760523 1294.6525248 -983.86115122 1285.62976694 C-987.77329825 1281.72258102 -991.68786535 1277.81784145 -995.60434723 1273.91500092 C-998.04599421 1271.48084985 -1000.48553474 1269.04459585 -1002.92452812 1266.60778618 C-1004.04949327 1265.48468192 -1005.17531688 1264.36243674 -1006.30209541 1263.24115181 C-1011.57454111 1257.99358942 -1016.74903775 1252.72667701 -1021.59028244 1247.07208443 C-1024.73598716 1243.50018384 -1028.14138169 1240.18342791 -1031.52099609 1236.8347168 C-1032.317108 1236.04167145 -1033.11321991 1235.2486261 -1033.93345642 1234.43154907 C-1035.64997574 1232.72214267 -1037.36762027 1231.01386555 -1039.08628464 1229.30661583 C-1041.81409104 1226.59632628 -1044.53823059 1223.88239978 -1047.26138306 1221.16743469 C-1055.00038149 1213.4527757 -1062.74495745 1205.74373492 -1070.49414062 1198.03930664 C-1075.2464832 1193.31432295 -1079.99338848 1188.58392994 -1084.7375679 1183.85074806 C-1086.53683015 1182.0576567 -1088.33798269 1180.26645991 -1090.14112473 1178.47727013 C-1107.86167108 1160.8926271 -1107.86167108 1160.8926271 -1115.25 1151.1875 C-1116.16416289 1150.05526555 -1117.08051758 1148.92479377 -1118 1147.796875 C-1124.15298892 1139.97745158 -1129.35761678 1131.84514348 -1134.25 1123.1875 C-1134.59804687 1122.58180176 -1134.94609375 1121.97610352 -1135.3046875 1121.35205078 C-1150.46244514 1094.84734392 -1161.3076242 1060.23727819 -1153.75 1029.6875 C-1150.99901418 1020.33219716 -1147.06339549 1010.32521575 -1140.49609375 1002.984375 C-1136.59095887 998.5953695 -1133.51010162 993.70895253 -1130.33395386 988.77911377 C-1128.72597771 986.28379092 -1127.10633936 983.79610765 -1125.48744202 981.30786133 C-1124.58516854 979.9209989 -1123.68344196 978.53378055 -1122.7822113 977.14624023 C-1116.93149152 968.14404142 -1111.01685143 959.18389215 -1105.10574341 950.22128296 C-1103.22914611 947.37565126 -1101.35360101 944.52932863 -1099.47827148 941.68286133 C-1094.42076986 934.00875674 -1089.35991134 926.33725431 -1084.25390625 918.6953125 C-1078.50480453 910.09057704 -1072.82180433 901.44237363 -1067.13269043 892.7979126 C-1058.45506992 879.61381465 -1049.77406656 866.43266732 -1041 853.3125 C-1034.0986446 842.98910491 -1027.25849897 832.62660223 -1020.4375 822.25 C-1019.91787689 821.45953278 -1019.39825378 820.66906555 -1018.86288452 819.85464478 C-1016.70423112 816.57064357 -1014.54571639 813.28655126 -1012.38734436 810.00236511 C-1005.7020565 799.83074371 -999.00915701 789.66413943 -992.3125 779.5 C-991.6918869 778.55800751 -991.0712738 777.61601501 -990.43185425 776.64547729 C-982.6263281 764.80025462 -974.79140514 752.97595553 -966.90771484 741.18261719 C-958.00805536 727.85462473 -949.2250703 714.44967336 -940.42359924 701.05674744 C-934.19382287 691.57827129 -927.95473071 682.10593677 -921.71353149 672.63497925 C-920.46528973 670.74066472 -919.21721708 668.84623876 -917.96932983 666.95169067 C-912.41853348 658.52448953 -906.86783256 650.09757069 -901.26171875 641.70703125 C-895.58578829 633.21170239 -889.9756174 624.67318727 -884.35955811 616.13821411 C-874.82330923 601.64729127 -865.26400467 587.17279566 -855.625 572.75 C-848.34164287 561.8498012 -841.1154301 550.91470491 -833.94311523 539.94116211 C-826.38553437 528.38006723 -818.78836849 516.84517059 -811.1875 505.3125 C-810.56825653 504.37256195 -809.94901306 503.4326239 -809.31100464 502.46420288 C-797.95119018 485.22204195 -797.95119018 485.22204195 -792.2578125 476.69921875 C-784.55779231 465.17250442 -776.94190319 453.58972484 -769.3293457 442.00512695 C-768.04778468 440.05543828 -766.7661285 438.10581214 -765.484375 436.15625 C-764.85927536 435.2053801 -764.23417572 434.25451019 -763.59013367 433.27482605 C-760.38019104 428.39894875 -757.15211396 423.53693455 -753.8792572 418.70304871 C-752.63243918 416.86147314 -751.39154591 415.0160593 -750.15258789 413.16918945 C-748.72204875 411.04174928 -747.27933284 408.92242362 -745.82202148 406.81323242 C-742.28866552 401.52770776 -740.95242531 398.67628134 -741.25 392.1875 C-739.44140625 390.140625 -739.44140625 390.140625 -736.8125 388.4375 C-735.83071777 387.80126709 -734.84893555 387.16503418 -733.83740234 386.50952148 C-731.44947867 384.96292342 -729.05958671 383.41943121 -726.66821289 381.87817383 C-715.73219116 374.82452441 -704.85509292 367.6832172 -693.99267578 360.5168457 C-691.12198052 358.623008 -688.25050016 356.73036538 -685.37890625 354.83789062 C-677.47023994 349.62399633 -669.56383846 344.40716976 -661.6875 339.14453125 C-653.21955151 333.48678469 -644.7082296 327.8950501 -636.20071411 322.29705811 C-621.70979127 312.76080923 -607.23529566 303.20150467 -592.8125 293.5625 C-581.9123012 286.27914287 -570.97720491 279.0529301 -560.00366211 271.88061523 C-548.44256723 264.32303437 -536.90767059 256.72586849 -525.375 249.125 C-524.43506195 248.50575653 -523.4951239 247.88651306 -522.52670288 247.24850464 C-509.6121228 238.73992666 -509.6121228 238.73992666 -496.734375 230.17578125 C-488.25078051 224.50764399 -479.7239197 218.90537427 -471.20071411 213.29705811 C-456.70979127 203.76080923 -442.23529566 194.20150467 -427.8125 184.5625 C-416.9123012 177.27914287 -405.97720491 170.0529301 -395.00366211 162.88061523 C-383.44256723 155.32303437 -371.90767059 147.72586849 -360.375 140.125 C-358.96509293 139.1961348 -358.96509293 139.1961348 -357.52670288 138.24850464 C-344.6121228 129.73992666 -344.6121228 129.73992666 -331.734375 121.17578125 C-323.25078051 115.50764399 -314.7239197 109.90537427 -306.20071411 104.29705811 C-291.70979127 94.76080923 -277.23529566 85.20150467 -262.8125 75.5625 C-251.9123012 68.27914287 -240.97720491 61.0529301 -230.00366211 53.88061523 C-218.44256723 46.32303437 -206.90767059 38.72586849 -195.375 31.125 C-193.96509293 30.1961348 -193.96509293 30.1961348 -192.52670288 29.24850464 C-181.99149031 22.30749181 -171.46866033 15.34900062 -160.97802734 8.34078979 C-158.6439548 6.78302391 -156.30721344 5.2292901 -153.97021484 3.67591858 C-151.69029833 2.16048677 -149.41118137 0.64385474 -147.13208008 -0.87280273 C-145.99367719 -1.63004321 -144.8550011 -2.38687312 -143.71606445 -3.14331055 C-137.24352546 -7.44273564 -130.80731757 -11.77536435 -124.50488281 -16.32250977 C-86.99952709 -41.10544458 -33.86943527 -22.27940199 0 0 Z " fill="#ffffff" transform="translate(1156.25,27.8125)"/>
<path d="M0 0 C5.70150064 4.74217569 10.95802779 9.81816154 16.19220346 15.06800497 C17.10251673 15.97704015 18.01283 16.88607533 18.95072852 17.82265703 C21.47771353 20.34623684 24.00158014 22.87291529 26.52494834 25.40011089 C29.28084556 28.1590758 32.03965705 30.91512408 34.79809383 33.6715495 C39.65088954 38.52161035 44.5018188 43.37353179 49.35154503 48.22666185 C56.61169016 55.49188263 63.87472242 62.75421209 71.13832537 70.01597561 C83.51679928 82.39148249 95.89290081 94.76935939 108.26772308 107.14851761 C120.81091983 119.69608995 133.35520513 132.24257253 145.90082741 144.78771973 C146.69273146 145.57959509 147.48463552 146.37147045 148.30053667 147.18734204 C152.33834516 151.22499417 156.37617145 155.2626285 160.41400402 159.30025656 C189.6528493 188.53769371 218.88927314 217.77755122 248.12441826 247.0186882 C277.08058927 275.98077973 306.03779321 304.94183786 334.99638557 333.90150833 C335.89540804 334.8005652 336.7944305 335.69962208 337.72069606 336.6259231 C345.93176598 344.83730621 354.14284865 353.04867657 362.35394662 361.26003163 C382.7666938 381.67341824 403.17928101 402.0869648 423.59175968 422.50061989 C424.52134491 423.43025844 425.45093014 424.35989698 426.40868462 425.3177064 C456.03622997 454.94696936 485.66311339 484.5768941 515.28947353 514.20734215 C515.76997165 514.68790655 516.25046977 515.16847096 516.74552844 515.66359793 C531.37222765 530.29231782 545.99887801 544.92108657 560.62551881 559.54986486 C576.8117093 575.73842034 592.99790813 591.92696748 609.18414307 608.11547852 C609.6708699 608.60227385 610.15759673 609.08906918 610.65907285 609.59061588 C656.88842321 655.82646682 703.11911861 702.06097276 749.3501618 748.29513104 C751.30838381 750.25348519 753.26660543 752.21183973 755.22482704 754.17019429 C773.24482438 772.19141504 791.26483751 790.21262 809.28487047 808.23380514 C810.0036248 808.95260543 810.0036248 808.95260543 810.73689941 809.68592693 C812.18769596 811.13681624 813.63849251 812.58770554 815.08928905 814.03859484 C853.8214336 852.7732157 892.55344533 891.50796936 931.28536612 930.24281395 C933.12992114 932.08750821 934.97447624 933.93220236 936.81903144 935.77689643 C1019.86685183 1018.83097067 1102.91312995 1101.88658697 1185.95874023 1184.94287109 C1187.1252603 1186.10954106 1187.1252603 1186.10954106 1188.31534643 1187.29978012 C1227.21032506 1226.19975931 1266.10521694 1265.09982525 1305 1304 C1304.5243676 1305.75387548 1304.04801145 1307.50755469 1303.57135201 1309.26115131 C1303.30615922 1310.23775253 1303.04096644 1311.21435374 1302.76773751 1312.22054893 C1301.83152372 1315.60993709 1300.81260582 1318.96762477 1299.76123047 1322.32299805 C1299.55654396 1322.97819931 1299.35185745 1323.63340057 1299.14096832 1324.30845642 C1298.468265 1326.46014067 1297.79273652 1328.61092642 1297.1171875 1330.76171875 C1296.62983533 1332.31861339 1296.14266807 1333.87556592 1295.65567017 1335.43257141 C1294.61185835 1338.76848216 1293.56680431 1342.10400014 1292.52075195 1345.43920898 C1290.84452018 1350.7837179 1289.17107565 1356.12909707 1287.49804688 1361.47460938 C1285.45435681 1368.00383448 1283.41004031 1374.53286277 1281.36489487 1381.06163216 C1277.79351277 1392.46287977 1274.22703719 1403.86565364 1270.6640625 1415.26953125 C1270.40858328 1416.08722363 1270.15310406 1416.904916 1269.88988304 1417.74738693 C1268.60561636 1421.85793349 1267.32144465 1425.9685097 1266.037323 1430.07910156 C1263.71592914 1437.50997832 1261.39382522 1444.94063318 1259.07172203 1452.3712883 C1258.2934731 1454.86166733 1257.51524329 1457.35205233 1256.73701477 1459.84243774 C1253.50256802 1470.19274164 1250.26743351 1480.54283039 1247.03189087 1490.89279175 C1245.09349979 1497.09339329 1243.1553087 1503.29405733 1241.21715736 1509.49473381 C1239.70003409 1514.34836561 1238.1827238 1519.20193885 1236.66506958 1524.05540466 C1230.97238378 1542.2636042 1225.29347954 1560.47604042 1219.62768555 1578.69262695 C1218.98036315 1580.77363607 1218.33303196 1582.85464245 1217.68569183 1584.93564606 C1216.12369359 1589.95706597 1214.56180223 1594.97851912 1213 1600 C1209.38619852 1600.00191498 1205.77239702 1600.00379945 1202.15859551 1600.00566631 C1200.78382814 1600.0063809 1199.40906077 1600.00710327 1198.03429341 1600.00783301 C1189.19411946 1600.01252007 1180.35394585 1600.01644158 1171.51377106 1600.01914024 C1167.91702268 1600.02030749 1164.32027434 1600.02154002 1160.723526 1600.02281189 C1159.79772412 1600.02313292 1158.87192223 1600.02345394 1157.91806574 1600.0237847 C1145.10076247 1600.02851926 1132.28348903 1600.04097656 1119.46619838 1600.05932885 C1108.96835422 1600.07424766 1098.47050695 1600.08514084 1087.97265625 1600.09423828 C1086.89430089 1600.09521562 1085.81594553 1600.09619295 1084.70491274 1600.0971999 C1052.99382161 1600.1243195 1021.28656537 1600.00176453 989.57645751 1599.7568595 C968.64681373 1599.59656509 947.71690683 1599.48242737 926.78687352 1599.38740063 C923.24337972 1599.37104516 919.69989285 1599.35353294 916.15640497 1599.33594513 C853.82402043 1599.03724613 791.9865118 1600.52089826 729.80161357 1604.82547575 C694.32486108 1607.27600087 658.81727628 1609.17830131 623.28123367 1610.51994187 C621.42584693 1610.59002712 619.57049049 1610.66091891 617.71516526 1610.73261398 C531.48242148 1614.05630593 457.48975945 1612.86087031 383.43460083 1547.77584839 C347.12698704 1514.12954213 315.52043723 1474.39636003 288.36730194 1433.15610695 C287.85378931 1432.38233436 287.34027668 1431.60856177 286.81120306 1430.81134152 C285.87848012 1429.40065315 284.95553953 1427.98341046 284.04592651 1426.55771136 C281.19265844 1422.23787787 277.99433603 1419.03802205 274.02959269 1415.71864581 C270.82468835 1413.00475379 267.88962695 1410.03432754 264.9238739 1407.0643158 C264.25918069 1406.40259371 263.59448748 1405.74087162 262.90965205 1405.05909735 C260.70523387 1402.86328128 258.50433754 1400.66397083 256.3034668 1398.46459961 C254.71443371 1396.88020072 253.12520527 1395.29599774 251.53579712 1393.7119751 C247.23355049 1389.4227965 242.9345968 1385.13033276 238.63665366 1380.8368423 C235.94609562 1378.14922403 233.25495527 1375.46219016 230.56363869 1372.7753315 C223.092423 1365.316214 215.62206452 1357.85624113 208.1552 1350.39276791 C207.67852752 1349.91631499 207.20185504 1349.43986207 206.71073793 1348.94897119 C205.99415543 1348.2327161 205.99415543 1348.2327161 205.26309651 1347.50199121 C204.29527228 1346.53461042 203.32744648 1345.56723119 202.35961914 1344.59985352 C201.87955836 1344.12001416 201.39949758 1343.64017481 200.9048895 1343.14579488 C193.13583028 1335.38067899 185.36004394 1327.62233727 177.58131518 1319.86690908 C169.56919101 1311.87858853 161.56292482 1303.88444146 153.56198245 1295.88491827 C149.08007049 1291.4040501 144.59580523 1286.92560168 140.10544395 1282.45319939 C135.87738805 1278.24172643 131.65667953 1274.0230218 127.44127274 1269.79888916 C125.90206786 1268.25891936 124.36034511 1266.72146095 122.81578636 1265.18686104 C113.82317488 1256.24879268 105.60448503 1247.14464278 98 1237 C96.27929135 1234.78495242 94.5451093 1232.58077786 92.8125 1230.375 C88.24214162 1224.43875036 84.01428719 1218.32385462 80 1212 C79.28239502 1210.87029785 79.28239502 1210.87029785 78.55029297 1209.71777344 C71.37654824 1198.37499382 64.50760764 1186.91029873 58.13671875 1175.09716797 C57.06482493 1173.11959754 55.97270705 1171.1547308 54.875 1169.19140625 C36.88736225 1136.62256562 24.32026756 1101.32879281 13 1066 C12.57847656 1064.74960938 12.15695312 1063.49921875 11.72265625 1062.2109375 C11.09899535 1059.43986043 10.95147723 1057.4450303 11.015625 1054.65234375 C11.12920679 1049.67052012 10.03800021 1045.3469666 8.75 1040.5625 C3.98417867 1021.35819395 1.75093975 1002.42992167 0.90175056 982.70381546 C0.83809946 981.27045427 0.83809946 981.27045427 0.77316248 979.80813629 C-0.09778815 959.90652431 -0.28248419 940.03129819 -0.24453239 920.11358787 C-0.2374775 915.18254986 -0.24243987 910.2515187 -0.24568737 905.32047868 C-0.24977986 896.73095499 -0.24664338 888.14145938 -0.23841095 879.55193901 C-0.2262047 866.78018213 -0.22575179 854.00844249 -0.22749493 841.23668084 C-0.23010653 819.73944438 -0.22350204 798.24222034 -0.21146011 776.74498749 C-0.1995852 755.49094342 -0.19190066 734.23690406 -0.18975449 712.98285675 C-0.18968566 712.31996906 -0.18961684 711.65708138 -0.18954593 710.97410619 C-0.18891943 704.91862437 -0.18834406 698.86314254 -0.18782998 692.80766071 C-0.18655207 677.76215586 -0.18463397 662.71665112 -0.18227959 647.67114639 C-0.18217295 646.98641212 -0.18206632 646.30167784 -0.18195645 645.59619405 C-0.17672797 612.3813475 -0.16411891 579.16650432 -0.15087891 545.95166016 C-0.1462951 534.44203697 -0.14174416 522.93241378 -0.1373291 511.42279053 C-0.1370552 510.70885003 -0.1367813 509.99490954 -0.13649911 509.25933448 C-0.12378368 475.99790201 -0.11635099 442.73646895 -0.11025951 409.47503468 C-0.10986339 407.31260029 -0.109465 405.1501659 -0.10906615 402.98773151 C-0.10642632 388.65577427 -0.10387707 374.32381701 -0.10138843 359.99185974 C-0.09643692 331.48089743 -0.09095362 302.96993523 -0.08510434 274.45897309 C-0.08482586 273.10156157 -0.08454775 271.74415006 -0.08427001 270.38673854 C-0.06582447 180.25782284 -0.03405329 90.128911 0 0 Z " fill="#ffffff" transform="translate(421,424)"/>
<path d="M0 0 C15.72216981 5.35148587 31.38974974 10.83057452 47 16.5 C58.93454577 20.83280591 70.89213212 25.07452622 82.90478516 29.18701172 C94.52199987 33.16634483 106.10500426 37.24075341 117.6875 41.31982422 C125.19810896 43.96432826 132.71164298 46.59851708 140.23925781 49.19433594 C149.74484635 52.47295551 159.19214042 55.89278872 168.625 59.375 C179.58067406 63.41877286 190.57857397 67.31167461 201.62719727 71.09594727 C211.45304826 74.46182807 221.26267208 77.87162397 231.0625 81.3125 C231.83812286 81.5847641 232.61374573 81.8570282 233.41287231 82.13754272 C245.13271078 86.2549875 256.82246569 90.4517495 268.5 94.6875 C281.34069975 99.34456993 294.21876679 103.87288299 307.140625 108.30078125 C316.54208645 111.52354765 325.92823195 114.79005184 335.3125 118.0625 C336.22015106 118.37899506 337.12780212 118.69549011 338.06295776 119.02157593 C353.42645603 124.38156365 368.76797871 129.80245637 384.10269165 135.24417114 C400.88866472 141.20044019 417.69072731 147.10982768 434.5 153 C453.04839205 159.5001225 471.58634551 166.02845639 490.10986328 172.59912109 C506.06434793 178.25815629 522.02950884 183.88630299 538 189.5 C555.98813199 195.82311546 573.96777036 202.16952841 591.93847656 208.54199219 C609.09581169 214.62530603 626.26574699 220.67235042 643.43954468 226.70901489 C659.23849475 232.26285835 675.02935765 237.83890164 690.8125 243.4375 C708.36193583 249.66245018 725.92712383 255.84154667 743.5 262 C762.0483292 268.50030301 780.58634477 275.02845613 799.10986328 281.59912109 C815.06434793 287.25815629 831.02950884 292.88630299 847 298.5 C864.98813199 304.82311546 882.96777036 311.16952841 900.93847656 317.54199219 C916.95039276 323.21918569 932.97286693 328.8659186 949 334.5 C965.90775802 340.44427399 982.81196717 346.39839026 999.70703125 352.37866211 C1001.7958095 353.11800848 1003.88467472 353.85710919 1005.97363281 354.59594727 C1008.85510505 355.61523879 1011.73620813 356.63556638 1014.6171875 357.65625 C1015.45426239 357.95225098 1016.29133728 358.24825195 1017.15377808 358.55322266 C1017.94204987 358.83278809 1018.73032166 359.11235352 1019.54248047 359.40039062 C1020.29140564 359.66376221 1021.04033081 359.92713379 1021.81195068 360.19848633 C1023.28098838 360.73661579 1024.73840525 361.30749506 1026.18267822 361.90893555 C1032.23162829 364.40386484 1034.7026118 363.91997868 1040.6171875 361.55151367 C1042.03874376 360.92885727 1043.45786489 360.3006229 1044.875 359.66796875 C1045.65483246 359.32458466 1046.43466492 358.98120056 1047.23812866 358.62741089 C1049.8275976 357.48563755 1052.41378318 356.3366185 1055 355.1875 C1056.83657703 354.37582625 1058.67333186 353.56455472 1060.51025391 352.75366211 C1066.34341151 350.17639783 1072.17193909 347.58876424 1078 345 C1079.88116534 344.164995 1081.76234996 343.33003343 1083.64355469 342.49511719 C1091.1147144 339.17859512 1098.58478449 335.85963265 1106.05273438 332.53588867 C1119.74621198 326.44155247 1133.4521912 320.37602813 1147.16442871 314.32403564 C1161.93878233 307.80255683 1176.69740744 301.24622132 1191.45166016 294.67941284 C1205.97021862 288.21905056 1220.51213721 281.81361871 1235.06793213 275.43765259 C1248.48255651 269.56037412 1261.86423089 263.61412205 1275.21875 257.6015625 C1276.69794922 256.93688965 1276.69794922 256.93688965 1278.20703125 256.25878906 C1280.0401173 255.43261846 1281.87093746 254.60139802 1283.69921875 253.76464844 C1284.91544922 253.21212402 1284.91544922 253.21212402 1286.15625 252.6484375 C1286.85556641 252.32794434 1287.55488281 252.00745117 1288.27539062 251.67724609 C1290 251 1290 251 1292 251 C1291.35279368 258.1199239 1289.03224293 264.72192536 1286.86328125 271.5 C1286.431742 272.86301714 1286.00074642 274.22620651 1285.57025146 275.58955383 C1284.64389969 278.52009901 1283.71434672 281.44960122 1282.78225708 284.37832642 C1280.51467061 291.50449436 1278.26427906 298.63610161 1276.01237297 305.76723671 C1275.22843726 308.24926834 1274.44388075 310.73110323 1273.65931702 313.2129364 C1268.61982166 329.16333811 1263.67277746 345.14185256 1258.73803329 361.12490845 C1250.84111357 386.69764487 1242.84874881 412.23883772 1234.78608322 437.75977707 C1226.00826162 465.54539427 1217.34619634 493.36577671 1208.74023438 521.20507812 C1208.51405867 521.9366897 1208.28788296 522.66830128 1208.05485344 523.4220829 C1206.9960281 526.84737332 1205.93768307 530.27281058 1204.88040161 533.69857788 C1204.32979568 535.48142685 1204.32979568 535.48142685 1203.76806641 537.30029297 C1203.28921494 538.85198685 1203.28921494 538.85198685 1202.8006897 540.43502808 C1202.21971901 542.29614045 1201.6165441 544.15036771 1201 546 C1197.38619852 546.00191498 1193.77239702 546.00379945 1190.15859551 546.00566631 C1188.78382814 546.0063809 1187.40906077 546.00710327 1186.03429341 546.00783301 C1177.19411946 546.01252007 1168.35394585 546.01644158 1159.51377106 546.01914024 C1155.91702268 546.02030749 1152.32027434 546.02154002 1148.723526 546.02281189 C1147.79772412 546.02313292 1146.87192223 546.02345394 1145.91806574 546.0237847 C1133.10076247 546.02851926 1120.28348903 546.04097656 1107.46619838 546.05932885 C1096.96835422 546.07424766 1086.47050695 546.08514084 1075.97265625 546.09423828 C1074.89430089 546.09521562 1073.81594553 546.09619295 1072.70491274 546.0971999 C1040.99382161 546.1243195 1009.28656537 546.00176453 977.57645751 545.7568595 C956.64681373 545.59656509 935.71690683 545.48242737 914.78687352 545.38740063 C911.24337972 545.37104516 907.69989285 545.35353294 904.15640497 545.33594513 C841.82402043 545.03724613 779.9865118 546.52089826 717.80161357 550.82547575 C682.32486108 553.27600087 646.81727628 555.17830131 611.28123367 556.51994187 C609.42584693 556.59002712 607.57049049 556.66091891 605.71516526 556.73261398 C519.48242148 560.05630593 445.48975945 558.86087031 371.43460083 493.77584839 C335.12698704 460.12954213 303.52043723 420.39636003 276.36730194 379.15610695 C275.85378931 378.38233436 275.34027668 377.60856177 274.81120306 376.81134152 C273.87848012 375.40065315 272.95553953 373.98341046 272.04592651 372.55771136 C269.19265844 368.23787787 265.99433603 365.03802205 262.02959269 361.71864581 C258.82468835 359.00475379 255.88962695 356.03432754 252.9238739 353.0643158 C252.25918069 352.40259371 251.59448748 351.74087162 250.90965205 351.05909735 C248.70523387 348.86328128 246.50433754 346.66397083 244.3034668 344.46459961 C242.71443371 342.88020072 241.12520527 341.29599774 239.53579712 339.7119751 C235.23355049 335.4227965 230.9345968 331.13033276 226.63665366 326.8368423 C223.94609562 324.14922403 221.25495527 321.46219016 218.56363869 318.7753315 C211.092423 311.316214 203.62206452 303.85624113 196.1552 296.39276791 C195.67852752 295.91631499 195.20185504 295.43986207 194.71073793 294.94897119 C194.23301626 294.47146779 193.75529459 293.9939644 193.26309651 293.50199121 C192.29527228 292.53461042 191.32744648 291.56723119 190.35961914 290.59985352 C189.87955836 290.12001416 189.39949758 289.64017481 188.9048895 289.14579488 C181.13583028 281.38067899 173.36004394 273.62233727 165.58131518 265.86690908 C157.56919101 257.87858853 149.56292482 249.88444146 141.56198245 241.88491827 C137.08007049 237.4040501 132.59580523 232.92560168 128.10544395 228.45319939 C123.87738805 224.24172643 119.65667953 220.0230218 115.44127274 215.79888916 C113.90206786 214.25891936 112.36034511 212.72146095 110.81578636 211.18686104 C101.82317488 202.24879268 93.60448503 193.14464278 86 183 C84.27929135 180.78495242 82.5451093 178.58077786 80.8125 176.375 C76.24214162 170.43875036 72.01428719 164.32385462 68 158 C67.52159668 157.24686523 67.04319336 156.49373047 66.55029297 155.71777344 C59.37654824 144.37499382 52.50760764 132.91029873 46.13671875 121.09716797 C45.06482493 119.11959754 43.97270705 117.1547308 42.875 115.19140625 C24.88906506 82.62564877 12.30730557 47.3301308 1 12 C0.75137207 11.26620117 0.50274414 10.53240234 0.24658203 9.77636719 C-0.94615845 6.08393664 -0.87442549 3.73987482 0 0 Z " fill="#ffffff" transform="translate(433,1478)"/>
<path d="M0 0 C38.07508861 9.48414045 73.87080193 23.51446599 109 41 C109.83015625 41.41040527 110.6603125 41.82081055 111.515625 42.24365234 C137.71481283 55.28360407 162.33567967 71.51439277 185 90 C185.53544434 90.43634766 186.07088867 90.87269531 186.62255859 91.32226562 C200.68934943 102.85592346 213.63062191 115.54013809 226.5 128.375 C227.06657318 128.93889435 227.63314636 129.5027887 228.21688843 130.08377075 C229.86636783 131.72733237 231.51192959 133.37471602 233.15625 135.0234375 C233.64124466 135.50645828 234.12623932 135.98947906 234.62593079 136.48713684 C237.27274706 139.15134205 239.78805232 141.8878446 242.235672 144.73666382 C245.73320246 148.74595988 249.40084572 152.53594473 253.17260742 156.28613281 C254.20322564 157.31697432 254.20322564 157.31697432 255.25466442 158.3686409 C257.53589851 160.64918574 259.82067647 162.92614543 262.10546875 165.203125 C263.75051789 166.84625312 265.39533813 168.48961043 267.03994751 170.13317871 C270.57155581 173.66163457 274.1047097 177.18853277 277.6390686 180.7142334 C282.75714687 185.81990199 287.87213478 190.92865616 292.98615634 196.03838778 C301.29597813 204.34115593 309.60766597 212.64205313 317.92089844 220.94140625 C318.41752704 221.43720704 318.91415563 221.93300782 319.42583358 222.44383287 C322.95050575 225.96260531 326.47524506 229.48131048 330 233 C334.02641352 237.01948484 338.05279664 241.03900013 342.07910156 245.05859375 C342.57511993 245.55378399 343.0711383 246.04897424 343.58218753 246.55917025 C351.86609005 254.82936527 360.14801246 263.10154049 368.42853642 271.37511826 C373.97981415 276.92142238 379.53351919 282.46528084 385.08911133 288.00726318 C388.54793618 291.45861332 392.0046742 294.91204779 395.46085739 298.36604309 C397.05991728 299.96323565 398.65983905 301.55956587 400.26070023 303.154953 C402.45193478 305.33893222 404.64002013 307.52602083 406.82739258 309.71386719 C407.45590716 310.33878681 408.08442175 310.96370644 408.73198223 311.60756302 C411.6597767 314.54212212 414.4226565 317.50419881 417.0464772 320.71417463 C421.36432658 325.66247627 426.43454001 329.30835723 431.7218647 333.15896034 C477.76049717 367.59275894 531.17981681 409.45293028 540.11804719 469.54311825 C542.33842561 485.73350743 543.17795312 501.93549713 543.48779297 518.26318359 C543.51563496 519.66586843 543.51563496 519.66586843 543.54403942 521.09689033 C544.0068411 545.96091291 543.3563049 570.76717577 542.38916158 595.61108132 C541.82450683 610.36457379 541.53989259 625.10512463 541.43649673 639.86882401 C541.42893537 640.93013601 541.42137401 641.99144802 541.41358352 643.084921 C541.37634667 648.47879261 541.34320198 653.87268116 541.31162716 659.26658852 C541.08292377 697.09297973 540.34880815 734.89330049 539.29833984 772.70507812 C538.28156931 809.3472592 537.50569758 845.98220514 537.04248047 882.63574219 C537.02077865 884.34191603 537.02077865 884.34191603 536.99863841 886.08255803 C536.85355239 897.5093693 536.71322015 908.9362349 536.57636389 920.36314754 C536.29767306 943.62362794 535.9873366 966.88365032 535.65774536 990.14346313 C535.64264347 991.2119932 535.62754157 992.28052326 535.61198204 993.38143303 C534.60654279 1064.26509879 532.86440711 1135.13435751 531 1206 C529.72336831 1206.48093811 528.44652772 1206.96132173 527.16959953 1207.44147205 C526.1030724 1207.84283193 526.1030724 1207.84283193 525.01499927 1208.25230008 C522.63826769 1209.13422695 520.24548752 1209.94985173 517.83642578 1210.73901367 C516.89517853 1211.04818726 515.95393127 1211.35736084 514.98416138 1211.67590332 C513.98134125 1212.00328491 512.97852112 1212.3306665 511.9453125 1212.66796875 C510.33727249 1213.19493347 510.33727249 1213.19493347 508.69674683 1213.73254395 C505.1734935 1214.88623169 501.64931154 1216.0370493 498.125 1217.1875 C496.89974609 1217.58804596 495.67449219 1217.98859192 494.41210938 1218.40127563 C476.63409305 1224.21224606 458.83560902 1229.95698259 441.01593018 1235.63900757 C422.26376451 1241.61884765 403.53703892 1247.67536793 384.81509781 1253.74898529 C358.45922477 1262.29879613 332.09309341 1270.81422446 305.69142151 1279.22181702 C299.60977836 1281.16073962 293.53459648 1283.1188433 287.46284485 1285.08851624 C283.3180774 1286.43217866 279.17119241 1287.76922805 275.02401733 1289.10543823 C273.06875111 1289.73731383 271.11448175 1290.37228349 269.1612854 1291.01052856 C266.49675259 1291.88091109 263.82896715 1292.74049827 261.16015625 1293.59765625 C260.37219666 1293.85816772 259.58423706 1294.1186792 258.7723999 1294.38708496 C253.34182362 1296.11394121 253.34182362 1296.11394121 250 1295 C252.74905209 1288.77041463 255.49915838 1282.54129536 258.25 1276.3125 C258.67360809 1275.35329651 259.09721619 1274.39409302 259.53366089 1273.40582275 C266.43574233 1257.77958403 273.36885773 1242.16734976 280.31509399 1226.56069946 C286.78205294 1212.02730772 293.19404806 1197.47054184 299.57644653 1182.89984131 C304.66946729 1171.27500454 309.81655479 1159.6773307 315.02905273 1148.10546875 C319.75229435 1137.59922247 324.37840471 1127.05126175 329 1116.5 C334.24722363 1104.52139826 339.51702226 1092.55450051 344.875 1080.625 C345.63901123 1078.91534058 345.63901123 1078.91534058 346.41845703 1077.17114258 C348.78029532 1071.8943965 351.16358001 1066.6301905 353.61618042 1061.39508057 C354.48884326 1059.52777915 355.35339591 1057.65694201 356.21533203 1055.78466797 C357.28911201 1053.4573549 358.37769827 1051.13679195 359.48388672 1048.82470703 C359.96100098 1047.7829834 360.43811523 1046.74125977 360.9296875 1045.66796875 C361.35491699 1044.76328857 361.78014648 1043.8586084 362.21826172 1042.92651367 C364.22146471 1035.42732747 360.87309176 1028.10060163 358.34375 1021.09375 C357.96996719 1020.03786179 357.59618439 1018.98197357 357.21107483 1017.89408875 C355.98161138 1014.42665322 354.74080014 1010.96339314 353.5 1007.5 C352.6319486 1005.05797659 351.76469075 1002.61567096 350.89819336 1000.1730957 C349.12502667 995.1784806 347.34748901 990.18546872 345.56591797 985.19384766 C342.22235142 975.82472846 338.90225732 966.44733508 335.58300781 957.06958008 C334.55230475 954.15870695 333.52042128 951.24825452 332.48828125 948.33789062 C326.52624865 931.52096402 320.62035613 914.68451586 314.71951294 897.84603882 C309.00935555 881.55341459 303.27318918 865.27039356 297.5 849 C290.86354284 830.29668605 284.28255422 811.57431122 277.71923828 792.84521484 C272.00917013 776.55286525 266.27291655 760.27018347 260.5 744 C254.33997631 726.63722201 248.22035369 709.26058612 242.125 691.875 C241.7065683 690.6815799 241.2881366 689.48815979 240.85702515 688.25857544 C239.1649763 683.43255398 237.47295405 678.6065232 235.7809906 673.7804718 C231.29867994 660.99695397 226.80792076 648.21641304 222.3125 635.4375 C221.91902374 634.31894623 221.52554749 633.20039246 221.12014771 632.04794312 C215.27825342 615.44407238 209.4085411 598.85019838 203.52456665 582.26119995 C197.21547955 564.4703845 190.96227969 546.66021912 184.71951294 528.84603882 C179.00935555 512.55341459 173.27318918 496.27039356 167.5 480 C160.86354284 461.29668605 154.28255422 442.57431122 147.71923828 423.84521484 C142.00917042 407.55286607 136.27309235 391.27012065 130.5 375 C123.86354284 356.29668605 117.28255422 337.57431122 110.71923828 318.84521484 C105.00917013 302.55286525 99.27291655 286.27018347 93.5 270 C87.33997631 252.63722201 81.22035369 235.26058612 75.125 217.875 C74.49735245 216.08486984 74.49735245 216.08486984 73.85702515 214.25857544 C72.1649763 209.43255398 70.47295405 204.6065232 68.7809906 199.7804718 C64.29867994 186.99695397 59.80792076 174.21641304 55.3125 161.4375 C54.91902374 160.31894623 54.52554749 159.20039246 54.12014771 158.04794312 C48.28096716 141.45178538 42.41467154 124.86536999 36.53262329 108.28436279 C32.27026495 96.26722882 28.02702901 84.24356572 23.80859375 72.2109375 C23.47720996 71.26580386 23.47720996 71.26580386 23.13913155 70.30157661 C20.76946126 63.54263275 18.40204744 56.78290363 16.03735352 50.0222168 C15.2436863 47.75568472 14.44998567 45.48916435 13.65625 43.22265625 C13.27391708 42.128358 12.89158417 41.03405975 12.49766541 39.90660095 C10.50892641 34.2315036 8.48466484 28.5721227 6.40625 22.92919922 C5.98710327 21.78615829 5.56795654 20.64311737 5.1361084 19.46543884 C4.33657138 17.29126358 3.5303701 15.11952344 2.71643066 12.95069885 C2.3594812 11.97882126 2.00253174 11.00694366 1.63476562 10.00561523 C1.31817993 9.15668198 1.00159424 8.30774872 0.67541504 7.43309021 C-0.04202268 4.84861904 -0.12468147 2.66897668 0 0 Z " fill="#ffffff" transform="translate(1475,431)"/>
<path d="M0 0 C0.64727051 0.42434326 1.29454102 0.84868652 1.96142578 1.28588867 C16.46088966 11.17673404 29.01606787 23.05315945 41.25 35.5625 C43.3402398 37.68815937 45.43280036 39.8114624 47.52819824 41.93203735 C48.81390439 43.2343349 50.09649515 44.53971972 51.37512207 45.84896851 C54.23564362 48.75693041 57.12947261 51.54583416 60.24291992 54.18240356 C65.90852033 59.11740578 71.15844773 64.47234125 76.45507812 69.79492188 C77.6154529 70.95721929 78.77605813 72.11928668 79.93687439 73.28114319 C82.42257012 75.76998342 84.90670771 78.26036451 87.38963318 80.75196838 C91.32147154 84.69740732 95.25719121 88.63895936 99.19348145 92.57995605 C108.25814004 101.65662251 117.3177641 110.73830861 126.37734222 119.82004547 C134.68539936 128.14831896 142.99453276 136.47551117 151.30773306 144.79865122 C155.21491898 148.71079825 159.11965855 152.62536535 163.02249908 156.54184723 C165.45665015 158.98349421 167.89290415 161.42303474 170.32971382 163.86202812 C171.45281808 164.98699327 172.57506326 166.11281688 173.69634819 167.23959541 C178.95897849 172.52718048 184.23867381 177.7375148 189.90923691 182.59117317 C193.17374027 185.42218077 196.27156857 188.4268731 199.38427734 191.42260742 C200.45921196 192.45395309 200.45921196 192.45395309 201.55586243 193.50613403 C208.15091785 199.8471955 214.69608656 206.23924538 221.22528648 212.648036 C225.58975967 216.93019421 229.96947248 221.1936013 234.39160156 225.41625977 C270.79882932 260.22508044 270.79882932 260.22508044 275.93981934 283.78134155 C277.41777396 289.99495273 279.67378671 295.95443064 281.79296875 301.97265625 C282.64502803 304.48595252 283.49282248 307.00069853 284.33642578 309.5168457 C284.76564837 310.79364298 285.19503193 312.07038616 285.62457275 313.34707642 C285.83970772 313.98682529 286.05484268 314.62657417 286.27649689 315.28570938 C288.32552512 321.37476834 290.38301812 327.46097494 292.44140625 333.546875 C292.66749825 334.2154635 292.89359024 334.88405201 293.12653351 335.57290077 C298.06383774 350.16672113 303.11638216 364.71949456 308.21948242 379.25610352 C308.50719009 380.07580627 308.79489777 380.89550903 309.09132385 381.74005127 C309.613082 383.22527034 310.13563965 384.71020897 310.6592865 386.19476318 C311.12347842 387.51395578 311.5850522 388.83407311 312.04376221 390.15518188 C312.55357467 391.62225305 313.07073058 393.08677947 313.59246826 394.5496521 C314.00568329 395.73489975 314.00568329 395.73489975 314.42724609 396.9440918 C314.68009369 397.65985886 314.93294128 398.37562592 315.19345093 399.11308289 C315.75 401.1875 315.75 401.1875 315.75 405.1875 C310.0520398 404.49544006 304.62302341 403.2149306 299.0625 401.8125 C284.13037945 398.1614602 269.11009418 395.90190917 253.75 395.1875 C252.89584103 395.14752435 252.04168206 395.1075487 251.16163948 395.06636167 C230.33126398 394.13097688 209.52718368 394.03302931 188.68009013 394.0302946 C183.73159742 394.0285397 178.78311253 394.02104061 173.83462453 394.01431805 C165.18965887 394.00334199 156.54469606 393.99592131 147.89972496 393.99091911 C135.04525255 393.98346464 122.19079006 393.97037082 109.33632355 393.95617336 C87.70618004 393.93244053 66.07603475 393.91320394 44.4458847 393.89657402 C23.04464218 393.88010524 1.64340301 393.86162036 -19.75783539 393.84044075 C-20.42404489 393.83978236 -21.0902544 393.83912396 -21.77665207 393.83844561 C-27.86201975 393.83243056 -33.94738741 393.8263907 -40.03275505 393.82032111 C-55.15598534 393.80523739 -70.27921594 393.79046438 -85.40244675 393.77590275 C-86.43512651 393.77490804 -86.43512651 393.77490804 -87.48866849 393.77389324 C-120.92587451 393.74171271 -154.36308347 393.71311333 -187.80029297 393.68481445 C-199.39447024 393.67499997 -210.9886475 393.66516959 -222.58282471 393.65527344 C-223.30195938 393.65465964 -224.02109405 393.65404584 -224.76202067 393.65341344 C-258.23296442 393.62482344 -291.70390566 393.59367879 -325.1748465 393.56188093 C-327.34951922 393.559815 -329.52419194 393.55775018 -331.69886466 393.55568558 C-346.11130947 393.54200086 -360.52375424 393.52827224 -374.93619898 393.51451423 C-403.61000287 393.48714283 -432.283807 393.46002928 -460.9576113 393.43309305 C-462.32293498 393.43181046 -463.68825867 393.43052769 -465.05358235 393.42924474 C-554.94568048 393.34477819 -644.83778431 393.26666839 -737.25 393.1875 C-737.37375 393.826875 -737.4975 394.46625 -737.625 395.125 C-737.83125 395.805625 -738.0375 396.48625 -738.25 397.1875 C-738.91 397.5175 -739.57 397.8475 -740.25 398.1875 C-740.58 396.2075 -740.91 394.2275 -741.25 392.1875 C-735.22178226 387.64355186 -729.0775902 383.37286629 -722.72265625 379.3046875 C-713.10063935 373.11067808 -703.54441741 366.81851208 -693.99267578 360.5168457 C-691.12198052 358.623008 -688.25050016 356.73036538 -685.37890625 354.83789062 C-677.47023994 349.62399633 -669.56383846 344.40716976 -661.6875 339.14453125 C-653.21955151 333.48678469 -644.7082296 327.8950501 -636.20071411 322.29705811 C-621.70979127 312.76080923 -607.23529566 303.20150467 -592.8125 293.5625 C-581.9123012 286.27914287 -570.97720491 279.0529301 -560.00366211 271.88061523 C-548.44256723 264.32303437 -536.90767059 256.72586849 -525.375 249.125 C-524.43506195 248.50575653 -523.4951239 247.88651306 -522.52670288 247.24850464 C-509.6121228 238.73992666 -509.6121228 238.73992666 -496.734375 230.17578125 C-488.25078051 224.50764399 -479.7239197 218.90537427 -471.20071411 213.29705811 C-456.70979127 203.76080923 -442.23529566 194.20150467 -427.8125 184.5625 C-416.9123012 177.27914287 -405.97720491 170.0529301 -395.00366211 162.88061523 C-383.44256723 155.32303437 -371.90767059 147.72586849 -360.375 140.125 C-359.43506195 139.50575653 -358.4951239 138.88651306 -357.52670288 138.24850464 C-344.6121228 129.73992666 -344.6121228 129.73992666 -331.734375 121.17578125 C-323.25078051 115.50764399 -314.7239197 109.90537427 -306.20071411 104.29705811 C-291.70979127 94.76080923 -277.23529566 85.20150467 -262.8125 75.5625 C-251.9123012 68.27914287 -240.97720491 61.0529301 -230.00366211 53.88061523 C-218.44256723 46.32303437 -206.90767059 38.72586849 -195.375 31.125 C-193.96509293 30.1961348 -193.96509293 30.1961348 -192.52670288 29.24850464 C-181.99149031 22.30749181 -171.46866033 15.34900062 -160.97802734 8.34078979 C-158.6439548 6.78302391 -156.30721344 5.2292901 -153.97021484 3.67591858 C-151.69029833 2.16048677 -149.41118137 0.64385474 -147.13208008 -0.87280273 C-145.99367719 -1.63004321 -144.8550011 -2.38687312 -143.71606445 -3.14331055 C-137.24352546 -7.44273564 -130.80731757 -11.77536435 -124.50488281 -16.32250977 C-86.99952709 -41.10544458 -33.86943527 -22.27940199 0 0 Z " fill="#ffffff" transform="translate(1156.25,27.8125)"/>
</svg>
