<?xml version="1.0" encoding="UTF-8"?>
<svg version="1.1" xmlns="http://www.w3.org/2000/svg" width="800" height="760">
<path d="M0 0 C2.70844134 1.31385742 4.83792346 2.56417548 7.0390625 4.625 C7.89649048 5.42442017 7.89649048 5.42442017 8.77124023 6.23999023 C9.38298096 6.82079346 9.99472168 7.40159668 10.625 8 C11.27090088 8.607229 11.91680176 9.21445801 12.58227539 9.84008789 C18.73344994 15.66378458 24.71661292 21.65521214 30.65673828 27.69335938 C33.97057663 31.04705101 37.29748109 34.31079158 40.87890625 37.37890625 C47.0027578 42.64697045 52.55559372 48.51334972 58.22265625 54.26171875 C62.05486605 58.12739763 65.86411087 61.95793924 70 65.5 C76.09140264 70.71680287 81.59653402 76.5548774 87.22265625 82.26171875 C91.05486605 86.12739763 94.86411087 89.95793924 99 93.5 C105.09140264 98.71680287 110.59653402 104.5548774 116.22265625 110.26171875 C120.05486605 114.12739763 123.86411087 117.95793924 128 121.5 C134.09140264 126.71680287 139.59653402 132.5548774 145.22265625 138.26171875 C149.05486605 142.12739763 152.86411087 145.95793924 157 149.5 C163.09140264 154.71680287 168.59653402 160.5548774 174.22265625 166.26171875 C178.05486605 170.12739763 181.86411087 173.95793924 186 177.5 C192.09140264 182.71680287 197.59653402 188.5548774 203.22265625 194.26171875 C207.05486605 198.12739763 210.86411087 201.95793924 215 205.5 C221.09140264 210.71680287 226.59653402 216.5548774 232.22265625 222.26171875 C236.05486605 226.12739763 239.86411087 229.95793924 244 233.5 C250.09140264 238.71680287 255.59653402 244.5548774 261.22265625 250.26171875 C265.05486605 254.12739763 268.86411087 257.95793924 273 261.5 C279.09140264 266.71680287 284.59653402 272.5548774 290.22265625 278.26171875 C294.05486605 282.12739763 297.86411087 285.95793924 302 289.5 C308.09140264 294.71680287 313.59653402 300.5548774 319.22265625 306.26171875 C323.05486605 310.12739763 326.86411087 313.95793924 331 317.5 C337.09140264 322.71680287 342.59653402 328.5548774 348.22265625 334.26171875 C352.05486605 338.12739763 355.86411087 341.95793924 360 345.5 C366.09140264 350.71680287 371.59653402 356.5548774 377.22265625 362.26171875 C381.82188398 366.90111441 386.41518408 371.36532952 391.52148438 375.44726562 C393.31591217 377.33177038 393.88210015 378.3940068 394 381 C392.77172852 382.81176758 392.77172852 382.81176758 390.87890625 384.64453125 C390.18990234 385.32193359 389.50089844 385.99933594 388.79101562 386.69726562 C388.05560547 387.39529297 387.32019531 388.09332031 386.5625 388.8125 C385.86189453 389.49892578 385.16128906 390.18535156 384.43945312 390.89257812 C381.08592391 394.15355364 377.67164574 397.31046787 374.12109375 400.35546875 C368.98311593 404.80197804 364.26771217 409.6638845 359.5 414.5 C354.16601368 419.9105141 348.83955219 425.21172831 343.06835938 430.15429688 C338.68533919 434.06549052 334.62254675 438.31830624 330.5 442.5 C325.16601368 447.9105141 319.83955219 453.21172831 314.06835938 458.15429688 C309.68533919 462.06549052 305.62254675 466.31830624 301.5 470.5 C296.16601368 475.9105141 290.83955219 481.21172831 285.06835938 486.15429688 C280.68533919 490.06549052 276.62254675 494.31830624 272.5 498.5 C267.16601368 503.9105141 261.83955219 509.21172831 256.06835938 514.15429688 C251.68533919 518.06549052 247.62254675 522.31830624 243.5 526.5 C238.16601368 531.9105141 232.83955219 537.21172831 227.06835938 542.15429688 C222.68533919 546.06549052 218.62254675 550.31830624 214.5 554.5 C209.16601368 559.9105141 203.83955219 565.21172831 198.06835938 570.15429688 C193.68533919 574.06549052 189.62254675 578.31830624 185.5 582.5 C180.16601368 587.9105141 174.83955219 593.21172831 169.06835938 598.15429688 C164.68533919 602.06549052 160.62254675 606.31830624 156.5 610.5 C151.16601368 615.9105141 145.83955219 621.21172831 140.06835938 626.15429688 C135.68533919 630.06549052 131.62254675 634.31830624 127.5 638.5 C122.16601368 643.9105141 116.83955219 649.21172831 111.06835938 654.15429688 C106.68533919 658.06549052 102.62254675 662.31830624 98.5 666.5 C93.16601368 671.9105141 87.83955219 677.21172831 82.06835938 682.15429688 C77.68533919 686.06549052 73.62254675 690.31830624 69.5 694.5 C64.16601368 699.9105141 58.83955219 705.21172831 53.06835938 710.15429688 C48.68533919 714.06549052 44.62254675 718.31830624 40.5 722.5 C30.48304351 732.6606718 30.48304351 732.6606718 25.9921875 736.50390625 C19.92856924 741.69405646 14.46760996 747.52778981 8.89453125 753.23242188 C8.03472656 754.10318359 7.17492187 754.97394531 6.2890625 755.87109375 C5.51256348 756.66443115 4.73606445 757.45776855 3.93603516 758.27514648 C2 760 2 760 0 760 C-5.95307395 732.3173098 -9.67859972 704.54451111 -11.8125 676.3125 C-11.89458332 675.25841241 -11.97666664 674.20432483 -12.06123734 673.11829519 C-16.26326469 617.6206486 -8.04872355 572.10714024 28.40949165 529.43699821 C48.4314771 506.28045514 70.35437955 484.92625349 92.79494387 464.14178032 C94.50487178 462.55798759 96.21317573 460.97245752 97.92130995 459.38673067 C127.47861038 431.9698172 157.81267053 405.55015738 189 380 C184.81945364 374.87014589 180.4663844 370.64468966 175.33108521 366.48936462 C173.76689469 365.20263594 172.20318649 363.91532078 170.6398859 362.62751102 C169.80993079 361.94667237 168.97997568 361.26583372 168.12487042 360.5643636 C142.3016155 339.32232859 117.31407013 317.16340605 92.77171022 294.46059114 C91.6753889 293.44657102 90.5785826 292.43307499 89.48128814 291.42010802 C38.20993292 244.08514631 -9.36377707 199.44205807 -12.68712974 125.58805364 C-13.15900686 111.53166494 -12.49182382 97.57759856 -11.4375 83.5625 C-11.36011188 82.50484106 -11.28272375 81.44718211 -11.20299053 80.3574729 C-9.18442809 53.27342402 -5.53341955 26.58724852 0 0 Z " fill="#ffffff" transform="translate(406,0)"/>
<path d="M0 0 C5.91985883 27.70615029 9.6269674 55.5010727 11.75 83.75 C11.87247353 85.33178283 11.87247353 85.33178283 11.99742126 86.94552088 C16.15929918 142.2274171 8.11758232 187.80491152 -28.25917688 230.41268702 C-48.16811206 253.45506018 -69.97670821 274.69647773 -92.30396533 295.36724114 C-94.00485201 296.94199219 -95.70411474 298.51848124 -97.40320778 300.09516716 C-126.80005229 327.35192087 -156.97270982 353.61078558 -188 379 C-183.8308884 384.11632237 -179.49805731 388.32462585 -174.36904907 392.45921326 C-172.81335264 393.73450938 -171.25814419 395.01040095 -169.70334816 396.28679466 C-168.87798475 396.96149009 -168.05262133 397.63618551 -167.2022469 398.33132625 C-141.50907751 419.39332504 -116.66147865 441.38393517 -92.26266587 463.92473972 C-91.17237181 464.93187651 -90.08158746 465.93848279 -88.9903096 466.94455349 C-37.5490203 514.37317164 9.3370663 558.86612049 12.61769092 632.88701469 C13.0874338 647.09641957 12.4227608 661.20594468 11.375 675.375 C11.29803611 676.44503061 11.22107222 677.51506122 11.14177608 678.61751699 C9.13302148 706.0359353 5.49878991 733.06591659 0 760 C-4.77696504 756.01153136 -9.29457097 751.85151437 -13.68940735 747.44760704 C-14.64661719 746.49437494 -14.64661719 746.49437494 -15.62316459 745.52188563 C-17.75413644 743.39855413 -19.88157845 741.27172191 -22.0090332 739.14486694 C-23.55413383 737.6037843 -25.0994446 736.06291232 -26.64494705 734.52223265 C-30.88611814 730.29299347 -35.12415747 726.06062821 -39.36165357 721.82770729 C-43.93378551 717.26154355 -48.508733 712.6982021 -53.08323669 708.13441467 C-64.12157024 697.12087298 -75.15468341 686.10210752 -86.18708611 675.08262533 C-89.30144578 671.9719379 -92.41597053 668.8614158 -95.53053284 665.75093126 C-114.86509525 646.44161751 -134.19805659 627.13070223 -153.5262146 607.81497765 C-157.99938639 603.3447271 -162.47258133 598.87449972 -166.94580078 594.40429688 C-167.7793911 593.57126292 -167.7793911 593.57126292 -168.62982163 592.72139999 C-186.6731702 574.69022388 -204.72589713 556.66847472 -222.78397171 538.65204747 C-241.34961813 520.12914115 -259.9072153 501.59821129 -278.4541245 483.05654246 C-281.07052974 480.4408777 -283.68702006 477.82529806 -286.30355835 475.20976639 C-287.07599392 474.43761674 -287.07599392 474.43761674 -287.86403426 473.6498681 C-296.16530969 465.35211187 -304.47495629 457.06278763 -312.78764967 448.77647171 C-321.13147479 440.45872585 -329.46592407 432.1316809 -337.79142588 423.7955942 C-342.30543285 419.27637652 -346.82348176 414.76139508 -351.35238457 410.25710106 C-355.49170541 406.14008642 -359.61950138 402.01188288 -363.73812044 397.87416132 C-365.23619563 396.37325993 -366.73857868 394.87664451 -368.24548495 393.38460974 C-370.28109002 391.36788373 -372.30093776 389.33662674 -374.31732178 387.30071068 C-374.91636871 386.71451297 -375.51541564 386.12831526 -376.13261551 385.52435398 C-377.74056625 383.8815769 -377.74056625 383.8815769 -380 381 C-379.53324014 376.3390926 -376.16591453 373.75265829 -372.99479008 370.62005997 C-372.35771855 369.97892771 -371.72064702 369.33779545 -371.06427029 368.67723495 C-368.91020841 366.5131627 -366.74553694 364.36002013 -364.58082581 362.206604 C-363.0256996 360.64873946 -361.47122975 359.09021948 -359.91736358 357.53109813 C-355.63184549 353.23495157 -351.33696614 348.94826979 -347.04054534 344.66303039 C-342.88879357 340.51918819 -338.74407146 336.36833488 -334.59915194 332.21766041 C-325.59545611 323.20202405 -316.58325289 314.19493001 -307.56753294 305.19131969 C-299.67883696 297.31314787 -291.79313259 289.43199636 -283.91038322 281.54787445 C-283.38808948 281.02549667 -282.86579573 280.5031189 -282.3276749 279.96491149 C-280.20769141 277.84457577 -278.08772381 275.72422416 -275.96777888 273.60384989 C-256.07093672 253.70304039 -236.16575571 233.81059081 -216.25655166 213.92214924 C-198.55420763 196.23817945 -180.8581572 178.54793626 -163.16772461 160.85205078 C-162.03166033 159.71564007 -160.89559588 158.57922952 -159.75953127 157.44281915 C-159.19789198 156.88100887 -158.63625269 156.31919859 -158.05759404 155.74036375 C-155.23059095 152.91250717 -152.40357302 150.08466545 -149.57653904 147.25683975 C-149.01885317 146.69899681 -148.46116731 146.14115386 -147.88658187 145.56640658 C-133.11902202 130.79486041 -118.34673663 116.02804173 -103.57293075 101.26274276 C-101.98407695 99.67479603 -100.39522386 98.08684858 -98.80637233 96.49889957 C-97.75229881 95.44542715 -96.69822152 94.39195849 -95.64414047 93.33849361 C-88.28388163 85.98246262 -80.92545408 78.62460417 -73.56826018 71.26550783 C-64.09008281 61.78489189 -54.6086804 52.30752148 -45.12147827 42.83593592 C-40.54363339 38.26536084 -35.96742298 33.69317973 -31.39548302 29.11669731 C-27.21713069 24.93429443 -23.03424993 20.75647893 -18.84757113 16.5824115 C-17.32698532 15.06477463 -15.80811333 13.54541846 -14.29105658 12.02425388 C-12.24226334 9.97041373 -10.18752408 7.9227215 -8.13105106 5.87657547 C-7.53175271 5.27288063 -6.93245435 4.66918579 -6.31499544 4.04719716 C-2.2283053 0 -2.2283053 0 0 0 Z " fill="#ffffff" transform="translate(380,0)"/>
<path d="M0 0 C0 89.76 0 179.52 0 272 C-4.41369684 268.21683128 -8.6519534 264.49772099 -12.74584961 260.40805054 C-13.2793144 259.878968 -13.8127792 259.34988546 -14.36240959 258.80477011 C-16.12805418 257.05235373 -17.89022309 255.29648658 -19.65234375 253.54052734 C-20.92574537 252.27503829 -22.19932498 251.00972832 -23.47306824 249.74458313 C-27.63160094 245.61210072 -31.78483265 241.47431264 -35.9375 237.3359375 C-37.36984577 235.90895529 -38.8021985 234.48198007 -40.23455811 233.05501175 C-46.18698259 227.12417613 -52.13798292 221.19191764 -58.08526611 215.25592613 C-66.60422313 206.75325394 -75.13159099 198.25921906 -83.67075443 189.77683866 C-89.68039727 183.80580452 -95.68051102 177.82530216 -101.67352962 171.83758318 C-105.25268908 168.2620848 -108.83594938 164.6909298 -112.42941284 161.1298027 C-115.80231738 157.78682477 -119.16332344 154.43233975 -122.51537514 151.06845665 C-123.74986592 149.83374395 -124.98867711 148.60333422 -126.23198509 147.37750053 C-127.92306318 145.70891434 -129.598172 144.02580318 -131.27001953 142.33798218 C-131.77008986 141.85179393 -132.2701602 141.36560569 -132.78538418 140.86468446 C-135.96380653 137.61041945 -135.96380653 137.61041945 -136.11787319 135.01201439 C-134.47578183 132.05648108 -132.23087518 129.82235725 -129.8440094 127.4697876 C-129.30145364 126.92325743 -128.75889789 126.37672727 -128.19990104 125.81363559 C-126.37675521 123.98085134 -124.54306133 122.1590006 -122.70922852 120.33691406 C-121.40136708 119.02662522 -120.09415181 117.71569114 -118.78753662 116.40415955 C-115.23456416 112.84176889 -111.67223035 109.28887692 -108.1078999 105.73785496 C-104.38445575 102.02570929 -100.66870938 98.30587276 -96.95188904 94.58709717 C-90.7100224 88.34434721 -84.46219621 82.10761106 -78.21069336 75.87451172 C-70.97377325 68.65877365 -63.74573752 61.43423064 -56.5225206 54.204777 C-49.58338765 47.2599586 -42.63861258 40.32081041 -35.69102287 33.38445282 C-32.72957146 30.42765684 -29.77002614 27.46897188 -26.81195259 24.50879669 C-23.33233844 21.02730524 -19.84779873 17.55082074 -16.35931396 14.07821846 C-15.07642745 12.79959068 -13.79525415 11.51924146 -12.51588249 10.23709679 C-10.77614902 8.49416384 -9.03043776 6.75745535 -7.28297424 5.02227783 C-6.77198592 4.50751019 -6.2609976 3.99274254 -5.73452479 3.46237588 C-2.22832912 0 -2.22832912 0 0 0 Z " fill="#ffffff" transform="translate(380,244)"/>
</svg>
