<?xml version="1.0" encoding="UTF-8"?>
<svg version="1.1" xmlns="http://www.w3.org/2000/svg" width="134" height="68">
<path d="M0 0 C0.98720535 -0.00137466 1.97441071 -0.00274933 2.99153137 -0.00416565 C4.07837723 -0.00057037 5.16522308 0.0030249 6.28500366 0.00672913 C7.42646347 0.0065831 8.56792328 0.00643707 9.74397278 0.00628662 C13.53159459 0.00698546 17.31916774 0.01477654 21.10678101 0.02259827 C23.7270912 0.02446255 26.34740174 0.0258864 28.9677124 0.02688599 C35.16899011 0.029997 41.37025025 0.0382073 47.57152021 0.04823548 C54.63068014 0.05940374 61.6898409 0.06490886 68.74900746 0.06993091 C83.27192022 0.08039009 97.79481912 0.0979851 112.31771851 0.12025452 C113.00521851 1.68275452 113.00521851 1.68275452 113.31771851 4.12025452 C112.32771851 6.43025452 111.33771851 8.74025452 110.31771851 11.12025452 C70.38771851 11.12025452 30.45771851 11.12025452 -10.68228149 11.12025452 C-9.80723189 6.74500649 -9.13408155 4.6508466 -6.68228149 1.12025452 C-4.25225833 -0.09475707 -2.71569125 -0.00290759 0 0 Z " fill="#FFFFFF" transform="translate(10.682281494140625,25.879745483398438)"/>
<path d="M0 0 C0.88845108 -0.00102219 1.77690216 -0.00204437 2.692276 -0.00309753 C5.61526137 0.00176136 8.53508327 0.05611976 11.45751953 0.11108398 C13.48916925 0.12414628 15.52084107 0.13410747 17.55252075 0.14109802 C22.8894583 0.16777376 28.22505369 0.23649284 33.5614624 0.31402588 C39.01100509 0.38574507 44.46076553 0.41762811 49.91064453 0.45288086 C60.59612876 0.52786354 71.28061862 0.64727241 81.96533203 0.79467773 C82.26922468 4.66930901 82.26627114 7.1837362 80.53302002 10.70243835 C76.74971361 13.78520491 73.62430461 13.420388 68.88232422 13.27050781 C67.96490448 13.26148438 67.04748474 13.25246094 66.1022644 13.24316406 C63.07137837 13.20740882 60.04243687 13.13596402 57.01220703 13.06420898 C54.9104528 13.03244464 52.80866383 13.00290744 50.70684814 12.97550964 C45.17596613 12.89742071 39.64607423 12.78905773 34.11584473 12.67443848 C28.47220986 12.5628097 22.82816317 12.47974097 17.18408203 12.39428711 C6.11057412 12.22240932 -4.96209786 12.01855443 -16.03466797 11.79467773 C-14.28052493 2.77247489 -8.59831593 -0.26092046 0 0 Z " fill="#FFFFFF" transform="translate(52.03466796875,2.205322265625)"/>
<path d="M0 0 C1.19292664 0.00707474 2.38585327 0.01414948 3.6149292 0.0214386 C7.42621484 0.04943386 11.23603314 0.11218723 15.046875 0.17578125 C17.63018712 0.20085724 20.21352226 0.22367162 22.796875 0.24414062 C29.13077397 0.29927825 35.46357569 0.38559105 41.796875 0.48828125 C41.796875 4.11828125 41.796875 7.74828125 41.796875 11.48828125 C22.326875 11.48828125 2.856875 11.48828125 -17.203125 11.48828125 C-15.24186055 -0.27930542 -10.73471667 -0.23870348 0 0 Z " fill="#FFFFFF" transform="translate(76.203125,48.51171875)"/>
<path d="M0 0 C0.98720535 -0.00137466 1.97441071 -0.00274933 2.99153137 -0.00416565 C4.07837723 -0.00057037 5.16522308 0.0030249 6.28500366 0.00672913 C7.42646347 0.0065831 8.56792328 0.00643707 9.74397278 0.00628662 C13.53159459 0.00698546 17.31916774 0.01477654 21.10678101 0.02259827 C23.7270912 0.02446255 26.34740174 0.0258864 28.9677124 0.02688599 C35.16899011 0.029997 41.37025025 0.0382073 47.57152021 0.04823548 C54.63068014 0.05940374 61.6898409 0.06490886 68.74900746 0.06993091 C83.27192022 0.08039009 97.79481912 0.0979851 112.31771851 0.12025452 C112.94271851 1.93275452 112.94271851 1.93275452 113.31771851 4.12025452 C112.65771851 5.11025452 111.99771851 6.10025452 111.31771851 7.12025452 C111.31771851 5.47025452 111.31771851 3.82025452 111.31771851 2.12025452 C96.40981518 2.18080058 81.50207176 2.25830863 66.59436512 2.35596943 C59.67233109 2.40092107 52.75034844 2.4403371 45.82821655 2.46669006 C39.14969175 2.49213118 32.47142625 2.53304 25.79303551 2.58344078 C23.24335253 2.60014343 20.69362999 2.61163648 18.14389992 2.61786842 C14.5763508 2.62747227 11.00939084 2.65548835 7.44198608 2.68788147 C6.38462753 2.68644638 5.32726898 2.68501129 4.23786926 2.68353271 C-2.70590596 2.74946846 -2.70590596 2.74946846 -8.68228149 6.12025452 C-6.75415113 0.74903423 -5.62483207 -0.0060223 0 0 Z " fill="#FFFFFF" transform="translate(10.682281494140625,25.879745483398438)"/>
<path d="M0 0 C1.19292664 0.00707474 2.38585327 0.01414948 3.6149292 0.0214386 C7.42621484 0.04943386 11.23603314 0.11218723 15.046875 0.17578125 C17.63018712 0.20085724 20.21352226 0.22367162 22.796875 0.24414062 C29.13077397 0.29927825 35.46357569 0.38559105 41.796875 0.48828125 C41.796875 4.11828125 41.796875 7.74828125 41.796875 11.48828125 C22.326875 11.48828125 2.856875 11.48828125 -17.203125 11.48828125 C-15.24186055 -0.27930542 -10.73471667 -0.23870348 0 0 Z M-15.203125 6.48828125 C-15.533125 7.80828125 -15.863125 9.12828125 -16.203125 10.48828125 C2.606875 10.48828125 21.416875 10.48828125 40.796875 10.48828125 C40.796875 7.51828125 40.796875 4.54828125 40.796875 1.48828125 C33.94676257 1.36438529 27.09730698 1.2737995 20.24633789 1.21362305 C17.91744622 1.18852898 15.58863293 1.15444602 13.26000977 1.11108398 C9.90621572 1.05021008 6.5534658 1.02201947 3.19921875 1 C1.64568947 0.96129036 1.64568947 0.96129036 0.06077576 0.92179871 C-6.66960811 0.91920636 -10.27011816 1.78094267 -15.203125 6.48828125 Z " fill="#FFFFFF" transform="translate(76.203125,48.51171875)"/>
</svg>
