<?xml version="1.0" standalone="no"?>
<!DOCTYPE svg PUBLIC "-//W3C//DTD SVG 20010904//EN"
 "http://www.w3.org/TR/2001/REC-SVG-20010904/DTD/svg10.dtd">
<svg version="1.0" xmlns="http://www.w3.org/2000/svg"
 width="2048.000000pt" height="2048.000000pt" viewBox="0 0 2048.000000 2048.000000"
 preserveAspectRatio="xMidYMid meet">

<g transform="translate(0.000000,2048.000000) scale(0.100000,-0.100000)"
fill="#FFFFFF" stroke="none">
<path d="M1206 20448 c6 -42 1634 -18320 1634 -18346 0 -16 466 -150 3672
-1056 2779 -786 3681 -1037 3708 -1033 29 4 7373 2065 7376 2070 1 2 1542
17285 1627 18255 l13 142 -9017 0 -9018 0 5 -32z m14674 -3775 c-1 -129 -45
-657 -99 -1173 -33 -316 -68 -675 -77 -797 l-18 -223 -4322 0 -4323 0 5 -32
c6 -43 194 -2240 194 -2267 l0 -21 4120 0 4120 0 0 -21 c0 -12 -18 -157 -40
-323 -30 -226 -105 -1048 -300 -3286 -143 -1642 -268 -3064 -278 -3160 l-17
-174 -2310 -638 c-1271 -351 -2318 -638 -2328 -638 -27 0 -4630 1270 -4642
1281 -8 8 -283 3419 -285 3527 l0 32 1120 0 1120 0 4 -22 c3 -13 40 -417 82
-898 42 -481 77 -876 78 -876 4 -5 2501 -675 2514 -676 10 0 580 152 1267 338
l1251 338 137 1441 c76 792 138 1448 137 1458 0 16 -193 17 -3915 17 l-3915 0
-4 23 c-3 12 -129 1410 -281 3107 -245 2736 -314 3541 -315 3673 l0 37 5660 0
5660 0 0 -47z"/>
</g>
</svg>
