<?xml version="1.0" encoding="UTF-8"?>
<svg version="1.1" xmlns="http://www.w3.org/2000/svg" width="256" height="256">
<path d="M0 0 C1.12273819 -0.00426498 2.24547638 -0.00852997 3.40223694 -0.01292419 C5.22816879 -0.01224442 5.22816879 -0.01224442 7.09098816 -0.0115509 C9.03108513 -0.01658882 9.03108513 -0.01658882 11.01037598 -0.02172852 C14.547707 -0.0305372 18.08501381 -0.03290532 21.62235475 -0.0335443 C23.8359332 -0.03425663 26.04950557 -0.03639443 28.2630825 -0.03904152 C35.99576074 -0.04828489 43.72842177 -0.05237771 51.46110535 -0.05158997 C58.65243419 -0.05098959 65.84368792 -0.06153618 73.03499776 -0.07733363 C79.22289754 -0.09043914 85.41077286 -0.09577259 91.5986864 -0.09513456 C95.28829924 -0.09488044 98.9778453 -0.09768395 102.66744423 -0.10831261 C106.78654177 -0.11985525 110.90547258 -0.11522838 115.02458191 -0.10920715 C116.84140472 -0.11763641 116.84140472 -0.11763641 118.69493103 -0.12623596 C130.74084406 -0.08156964 139.60947644 1.75793578 148.49015808 10.28215027 C155.73508785 18.04362896 158.3671685 25.20911661 158.3855896 35.88183594 C158.39198708 37.56594322 158.39198708 37.56594322 158.39851379 39.28407288 C158.39806061 40.50136078 158.39760742 41.71864868 158.3971405 42.9728241 C158.40049911 44.26622208 158.40385773 45.55962006 158.40731812 46.89221191 C158.4161268 50.42954294 158.41849492 53.96684975 158.4191339 57.50419068 C158.41984623 59.71776914 158.42198403 61.9313415 158.42463112 64.14491844 C158.43387449 71.87759668 158.43796731 79.61025771 158.43717957 87.34294128 C158.43657919 94.53427012 158.44712578 101.72552386 158.46292323 108.9168337 C158.47602874 115.10473348 158.48136219 121.2926088 158.48072416 127.48052233 C158.48047003 131.17013518 158.48327355 134.85968123 158.49390221 138.54928017 C158.50544485 142.66837771 158.50081798 146.78730852 158.49479675 150.90641785 C158.50041626 152.11763306 158.50603577 153.32884827 158.51182556 154.57676697 C158.46715924 166.62267999 156.62765382 175.49131238 148.10343933 184.37199402 C140.34196064 191.61692379 133.17647299 194.24900444 122.50375366 194.26742554 C121.38101547 194.27169052 120.25827728 194.27595551 119.10151672 194.28034973 C117.27558487 194.27966995 117.27558487 194.27966995 115.4127655 194.27897644 C114.11936752 194.28233505 112.82596954 194.28569366 111.49337769 194.28915405 C107.95604666 194.29796274 104.41873985 194.30033086 100.88139892 194.30096984 C98.66782046 194.30168217 96.4542481 194.30381997 94.24067116 194.30646706 C86.50799292 194.31571043 78.77533189 194.31980325 71.04264832 194.3190155 C63.85131948 194.31841512 56.66006574 194.32896172 49.4687559 194.34475917 C43.28085612 194.35786468 37.0929808 194.36319813 30.90506727 194.36256009 C27.21545442 194.36230597 23.52590837 194.36510949 19.83630943 194.37573814 C15.71721189 194.38728079 11.59828108 194.38265392 7.47917175 194.37663269 C6.26795654 194.3822522 5.05674133 194.3878717 3.80882263 194.3936615 C-8.23709039 194.34899517 -17.10572278 192.50948976 -25.98640442 183.98527527 C-33.23133419 176.22379657 -35.86341484 169.05830892 -35.88183594 158.3855896 C-35.88610092 157.26285141 -35.89036591 156.14011322 -35.89476013 154.98335266 C-35.89430695 153.76606476 -35.89385376 152.54877686 -35.89338684 151.29460144 C-35.89842476 149.35450447 -35.89842476 149.35450447 -35.90356445 147.37521362 C-35.91237314 143.8378826 -35.91474126 140.30057579 -35.91538024 136.76323485 C-35.91609257 134.5496564 -35.91823037 132.33608403 -35.92087746 130.1225071 C-35.93012083 122.38982886 -35.93421365 114.65716783 -35.9334259 106.92448425 C-35.93282552 99.73315541 -35.94337212 92.54190168 -35.95916957 85.35059184 C-35.97227508 79.16269206 -35.97760853 72.97481674 -35.97697049 66.7869032 C-35.97671637 63.09729036 -35.97951989 59.4077443 -35.99014854 55.71814537 C-36.00169119 51.59904783 -35.99706432 47.48011702 -35.99104309 43.36100769 C-35.9966626 42.14979248 -36.0022821 40.93857727 -36.0080719 39.69065857 C-35.96340557 27.64474554 -34.12390016 18.77611316 -25.59968567 9.89543152 C-17.83820697 2.65050175 -10.67271932 0.0184211 0 0 Z M-10.74812317 26.13371277 C-12.93360172 29.23874236 -13.00097604 31.93160651 -13.00881958 35.66824341 C-13.01590439 36.79401291 -13.0229892 37.91978241 -13.0302887 39.07966614 C-13.02781128 40.31042877 -13.02533386 41.54119141 -13.02278137 42.80924988 C-13.0278923 44.10878098 -13.03300323 45.40831207 -13.03826904 46.7472229 C-13.05165602 50.30922025 -13.05223807 53.87111147 -13.04970574 57.43312907 C-13.04863583 60.40780509 -13.0535199 63.38245965 -13.05831116 66.35713106 C-13.06940529 73.37536669 -13.06984429 80.39354879 -13.063797 87.41178894 C-13.05775622 94.64977916 -13.07007097 101.88757503 -13.09136707 109.12553209 C-13.10898509 115.34221254 -13.11498412 121.55883115 -13.11172932 127.77553564 C-13.10991665 131.48743414 -13.11255098 135.199194 -13.12644386 138.91106987 C-13.14135715 143.05043525 -13.13205037 147.18940521 -13.12043762 151.32878113 C-13.12808136 152.55751953 -13.1357251 153.78625793 -13.14360046 155.05223083 C-13.13658615 156.18082016 -13.12957184 157.30940948 -13.12234497 158.47219849 C-13.12251271 159.45055633 -13.12268045 160.42891417 -13.12285328 161.43691921 C-12.6784385 164.6352075 -11.61114467 166.51990115 -9.74812317 169.13371277 C-6.4075874 171.57750706 -3.18924213 171.37597261 0.85636902 171.36076355 C1.5209676 171.36100462 2.18556618 171.36124569 2.87030411 171.36149406 C5.01325805 171.36000593 7.15586044 171.34479657 9.29875183 171.32902527 C10.61182312 171.32701111 11.92489441 171.32499695 13.27775574 171.32292175 C18.1858316 171.31245255 23.0938577 171.28453002 28.00187683 171.25871277 C38.97437683 171.21746277 49.94687683 171.17621277 61.25187683 171.13371277 C61.25187683 136.15371277 61.25187683 101.17371277 61.25187683 65.13371277 C75.44187683 64.80371277 89.63187683 64.47371277 104.25187683 64.13371277 C104.25187683 99.44371277 104.25187683 134.75371277 104.25187683 171.13371277 C125.79373044 173.19169579 125.79373044 173.19169579 133.25187683 168.13371277 C135.43735538 165.02868318 135.5047297 162.33581903 135.51257324 158.59918213 C135.51965805 157.47341263 135.52674286 156.34764313 135.53404236 155.1877594 C135.53156494 153.95699677 135.52908752 152.72623413 135.52653503 151.45817566 C135.53164597 150.15864456 135.5367569 148.85911346 135.54202271 147.52020264 C135.55540968 143.95820529 135.55599173 140.39631407 135.55345941 136.83429646 C135.5523895 133.85962045 135.55727357 130.88496589 135.56206483 127.91029447 C135.57315895 120.89205885 135.57359795 113.87387675 135.56755066 106.8556366 C135.56150988 99.61764638 135.57382463 92.37985051 135.59512073 85.14189345 C135.61273875 78.92521299 135.61873778 72.70859439 135.61548299 66.49188989 C135.61367031 62.7799914 135.61630464 59.06823154 135.63019753 55.35635567 C135.64511082 51.21699029 135.63580403 47.07802032 135.62419128 42.93864441 C135.63183502 41.70990601 135.63947876 40.4811676 135.64735413 39.2151947 C135.64033981 38.08660538 135.6333255 36.95801605 135.62609863 35.79522705 C135.62626637 34.81686921 135.62643412 33.83851137 135.62660694 32.83050632 C135.17423904 29.57498238 134.23602567 27.7436289 132.25187683 25.13371277 C129.14684724 22.94823421 126.45398309 22.88085989 122.71734619 22.87301636 C121.02869194 22.86238914 121.02869194 22.86238914 119.30592346 22.85154724 C117.45977951 22.85526337 117.45977951 22.85526337 115.57633972 22.85905457 C114.27680862 22.85394363 112.97727753 22.8488327 111.6383667 22.84356689 C108.07636935 22.83017992 104.51447813 22.82959787 100.95246053 22.83213019 C97.97778451 22.8332001 95.00312995 22.82831603 92.02845854 22.82352477 C85.01022291 22.81243065 77.99204081 22.81199165 70.97380066 22.81803894 C63.73581044 22.82407972 56.49801457 22.81176497 49.26005751 22.79046887 C43.04337706 22.77285085 36.82675845 22.76685182 30.61005396 22.77010661 C26.89815546 22.77191929 23.1863956 22.76928496 19.47451973 22.75539207 C15.33515435 22.74047878 11.19618439 22.74978557 7.05680847 22.76139832 C5.82807007 22.75375458 4.59933167 22.74611084 3.33335876 22.73823547 C2.20476944 22.74524979 1.07618011 22.7522641 -0.08660889 22.75949097 C-1.06496673 22.75932323 -2.04332457 22.75915548 -3.05132961 22.75898266 C-6.30685356 23.21135056 -8.13820703 24.14956393 -10.74812317 26.13371277 Z " fill="#ffffff" transform="translate(66.74812316894531,30.866287231445313)"/>
<path d="M0 0 C0.33 0 0.66 0 1 0 C1 44.22 1 88.44 1 134 C0.67 134 0.34 134 0 134 C0 89.78 0 45.56 0 0 Z " fill="#ffffff" transform="translate(200,61)"/>
<path d="M0 0 C0.33 0 0.66 0 1 0 C1 44.22 1 88.44 1 134 C0.67 134 0.34 134 0 134 C0 89.78 0 45.56 0 0 Z " fill="#ffffff" transform="translate(55,61)"/>
<path d="M0 0 C44.22 0 88.44 0 134 0 C134 0.33 134 0.66 134 1 C89.78 1 45.56 1 0 1 C0 0.67 0 0.34 0 0 Z " fill="#ffffff" transform="translate(61,55)"/>
<path d="M0 0 C0.33 0 0.66 0 1 0 C1 34.32 1 68.64 1 104 C8.26 104 15.52 104 23 104 C23 104.33 23 104.66 23 105 C15.41 105 7.82 105 0 105 C0 70.35 0 35.7 0 0 Z " fill="#ffffff" transform="translate(172,96)"/>
<path d="M0 0 C21.45 0 42.9 0 65 0 C65 0.33 65 0.66 65 1 C43.55 1 22.1 1 0 1 C0 0.67 0 0.34 0 0 Z " fill="#ffffff" transform="translate(61,200)"/>
<path d="M0 0 C4 1 4 1 4 1 Z " fill="#ffffff" transform="translate(196,225)"/>
<path d="M0 0 C4 1 4 1 4 1 Z " fill="#ffffff" transform="translate(56,225)"/>
<path d="M0 0 C1 4 1 4 1 4 Z " fill="#ffffff" transform="translate(225,196)"/>
<path d="M0 0 C1 4 1 4 1 4 Z " fill="#ffffff" transform="translate(30,196)"/>
<path d="M0 0 C1 4 1 4 1 4 Z " fill="#ffffff" transform="translate(225,56)"/>
<path d="M0 0 C1 4 1 4 1 4 Z " fill="#ffffff" transform="translate(30,56)"/>
<path d="M0 0 C4 1 4 1 4 1 Z " fill="#ffffff" transform="translate(196,30)"/>
<path d="M0 0 C4 1 4 1 4 1 Z " fill="#ffffff" transform="translate(56,30)"/>
<path d="M0 0 C0.66 0.66 1.32 1.32 2 2 C1.34 2 0.68 2 0 2 C0 1.34 0 0.68 0 0 Z " fill="#ffffff" transform="translate(57,197)"/>
<path d="M0 0 C0.33 0.66 0.66 1.32 1 2 C0.34 1.67 -0.32 1.34 -1 1 C-0.67 0.67 -0.34 0.34 0 0 Z " fill="#ffffff" transform="translate(198,197)"/>
<path d="M0 0 C0.66 0 1.32 0 2 0 C1.67 0.66 1.34 1.32 1 2 C0.67 1.34 0.34 0.68 0 0 Z " fill="#ffffff" transform="translate(197,57)"/>
<path d="M0 0 C0.99 0.495 0.99 0.495 2 1 C1.01 1.495 1.01 1.495 0 2 C0 1.34 0 0.68 0 0 Z " fill="#ffffff" transform="translate(57,57)"/>
<path d="M0 0 C2 1 2 1 2 1 Z " fill="#ffffff" transform="translate(201,224)"/>
<path d="M0 0 C2 1 2 1 2 1 Z " fill="#ffffff" transform="translate(53,224)"/>
<path d="M0 0 C2 1 2 1 2 1 Z " fill="#ffffff" transform="translate(204,223)"/>
<path d="M0 0 C2 1 2 1 2 1 Z " fill="#ffffff" transform="translate(50,223)"/>
<path d="M0 0 C2 1 2 1 2 1 Z " fill="#ffffff" transform="translate(206,222)"/>
<path d="M0 0 C2 1 2 1 2 1 Z " fill="#ffffff" transform="translate(48,222)"/>
<path d="M0 0 C2 1 2 1 2 1 Z " fill="#ffffff" transform="translate(212,218)"/>
<path d="M0 0 C2 1 2 1 2 1 Z " fill="#ffffff" transform="translate(42,218)"/>
<path d="" fill="#ffffff" transform="translate(0,0)"/>
<path d="" fill="#ffffff" transform="translate(0,0)"/>
<path d="" fill="#ffffff" transform="translate(0,0)"/>
<path d="" fill="#ffffff" transform="translate(0,0)"/>
<path d="" fill="#ffffff" transform="translate(0,0)"/>
<path d="" fill="#ffffff" transform="translate(0,0)"/>
<path d="" fill="#ffffff" transform="translate(0,0)"/>
<path d="" fill="#ffffff" transform="translate(0,0)"/>
<path d="" fill="#ffffff" transform="translate(0,0)"/>
<path d="" fill="#ffffff" transform="translate(0,0)"/>
<path d="" fill="#ffffff" transform="translate(0,0)"/>
<path d="" fill="#ffffff" transform="translate(0,0)"/>
<path d="" fill="#ffffff" transform="translate(0,0)"/>
<path d="" fill="#ffffff" transform="translate(0,0)"/>
<path d="" fill="#ffffff" transform="translate(0,0)"/>
<path d="" fill="#ffffff" transform="translate(0,0)"/>
<path d="M0 0 C2 1 2 1 2 1 Z " fill="#ffffff" transform="translate(212,37)"/>
<path d="M0 0 C2 1 2 1 2 1 Z " fill="#ffffff" transform="translate(42,37)"/>
<path d="M0 0 C2 1 2 1 2 1 Z " fill="#ffffff" transform="translate(206,33)"/>
<path d="M0 0 C2 1 2 1 2 1 Z " fill="#ffffff" transform="translate(48,33)"/>
<path d="M0 0 C2 1 2 1 2 1 Z " fill="#ffffff" transform="translate(204,32)"/>
<path d="M0 0 C2 1 2 1 2 1 Z " fill="#ffffff" transform="translate(50,32)"/>
<path d="M0 0 C2 1 2 1 2 1 Z " fill="#ffffff" transform="translate(201,31)"/>
<path d="M0 0 C2 1 2 1 2 1 Z " fill="#ffffff" transform="translate(53,31)"/>
<path d="" fill="#ffffff" transform="translate(0,0)"/>
<path d="" fill="#ffffff" transform="translate(0,0)"/>
<path d="" fill="#ffffff" transform="translate(0,0)"/>
<path d="" fill="#ffffff" transform="translate(0,0)"/>
<path d="" fill="#ffffff" transform="translate(0,0)"/>
<path d="" fill="#ffffff" transform="translate(0,0)"/>
<path d="" fill="#ffffff" transform="translate(0,0)"/>
<path d="" fill="#ffffff" transform="translate(0,0)"/>
<path d="" fill="#ffffff" transform="translate(0,0)"/>
<path d="" fill="#ffffff" transform="translate(0,0)"/>
<path d="" fill="#ffffff" transform="translate(0,0)"/>
<path d="" fill="#ffffff" transform="translate(0,0)"/>
<path d="" fill="#ffffff" transform="translate(0,0)"/>
<path d="" fill="#ffffff" transform="translate(0,0)"/>
<path d="" fill="#ffffff" transform="translate(0,0)"/>
<path d="" fill="#ffffff" transform="translate(0,0)"/>
<path d="" fill="#ffffff" transform="translate(0,0)"/>
<path d="" fill="#ffffff" transform="translate(0,0)"/>
<path d="" fill="#ffffff" transform="translate(0,0)"/>
<path d="" fill="#ffffff" transform="translate(0,0)"/>
<path d="" fill="#ffffff" transform="translate(0,0)"/>
<path d="" fill="#ffffff" transform="translate(0,0)"/>
<path d="" fill="#ffffff" transform="translate(0,0)"/>
<path d="" fill="#ffffff" transform="translate(0,0)"/>
<path d="" fill="#ffffff" transform="translate(0,0)"/>
<path d="" fill="#ffffff" transform="translate(0,0)"/>
<path d="" fill="#ffffff" transform="translate(0,0)"/>
<path d="" fill="#ffffff" transform="translate(0,0)"/>
<path d="" fill="#ffffff" transform="translate(0,0)"/>
<path d="" fill="#ffffff" transform="translate(0,0)"/>
<path d="" fill="#ffffff" transform="translate(0,0)"/>
<path d="" fill="#ffffff" transform="translate(0,0)"/>
<path d="" fill="#ffffff" transform="translate(0,0)"/>
<path d="" fill="#ffffff" transform="translate(0,0)"/>
<path d="" fill="#ffffff" transform="translate(0,0)"/>
<path d="" fill="#ffffff" transform="translate(0,0)"/>
<path d="" fill="#ffffff" transform="translate(0,0)"/>
<path d="" fill="#ffffff" transform="translate(0,0)"/>
<path d="" fill="#ffffff" transform="translate(0,0)"/>
<path d="" fill="#ffffff" transform="translate(0,0)"/>
<path d="" fill="#ffffff" transform="translate(0,0)"/>
<path d="" fill="#ffffff" transform="translate(0,0)"/>
<path d="" fill="#ffffff" transform="translate(0,0)"/>
<path d="" fill="#ffffff" transform="translate(0,0)"/>
<path d="" fill="#ffffff" transform="translate(0,0)"/>
<path d="" fill="#ffffff" transform="translate(0,0)"/>
<path d="" fill="#ffffff" transform="translate(0,0)"/>
<path d="" fill="#ffffff" transform="translate(0,0)"/>
</svg>
