<?xml version="1.0" standalone="no"?>
<!DOCTYPE svg PUBLIC "-//W3C//DTD SVG 20010904//EN"
 "http://www.w3.org/TR/2001/REC-SVG-20010904/DTD/svg10.dtd">
<svg version="1.0" xmlns="http://www.w3.org/2000/svg"
 width="768.000000pt" height="768.000000pt" viewBox="0 0 768.000000 768.000000"
 preserveAspectRatio="xMidYMid meet">

<g transform="translate(0.000000,768.000000) scale(0.100000,-0.100000)"
fill="#FFFFFF" stroke="none">
<path d="M3517 5829 c-1080 -49 -2041 -341 -2675 -813 -125 -94 -335 -299
-414 -406 -271 -366 -343 -771 -206 -1158 78 -221 213 -420 419 -616 825 -785
2542 -1161 4199 -920 920 134 1721 468 2192 913 330 313 491 644 491 1011 0
363 -157 691 -480 1001 -699 670 -2069 1054 -3526 988z m337 -636 c-3 -16 -31
-152 -63 -303 l-58 -275 276 -6 c287 -7 368 -17 463 -58 65 -28 121 -82 149
-144 21 -45 24 -67 23 -162 -1 -99 -9 -147 -82 -481 -45 -204 -82 -374 -82
-377 0 -4 -92 -7 -205 -7 -113 0 -205 3 -205 8 0 4 34 162 75 351 96 441 97
499 7 539 -50 22 -476 32 -484 10 -3 -7 -47 -214 -99 -460 l-94 -448 -201 0
-201 0 18 88 c87 422 361 1730 364 1740 3 9 53 12 204 12 l201 0 -6 -27z
m-1161 -606 c194 -57 322 -184 358 -355 18 -87 6 -240 -26 -342 -74 -232 -200
-371 -403 -444 -126 -45 -227 -58 -502 -65 l-255 -6 -40 -227 -39 -228 -203 0
c-112 0 -203 2 -203 5 0 6 288 1568 301 1633 l11 53 471 -3 c408 -4 480 -6
530 -21z m3232 -1 c351 -103 461 -445 269 -835 -84 -171 -218 -275 -418 -326
-132 -34 -256 -45 -486 -45 -110 0 -200 -2 -200 -5 0 -7 -70 -406 -75 -432 -5
-23 -6 -23 -205 -23 -177 0 -200 2 -200 16 0 19 298 1643 305 1662 4 11 92 13
477 9 414 -3 481 -6 533 -21z"/>
<path d="M2036 4283 c-3 -10 -28 -142 -56 -293 -28 -151 -53 -281 -56 -288 -3
-12 37 -13 228 -10 263 5 304 14 387 84 96 83 151 294 102 399 -22 49 -43 68
-106 97 -46 21 -66 23 -272 26 -207 3 -221 3 -227 -15z"/>
<path d="M5211 4018 c-29 -156 -55 -293 -58 -305 l-5 -23 201 0 c242 0 312 12
392 68 70 49 115 131 135 244 29 168 -24 256 -174 287 -29 6 -140 11 -246 11
l-192 0 -53 -282z"/>
</g>
</svg>
