<?xml version="1.0" standalone="no"?>
<!DOCTYPE svg PUBLIC "-//W3C//DTD SVG 20010904//EN"
 "http://www.w3.org/TR/2001/REC-SVG-20010904/DTD/svg10.dtd">
<svg version="1.0" xmlns="http://www.w3.org/2000/svg"
 width="2048.000000pt" height="2048.000000pt" viewBox="0 0 2048.000000 2048.000000"
 preserveAspectRatio="xMidYMid meet">

<g transform="translate(0.000000,2048.000000) scale(0.100000,-0.100000)"
fill="#FFFFFF" stroke="none">
<path d="M10111 20349 c-34 -17 -74 -46 -88 -64 -15 -19 -144 -229 -288 -467
l-260 -433 -120 -12 c-66 -6 -127 -12 -136 -12 -10 -1 -166 164 -365 384 -320
353 -354 388 -411 417 -58 28 -69 30 -142 26 -91 -5 -147 -32 -204 -99 -37
-42 -32 -30 -292 -755 l-97 -271 -133 -40 -133 -39 -403 299 c-222 165 -426
310 -454 323 -56 27 -142 32 -205 13 -57 -17 -130 -78 -162 -135 -26 -48 -35
-92 -105 -568 l-77 -517 -122 -64 -122 -65 -384 181 c-560 265 -554 262 -625
267 -112 8 -212 -46 -270 -146 -38 -64 -39 -132 -14 -630 12 -227 21 -438 21
-470 l0 -57 -86 -70 c-47 -38 -96 -76 -108 -83 -18 -12 -81 1 -526 113 -557
139 -554 139 -657 89 -87 -42 -145 -125 -158 -229 -6 -43 11 -120 120 -555
112 -445 125 -508 113 -526 -7 -12 -44 -61 -83 -108 l-70 -86 -53 0 c-30 0
-241 9 -470 21 -503 25 -571 23 -634 -14 -121 -71 -179 -218 -134 -343 7 -22
109 -240 225 -487 l211 -448 -65 -122 -65 -123 -117 -18 c-882 -130 -915 -135
-967 -165 -57 -31 -118 -104 -135 -161 -19 -64 -14 -149 13 -205 13 -27 158
-232 323 -454 l300 -403 -40 -133 -40 -133 -271 -97 c-721 -259 -713 -256
-756 -292 -66 -57 -93 -113 -98 -204 -4 -73 -2 -84 26 -142 29 -57 64 -92 417
-411 220 -199 385 -355 384 -365 0 -9 -6 -70 -12 -136 l-12 -120 -433 -260
c-238 -144 -448 -273 -467 -288 -18 -14 -47 -54 -64 -88 -44 -88 -44 -170 0
-258 17 -34 46 -74 64 -88 19 -15 229 -144 467 -288 l433 -260 12 -120 c6 -66
12 -127 12 -136 1 -10 -164 -166 -384 -365 -353 -319 -388 -354 -417 -411 -28
-58 -30 -69 -26 -142 5 -91 32 -147 98 -204 43 -36 35 -33 756 -292 l271 -97
40 -133 40 -133 -300 -403 c-165 -222 -310 -426 -323 -454 -27 -56 -32 -141
-13 -205 17 -57 78 -130 135 -161 52 -30 85 -35 967 -165 l117 -18 65 -123 65
-122 -211 -448 c-116 -247 -218 -465 -225 -487 -45 -125 13 -272 134 -343 63
-37 131 -39 634 -14 229 12 440 21 470 21 l53 0 70 -86 c39 -47 76 -96 83
-108 12 -18 -1 -81 -113 -526 -139 -557 -139 -554 -89 -657 42 -87 125 -145
229 -158 43 -6 120 11 555 120 445 112 508 125 526 113 12 -7 61 -44 108 -83
l86 -70 0 -57 c0 -32 -9 -243 -21 -470 -25 -498 -24 -566 14 -630 58 -100 158
-154 270 -146 71 5 65 2 625 267 l384 181 122 -65 122 -64 77 -517 c70 -476
79 -520 105 -568 32 -57 105 -118 162 -135 63 -19 149 -14 205 13 28 13 232
158 454 323 l403 299 133 -39 133 -40 97 -271 c260 -725 255 -713 292 -755 57
-67 113 -94 204 -99 73 -4 84 -2 142 26 57 29 92 64 411 417 197 218 356 385
365 384 9 0 70 -6 136 -12 l120 -12 260 -433 c144 -238 273 -448 288 -467 14
-18 54 -47 88 -64 88 -44 170 -44 258 0 34 17 74 46 88 64 15 19 144 229 288
467 l260 433 75 6 c41 4 102 10 136 13 l60 8 350 -387 c320 -353 354 -388 411
-417 58 -28 69 -30 142 -26 91 5 147 32 204 98 36 43 33 35 292 756 l97 271
133 39 133 40 404 -299 c222 -165 426 -310 453 -323 56 -27 141 -32 205 -13
57 17 130 78 162 135 26 48 35 92 105 568 l77 516 123 65 123 65 447 -211
c247 -116 465 -218 487 -225 125 -45 272 13 343 134 38 64 39 132 14 630 -12
227 -21 438 -21 470 l0 57 100 80 c55 44 104 81 109 83 4 1 235 -54 512 -123
434 -109 511 -126 554 -120 104 13 187 71 229 158 50 103 50 100 -89 657 -112
445 -125 508 -113 526 7 12 45 61 83 108 l70 86 57 0 c32 0 243 -9 470 -21
498 -25 566 -24 630 14 121 71 179 218 134 343 -7 22 -109 241 -225 487 l-212
448 65 122 65 123 516 76 c478 71 521 79 568 106 58 32 119 105 136 162 19 64
14 149 -13 205 -13 28 -158 232 -323 454 l-300 403 40 133 40 133 485 174
c290 103 500 184 523 200 80 58 118 133 119 239 0 54 -6 77 -30 125 -26 53
-71 97 -415 408 -218 197 -385 356 -384 365 0 9 6 70 12 136 l12 120 433 260
c238 144 448 273 467 288 18 14 47 54 64 88 44 88 44 170 0 258 -17 34 -46 74
-64 88 -19 15 -229 144 -467 288 l-433 260 -12 120 c-6 66 -12 127 -12 136 -1
9 166 168 384 365 344 311 389 355 415 408 64 128 27 281 -89 364 -23 16 -233
97 -523 200 l-485 174 -40 133 -40 133 300 403 c165 222 310 427 323 454 27
56 32 141 13 205 -17 57 -78 130 -136 162 -47 27 -90 35 -567 106 l-516 76
-65 123 -65 123 211 447 c116 247 218 465 225 487 45 125 -13 272 -134 343
-64 38 -132 39 -630 14 -227 -12 -438 -21 -470 -21 l-57 0 -70 86 c-38 47 -76
96 -83 108 -12 18 1 81 113 526 109 435 126 512 120 555 -13 104 -71 187 -158
229 -103 50 -100 50 -656 -89 -277 -69 -508 -124 -512 -123 -5 2 -54 39 -109
83 l-100 80 0 57 c0 32 9 243 21 470 25 498 24 566 -14 630 -71 121 -218 179
-343 134 -22 -7 -240 -109 -487 -225 l-447 -211 -123 65 -123 65 -77 516 c-70
476 -79 520 -105 568 -32 57 -105 118 -162 135 -64 19 -149 14 -205 -13 -27
-13 -231 -158 -453 -323 l-404 -299 -133 40 -133 39 -97 271 c-259 721 -256
713 -292 756 -57 66 -113 93 -204 98 -73 4 -84 2 -142 -26 -57 -29 -91 -64
-411 -418 l-350 -386 -40 6 c-23 3 -75 8 -116 11 -41 3 -85 8 -97 11 -17 3
-85 109 -283 439 -143 239 -272 448 -286 464 -13 16 -52 44 -86 60 -87 44
-170 44 -257 0z m244 -1814 c210 -45 367 -189 441 -405 29 -84 26 -243 -5
-338 -58 -176 -202 -320 -376 -375 -54 -17 -94 -22 -175 -22 -126 0 -215 24
-305 83 -159 103 -256 262 -271 444 -24 283 176 552 456 612 85 19 150 19 235
1z m-965 -1498 c428 -427 525 -519 575 -544 95 -49 168 -67 275 -67 107 0 180
18 275 67 50 25 147 117 575 544 284 282 521 513 529 513 7 0 97 -18 199 -40
1049 -225 2047 -685 2912 -1340 545 -414 1051 -922 1468 -1476 175 -234 463
-679 551 -851 l21 -43 -316 -621 c-174 -341 -325 -648 -336 -682 -43 -139 -31
-283 37 -426 27 -57 54 -93 113 -150 l77 -76 636 -324 637 -324 6 -56 c53
-434 67 -932 40 -1373 l-7 -108 -394 0 -395 0 -29 -29 -29 -29 0 -251 c0 -365
-23 -530 -101 -716 -86 -206 -252 -371 -447 -442 -419 -153 -922 35 -1122 419
-32 60 -53 125 -86 257 -98 399 -235 706 -468 1051 -143 212 -369 468 -504
572 -51 39 -53 43 -36 55 11 8 87 58 169 112 201 133 343 248 506 411 213 213
352 400 473 639 323 637 312 1335 -30 2011 -132 262 -288 475 -508 696 -391
390 -880 663 -1398 778 -292 65 114 60 -4400 63 -2254 2 -4098 7 -4098 11 0
11 425 430 535 528 500 445 1122 862 1700 1139 575 275 1080 446 1750 593 50
11 99 21 110 21 13 1 187 -166 535 -512z m-6329 -3857 c251 -78 426 -332 406
-592 -19 -237 -178 -441 -402 -511 -100 -31 -263 -31 -357 1 -410 141 -530
652 -224 958 154 154 371 208 577 144z m14644 15 c253 -53 445 -273 462 -530
17 -258 -146 -501 -394 -586 -95 -33 -257 -34 -358 -2 -175 55 -318 198 -376
375 -31 95 -34 254 -5 338 32 93 72 164 128 225 140 154 344 222 543 180z
m-12295 -2670 l0 -2415 -1150 0 -1149 0 -20 68 c-134 453 -231 1005 -273 1552
-27 359 -12 1007 34 1376 l11 91 636 323 636 324 77 77 c59 58 86 94 113 150
66 140 80 283 39 419 -9 30 -61 143 -115 252 l-99 198 630 0 630 0 0 -2415z
m6063 2387 c231 -53 400 -136 523 -257 184 -183 225 -413 111 -629 -39 -74
-169 -208 -249 -254 -134 -79 -307 -136 -495 -164 -68 -10 -375 -13 -1378 -13
l-1290 0 -3 673 -2 673 1342 -4 1343 -3 98 -22z m-797 -3453 c153 -15 282 -50
399 -108 224 -111 379 -273 521 -544 134 -257 222 -555 359 -1207 36 -173 89
-407 116 -520 197 -804 466 -1164 939 -1260 96 -19 139 -20 1644 -20 850 0
1546 -3 1546 -6 0 -9 -139 -188 -238 -307 -77 -91 -312 -357 -316 -357 -1 0
-314 49 -696 110 -382 60 -715 110 -740 110 -124 -1 -282 -61 -377 -145 -63
-55 -133 -159 -162 -240 -14 -38 -62 -316 -130 -747 -60 -378 -112 -691 -115
-696 -19 -31 -512 -231 -831 -337 -1232 -411 -2533 -492 -3815 -239 -534 106
-1090 283 -1590 508 -68 31 -128 60 -133 65 -4 4 -57 318 -117 697 -69 432
-117 711 -131 749 -29 81 -99 185 -162 240 -95 83 -253 144 -376 145 -24 0
-357 -50 -740 -111 l-696 -110 -58 63 c-162 175 -483 563 -495 599 -2 5 1168
9 3046 9 l3049 0 27 26 26 27 0 1102 0 1102 -26 27 -27 26 -841 2 -841 3 -3
665 c-1 366 0 671 3 678 6 16 1816 18 1981 1z m-4837 -4910 c152 -36 305 -159
373 -299 47 -98 62 -166 62 -270 -2 -159 -55 -284 -173 -401 -140 -140 -331
-198 -523 -158 -208 43 -394 223 -443 430 -78 334 146 660 490 713 42 6 158
-2 214 -15z m9103 -5 c195 -58 352 -221 403 -419 65 -256 -68 -539 -306 -653
-98 -47 -162 -62 -262 -62 -153 0 -285 56 -398 169 -118 117 -171 242 -173
401 0 103 15 171 61 269 68 144 229 270 383 300 30 6 64 13 75 15 34 8 161 -4
217 -20z"/>
</g>
</svg>
