<?xml version="1.0" standalone="no"?>
<!DOCTYPE svg PUBLIC "-//W3C//DTD SVG 20010904//EN"
 "http://www.w3.org/TR/2001/REC-SVG-20010904/DTD/svg10.dtd">
<svg version="1.0" xmlns="http://www.w3.org/2000/svg"
 width="225.000000pt" height="225.000000pt" viewBox="0 0 225.000000 225.000000"
 preserveAspectRatio="xMidYMid meet">

<g transform="translate(0.000000,225.000000) scale(0.100000,-0.100000)"
fill="#FFFFFF" stroke="none">
<path d="M1434 2053 c148 -230 225 -496 212 -733 -5 -90 -36 -253 -51 -268
-10 -11 -297 191 -500 352 -129 102 -310 260 -460 400 l-130 121 50 -70 c138
-196 306 -409 469 -594 l109 -124 -64 41 c-189 121 -496 351 -712 535 -71 60
-124 99 -117 87 15 -28 262 -337 380 -475 135 -158 396 -421 530 -534 63 -53
117 -101 119 -106 6 -16 -66 -52 -164 -84 -228 -74 -490 -59 -756 44 -111 43
-155 65 -258 132 -75 49 -83 52 -66 26 46 -71 117 -155 201 -238 350 -346 838
-501 1249 -395 44 11 130 45 190 75 137 67 184 79 284 73 61 -4 88 -10 123
-31 48 -28 112 -93 130 -133 31 -67 57 30 40 150 -14 111 -63 238 -126 335
l-53 81 15 62 c22 87 21 319 -1 416 -73 322 -269 616 -549 827 -140 106 -146
108 -94 28z"/>
</g>
</svg>
