 <svg  version="1.0" xmlns="http://www.w3.org/2000/svg"  width="900.000000pt" height="900.000000pt" viewBox="0 0 900.000000 900.000000"  preserveAspectRatio="xMidYMid meet">  <g transform="translate(0.000000,900.000000) scale(0.100000,-0.100000)" fill="#ffffff" stroke="none"> <path d="M149 8870 c-6 -26 -4 -8738 2 -8745 5 -7 1473 -9 4378 -7 l4371 2 -2 4375 -3 4375 -4373 3 c-2404 1 -4372 0 -4373 -3z m6916 -3985 c102 -7 218 -33 274 -62 24 -13 48 -23 53 -23 32 0 178 -84 252 -145 59 -48 234 -226 250 -254 6 -11 28 -47 50 -81 33 -53 37 -65 27 -86 -6 -13 -15 -24 -21 -24 -9 0 -105 -67 -195 -135 -10 -8 -22 -15 -26 -15 -8 0 -112 -69 -119 -79 -3 -4 -41 -29 -85 -56 -44 -26 -99 -62 -123 -78 l-42 -31 -41 44 c-22 24 -58 68 -79 99 -47 70 -71 92 -140 128 -113 60 -146 68 -276 68 -73 0 -131 -5 -145 -12 -13 -6 -40 -19 -60 -28 -53 -24 -124 -96 -139 -141 -7 -21 -16 -43 -21 -49 -5 -5 -9 -53 -9 -106 0 -93 1 -100 35 -156 19 -32 56 -79 82 -104 49 -47 193 -139 217 -139 8 0 46 -16 85 -35 39 -19 73 -35 75 -35 3 0 21 -10 42 -22 20 -12 64 -31 98 -43 54 -19 156 -67 296 -140 25 -13 80 -40 123 -62 44 -21 89 -47 101 -58 13 -11 40 -29 62 -40 62 -31 202 -142 270 -214 71 -75 134 -156 134 -172 0 -6 11 -25 25 -43 14 -18 25 -36 25 -40 0 -4 13 -35 29 -69 15 -34 39 -105 52 -157 21 -85 23 -118 23 -315 0 -121 -5 -240 -11 -265 -24 -101 -37 -147 -49 -177 -8 -17 -14 -34 -14 -37 0 -7 -71 -125 -116 -191 -49 -74 -167 -185 -264 -249 -86 -57 -259 -146 -284 -146 -7 0 -30 -7 -49 -15 -20 -8 -50 -15 -66 -15 -16 0 -31 -5 -33 -12 -2 -6 -26 -15 -54 -19 -27 -4 -67 -12 -89 -18 -22 -6 -71 -11 -110 -12 -38 0 -97 -4 -130 -9 -114 -16 -483 20 -575 55 -19 8 -54 17 -77 20 -24 4 -45 11 -49 16 -3 5 -15 9 -27 9 -24 0 -230 97 -235 111 -2 5 -9 9 -15 9 -22 1 -81 34 -142 80 -96 71 -229 185 -250 215 -11 15 -38 51 -60 79 -22 28 -44 58 -50 67 -5 8 -29 44 -52 80 -41 62 -51 92 -35 115 10 15 74 55 166 103 42 22 89 49 104 60 16 11 58 35 93 54 138 74 182 99 221 128 64 46 80 40 134 -43 45 -69 184 -216 234 -248 13 -8 37 -27 54 -41 49 -41 145 -80 246 -101 30 -7 127 -12 215 -12 151 0 164 1 240 28 121 43 188 93 239 175 75 120 55 324 -41 426 -39 41 -225 160 -288 184 -19 7 -101 44 -195 88 -52 24 -104 48 -115 52 -11 5 -40 18 -65 29 -25 11 -65 28 -90 38 -24 10 -65 29 -90 42 -25 14 -63 33 -85 44 -22 11 -47 24 -55 29 -8 5 -33 18 -55 30 -22 12 -62 38 -90 58 -27 20 -68 49 -90 64 -56 38 -202 182 -254 252 -54 72 -110 183 -156 309 -30 82 -37 118 -46 240 -16 214 2 397 50 511 5 11 21 54 37 95 16 41 39 86 51 101 13 15 23 31 23 37 0 5 7 16 16 23 9 8 27 30 40 50 12 20 47 61 78 91 49 50 80 74 224 171 24 16 71 40 105 52 34 12 80 30 102 40 141 63 373 83 720 60z m-1926 -35 c19 -11 22 -48 28 -411 4 -212 2 -302 -6 -317 l-12 -22 -562 -2 -562 -3 -3 -1609 c-1 -1177 -5 -1613 -13 -1623 -10 -11 -84 -13 -408 -11 l-395 3 -13 25 c-10 20 -13 351 -13 1613 0 874 -2 1593 -5 1598 -4 5 -231 9 -559 9 -416 0 -555 3 -564 12 -9 9 -12 89 -11 302 0 318 7 423 29 436 19 12 3051 12 3069 0z"/> </g> </svg> 