<?xml version="1.0" standalone="no"?>
<!DOCTYPE svg PUBLIC "-//W3C//DTD SVG 20010904//EN"
 "http://www.w3.org/TR/2001/REC-SVG-20010904/DTD/svg10.dtd">
<svg version="1.0" xmlns="http://www.w3.org/2000/svg"
 width="512.000000pt" height="512.000000pt" viewBox="0 0 512.000000 512.000000"
 preserveAspectRatio="xMidYMid meet">

<g transform="translate(0.000000,512.000000) scale(0.100000,-0.100000)"
fill="#FFFFFF" stroke="none">
<path d="M825 5101 c-46 -21 -101 -79 -112 -119 -10 -35 -10 -4809 0 -4844 11
-40 66 -98 112 -119 38 -18 117 -19 1733 -19 1508 0 1697 2 1730 16 44 18 87
57 110 99 16 28 17 179 20 1898 1 1028 -1 1883 -6 1900 -9 36 -987 1162 -1034
1191 -24 15 -138 16 -1270 16 -1181 0 -1245 -1 -1283 -19z m2405 -711 l0 -530
29 -32 29 -33 466 -3 466 -3 0 -1039 0 -1040 -1660 0 -1660 0 0 1605 0 1605
1165 0 1165 0 0 -530z m-1997 -3317 c55 -117 55 -118 66 -88 7 17 29 68 50
115 l39 85 86 3 c47 1 86 0 86 -3 0 -4 -40 -76 -90 -162 -49 -85 -90 -158 -90
-161 0 -4 43 -81 95 -171 52 -90 95 -168 95 -172 0 -5 -38 -9 -85 -9 l-85 0
-60 120 c-33 66 -62 120 -64 120 -1 0 -27 -54 -56 -120 l-52 -120 -84 0 c-46
0 -84 4 -84 9 0 5 41 80 91 167 51 88 92 164 92 170 0 9 -109 209 -165 302
l-20 32 90 0 89 0 56 -117z m587 -13 l0 -130 125 0 125 0 0 130 0 130 75 0 75
0 0 -340 0 -340 -75 0 -75 0 0 145 0 145 -125 0 -124 0 -3 -142 -3 -143 -77
-3 -78 -3 0 341 0 340 80 0 80 0 0 -130z m1008 68 l-3 -63 -92 -3 -93 -3 0
-274 0 -275 -75 0 -75 0 0 275 0 275 -90 0 -90 0 0 65 0 65 260 0 261 0 -3
-62z m336 -20 c14 -46 43 -149 63 -230 20 -81 38 -146 40 -145 1 2 14 48 29
103 14 54 44 157 66 227 l40 128 101 -3 102 -3 17 -300 c9 -165 17 -317 17
-337 l1 -38 -73 0 -74 0 -6 122 c-4 66 -7 187 -7 267 0 80 -4 141 -8 136 -5
-6 -17 -39 -26 -75 -9 -36 -43 -148 -74 -250 l-58 -185 -57 -3 c-51 -3 -58 -1
-67 20 -13 31 -106 382 -115 436 -14 83 -22 30 -29 -180 -4 -117 -10 -230 -13
-250 l-6 -38 -68 0 c-38 0 -69 3 -69 8 0 4 9 142 20 307 11 165 20 315 20 333
l0 32 104 0 105 0 25 -82z m748 -190 l3 -273 133 -3 132 -3 0 -64 0 -65 -210
0 -210 0 0 340 0 340 75 0 75 0 2 -272z"/>
<path d="M2457 3679 c-343 -46 -597 -337 -597 -684 0 -353 261 -645 610 -684
234 -26 460 65 612 247 55 66 92 134 124 227 24 70 28 95 28 205 1 104 -3 138
-22 200 -60 192 -184 336 -367 425 -125 61 -254 82 -388 64z m117 -98 c3 -5
-5 -16 -19 -25 -14 -9 -25 -23 -25 -30 0 -7 -9 -24 -19 -37 -10 -14 -21 -35
-23 -49 -1 -13 -8 -25 -15 -27 -12 -4 -113 83 -113 97 0 10 79 61 109 70 36
11 99 12 105 1z m-284 -110 c0 -22 -3 -23 -40 -17 -36 6 -41 4 -55 -23 -23
-45 -20 -73 7 -69 17 2 23 10 23 28 0 23 4 25 52 28 64 4 82 -5 107 -52 19
-36 19 -37 -1 -64 -25 -33 -45 -35 -53 -3 -8 33 -25 37 -44 9 -15 -21 -15 -24
6 -39 22 -17 22 -17 4 -57 -10 -23 -29 -51 -42 -63 -13 -12 -21 -26 -18 -31 3
-5 2 -22 -1 -39 -6 -25 -9 -28 -22 -17 -8 7 -19 22 -23 34 -8 19 -14 22 -48
17 -24 -3 -42 -1 -46 6 -5 8 -19 5 -47 -11 -45 -25 -54 -52 -14 -42 31 8 46
-21 21 -39 -14 -11 -14 -15 8 -42 l23 -29 67 13 c64 13 68 12 87 -7 10 -12 38
-26 62 -32 82 -21 108 -32 114 -46 8 -20 -62 -173 -94 -206 -24 -26 -26 -32
-20 -100 6 -79 -9 -143 -34 -143 -18 0 -59 73 -59 106 0 15 -9 37 -19 50 -10
14 -26 41 -34 60 -10 25 -29 44 -58 60 -24 13 -49 35 -56 49 -15 29 -17 124
-4 149 12 22 -5 75 -36 115 -27 33 -25 26 -28 96 -2 47 3 66 37 132 48 92 142
198 212 238 54 31 66 28 66 -19z m613 24 c20 -14 37 -31 37 -38 0 -26 -41 -77
-66 -83 -52 -13 -84 32 -40 55 21 12 23 17 15 45 -5 17 -9 34 -9 38 0 15 26 8
63 -17z m-62 -201 c39 -27 77 -26 100 2 16 19 33 18 54 -6 10 -11 31 -20 47
-20 22 0 28 5 28 23 1 58 80 -176 80 -238 l0 -30 -52 4 -52 3 25 -33 c15 -19
38 -40 53 -47 21 -11 25 -18 20 -40 -30 -138 -79 -233 -171 -332 -47 -51 -58
-59 -70 -48 -10 11 -11 30 -2 101 10 77 10 89 -6 113 -13 20 -22 24 -38 19
-12 -3 -57 -14 -100 -23 -88 -19 -102 -15 -130 39 -26 50 -20 207 10 246 28
38 78 36 134 -3 83 -58 94 -64 120 -64 28 0 49 19 70 64 10 21 27 34 55 43 46
15 56 36 42 88 -6 25 -17 34 -66 53 -32 12 -61 22 -65 22 -11 0 -8 -36 5 -65
8 -19 8 -31 0 -50 l-12 -25 -51 25 c-50 26 -51 26 -100 10 -52 -18 -119 -14
-119 6 0 13 58 69 71 69 5 0 9 20 9 45 0 41 3 46 33 59 17 8 34 15 36 15 3 1
21 -10 42 -25z"/>
<path d="M1350 3179 l-275 -129 -3 -53 -3 -54 283 -131 c156 -73 287 -132 291
-132 4 0 7 28 5 62 l-3 61 -190 83 c-104 46 -203 89 -219 97 -28 13 -24 15
190 109 l219 95 3 62 c2 45 0 61 -10 60 -7 0 -137 -59 -288 -130z"/>
<path d="M3472 3248 l3 -61 220 -94 c121 -52 221 -95 222 -97 2 -1 -97 -45
-219 -98 l-223 -95 -3 -61 c-2 -34 1 -62 6 -62 4 0 134 58 288 128 l279 129 0
58 0 59 -279 128 c-153 70 -282 128 -288 128 -5 0 -8 -28 -6 -62z"/>
</g>
</svg>
