<?xml version="1.0" standalone="no"?>
<!DOCTYPE svg PUBLIC "-//W3C//DTD SVG 20010904//EN"
 "http://www.w3.org/TR/2001/REC-SVG-20010904/DTD/svg10.dtd">
<svg version="1.0" xmlns="http://www.w3.org/2000/svg"
 width="707.000000pt" height="364.000000pt" viewBox="0 0 707.000000 364.000000"
 preserveAspectRatio="xMidYMid meet">

<g transform="translate(0.000000,364.000000) scale(0.100000,-0.100000)"
fill="#000000" stroke="none">
<path d="M1586 3303 c-89 -270 -108 -318 -119 -298 -5 10 -7 49 -3 95 7 73 6
80 -21 124 -15 25 -31 46 -34 46 -16 0 -48 -124 -55 -211 -5 -81 -4 -100 10
-122 13 -20 15 -30 7 -45 -8 -15 -7 -31 3 -60 14 -39 13 -45 -61 -272 -70
-219 -74 -233 -59 -255 17 -25 21 -91 8 -112 -6 -10 -187 -53 -221 -53 -4 0
-11 100 -15 223 -4 122 -11 240 -15 262 l-8 40 -11 -40 c-35 -124 -72 -295
-87 -395 -9 -63 -20 -118 -23 -122 -6 -5 -269 -78 -283 -78 -2 0 -3 30 -1 67
3 68 -23 173 -44 180 -5 1 -21 -26 -36 -60 -24 -53 -30 -89 -44 -242 -10 -113
-21 -185 -29 -194 -11 -11 -14 -10 -20 8 -24 75 -50 -25 -141 -524 -15 -82
-30 -153 -34 -158 -3 -4 -36 -10 -72 -14 l-66 -6 -4 -45 c-4 -54 15 -101 64
-156 l34 -39 -19 -106 c-12 -67 -20 -160 -22 -251 -2 -125 -7 -167 -39 -307
-20 -89 -36 -166 -36 -172 0 -8 1011 -11 3455 -11 l3455 0 -10 25 c-5 14 -14
55 -20 92 -10 58 -8 74 10 134 l22 69 -21 34 c-13 21 -58 58 -114 94 l-92 60
-29 103 c-36 129 -73 201 -142 278 -47 52 -61 61 -107 71 -667 139 -736 149
-882 125 -139 -23 -135 -24 -135 36 0 34 -7 63 -20 84 -18 30 -25 33 -87 38
-38 4 -85 7 -105 7 l-37 0 -5 53 c-3 28 -7 68 -9 87 -2 33 -4 35 -59 49 -66
17 -58 -6 -93 241 -25 172 -29 186 -54 207 -32 26 -41 22 -41 -24 0 -28 -3
-34 -16 -29 -9 3 -18 6 -20 6 -2 0 -4 16 -4 36 0 30 -11 46 -72 112 -39 42
-75 81 -79 85 -10 12 -96 -149 -104 -195 -7 -35 -10 -38 -42 -38 -20 0 -87
-16 -149 -37 -63 -20 -116 -34 -118 -32 -2 2 -7 61 -11 131 -8 127 -8 128 19
162 25 34 26 39 26 176 l0 140 -39 92 -39 91 -27 -53 c-24 -47 -27 -63 -23
-127 3 -74 2 -78 -26 -67 -12 5 -16 21 -16 73 -1 38 -7 76 -15 91 -20 36 -20
116 1 124 28 11 11 131 -24 176 -16 19 -64 86 -107 148 -43 61 -82 112 -85
112 -3 0 -27 -51 -52 -112 -26 -62 -65 -157 -87 -211 -48 -114 -50 -139 -16
-161 24 -16 25 -20 24 -129 l0 -112 -36 78 c-20 42 -39 77 -43 77 -11 0 -91
-201 -84 -211 3 -5 12 -9 20 -9 10 0 14 -13 14 -45 0 -31 5 -47 15 -51 19 -8
23 -39 29 -212 4 -140 4 -143 -17 -151 -63 -24 -67 -24 -67 2 0 14 -23 64 -50
113 -28 49 -63 113 -77 142 -15 28 -30 52 -34 52 -3 0 -30 -64 -59 -142 -31
-84 -62 -151 -75 -163 -12 -11 -25 -32 -29 -48 -5 -23 -2 -29 18 -36 20 -8 44
-56 33 -67 -2 -2 -25 3 -50 12 l-47 16 0 81 c-1 68 -4 86 -21 107 l-21 25 -25
-29 c-23 -27 -24 -35 -21 -122 2 -78 1 -91 -10 -80 -8 7 -15 40 -17 72 -9 144
-34 274 -54 274 -4 0 -13 -11 -19 -25 -6 -14 -16 -25 -20 -25 -5 0 -22 35 -37
78 -15 42 -31 81 -36 86 -4 4 -10 -14 -14 -40 -4 -27 -12 -73 -19 -102 l-11
-54 -58 159 c-32 87 -63 189 -70 226 -6 38 -16 66 -22 64 -5 -2 -13 -39 -16
-83 -5 -73 -12 -94 -93 -269 -83 -182 -87 -192 -80 -241 6 -52 6 -52 -33 -78
-35 -23 -39 -29 -35 -61 3 -27 11 -39 33 -51 29 -14 29 -16 29 -102 1 -52 5
-93 13 -103 8 -11 10 -41 7 -95 l-5 -79 -65 -7 c-35 -4 -65 -6 -66 -5 -3 2 -6
135 -5 175 1 17 7 22 26 22 21 0 25 5 25 29 0 21 -6 32 -20 36 -16 5 -19 12
-14 32 4 14 7 60 8 103 1 72 -1 78 -30 112 -33 38 -33 35 -50 220 -7 78 -19
81 -29 6 -9 -62 -12 -58 -60 90 -20 61 -40 112 -44 112 -3 0 -28 -89 -55 -198
-26 -109 -51 -203 -54 -209 -4 -6 -45 -12 -92 -14 l-84 -4 -36 102 c-19 57
-38 103 -42 103 -4 0 -10 -23 -14 -51 l-7 -50 -41 3 -41 3 -8 154 c-8 147 -8
154 12 167 19 14 20 22 14 115 -5 87 -4 101 11 112 19 14 16 28 -114 513 -34
126 -82 307 -107 402 -26 94 -49 172 -52 172 -4 0 -28 -66 -55 -147z m2464
-638 c0 -8 -4 -15 -10 -15 -5 0 -10 7 -10 15 0 8 5 15 10 15 6 0 10 -7 10 -15z
m-140 -45 c0 -5 -7 -10 -15 -10 -8 0 -15 5 -15 10 0 6 7 10 15 10 8 0 15 -4
15 -10z m40 -135 c0 -14 -4 -25 -10 -25 -5 0 -10 11 -10 25 0 14 5 25 10 25 6
0 10 -11 10 -25z m240 -65 c0 -13 -7 -20 -20 -20 -13 0 -20 7 -20 20 0 13 7
20 20 20 13 0 20 -7 20 -20z m-240 -30 c0 -20 -5 -30 -15 -30 -10 0 -15 10
-15 30 0 20 5 30 15 30 10 0 15 -10 15 -30z m-2270 -110 c0 -11 -4 -20 -10
-20 -5 0 -10 9 -10 20 0 11 5 20 10 20 6 0 10 -9 10 -20z m-120 -95 c0 -14 -4
-25 -10 -25 -11 0 -14 33 -3 43 11 11 13 8 13 -18z m115 3 c-2 -32 -25 -35
-25 -4 0 15 6 26 13 26 8 0 13 -10 12 -22z m-695 -8 c0 -11 -4 -20 -10 -20 -5
0 -10 9 -10 20 0 11 5 20 10 20 6 0 10 -9 10 -20z m480 -10 c0 -11 -4 -20 -10
-20 -5 0 -10 9 -10 20 0 11 5 20 10 20 6 0 10 -9 10 -20z m300 0 c0 -11 -7
-20 -15 -20 -15 0 -21 21 -8 33 12 13 23 7 23 -13z m2358 -7 c-4 -39 -28 -42
-28 -4 0 21 5 31 16 31 11 0 14 -8 12 -27z m-251 -50 c-3 -10 -5 -4 -5 12 0
17 2 24 5 18 2 -7 2 -21 0 -30z m-2417 -28 c0 -14 -4 -25 -10 -25 -5 0 -10 11
-10 25 0 14 5 25 10 25 6 0 10 -11 10 -25z m-490 -10 c0 -14 -4 -25 -10 -25
-11 0 -14 33 -3 43 11 11 13 8 13 -18z m710 5 c0 -11 -7 -20 -15 -20 -8 0 -15
9 -15 20 0 11 7 20 15 20 8 0 15 -9 15 -20z m2630 -40 c0 -16 -4 -30 -10 -30
-5 0 -10 14 -10 30 0 17 5 30 10 30 6 0 10 -13 10 -30z m-390 -21 c0 -12 -7
-19 -20 -19 -19 0 -28 28 -14 43 11 11 34 -5 34 -24z m90 11 c0 -11 -7 -20
-15 -20 -8 0 -15 9 -15 20 0 11 7 20 15 20 8 0 15 -9 15 -20z m-2554 -56 c-5
-13 -10 -14 -18 -6 -6 6 -8 18 -4 28 5 13 10 14 18 6 6 -6 8 -18 4 -28z m112
19 c-4 -22 -22 -20 -26 1 -2 10 3 16 13 16 10 0 15 -7 13 -17z m92 -3 c0 -11
-4 -20 -10 -20 -5 0 -10 9 -10 20 0 11 5 20 10 20 6 0 10 -9 10 -20z m90 -16
c0 -8 -4 -14 -10 -14 -5 0 -10 9 -10 21 0 11 5 17 10 14 6 -3 10 -13 10 -21z
m2580 -59 c0 -16 -6 -25 -15 -25 -9 0 -15 9 -15 25 0 16 6 25 15 25 9 0 15 -9
15 -25z m-2680 -60 c0 -14 -4 -25 -10 -25 -5 0 -10 11 -10 25 0 14 5 25 10 25
6 0 10 -11 10 -25z m-197 -5 c6 -22 -7 -35 -23 -25 -15 9 -12 45 4 45 7 0 16
-9 19 -20z m1707 -85 c0 -14 -4 -25 -10 -25 -5 0 -10 11 -10 25 0 14 5 25 10
25 6 0 10 -11 10 -25z m450 -15 c0 -27 -3 -30 -30 -30 -27 0 -30 3 -30 30 0
27 3 30 30 30 27 0 30 -3 30 -30z m518 -88 c3 -27 0 -32 -17 -32 -17 0 -21 6
-21 36 0 28 3 35 18 32 11 -2 18 -14 20 -36z m-958 -2 c0 -19 -5 -30 -14 -30
-20 0 -29 16 -21 40 10 32 35 25 35 -10z m780 -5 c0 -20 -5 -25 -25 -25 -20 0
-25 5 -25 25 0 20 5 25 25 25 20 0 25 -5 25 -25z m415 -51 c0 -32 -4 -49 -12
-49 -7 0 -13 3 -13 8 0 4 0 28 0 53 0 32 4 44 13 42 7 -3 12 -23 12 -54z
m-2631 -26 c16 -23 22 -111 10 -155 -5 -19 -13 -23 -50 -23 l-44 0 0 79 c0 74
2 81 26 100 33 26 39 26 58 -1z m-740 -4 c3 -9 6 -44 6 -79 0 -48 -4 -64 -16
-69 -27 -10 -34 3 -34 65 0 79 26 129 44 83z m-99 -17 c4 -13 5 -48 3 -78 -3
-46 -6 -54 -24 -57 -19 -3 -23 3 -28 43 -7 46 -2 80 16 103 15 18 27 15 33
-11z m1895 -2 c0 -18 -5 -25 -20 -25 -15 0 -20 7 -20 25 0 18 5 25 20 25 15 0
20 -7 20 -25z m2079 -1 c16 -20 21 -41 21 -85 l0 -59 -45 0 c-40 0 -47 3 -55
26 -37 96 24 187 79 118z m-4074 -75 c0 -67 -2 -74 -20 -74 -18 0 -20 8 -23
63 -2 39 2 69 9 78 24 29 34 8 34 -67z m715 55 c12 -30 13 -124 2 -141 -8 -12
-77 -22 -87 -12 -3 3 -8 33 -11 66 -6 57 -5 63 19 87 34 34 65 34 77 0z m980
1 c0 -18 -5 -25 -20 -25 -15 0 -20 7 -20 25 0 18 5 25 20 25 15 0 20 -7 20
-25z m1300 -57 c0 -85 -9 -116 -29 -104 -7 5 -11 42 -11 97 0 82 1 89 20 89
18 0 20 -7 20 -82z m-3102 -6 c2 -59 0 -73 -13 -78 -9 -4 -19 -4 -22 0 -13 12
-15 113 -3 135 21 40 35 18 38 -57z m3012 -28 c0 -86 -2 -95 -17 -92 -15 3
-18 17 -21 96 -3 87 -2 92 18 92 19 0 20 -6 20 -96z m-3106 70 c3 -9 6 -42 6
-75 0 -45 -4 -61 -16 -66 -23 -8 -34 14 -34 70 0 68 28 113 44 71z m-90 -10
c3 -9 6 -42 6 -75 0 -45 -4 -61 -16 -66 -23 -8 -34 14 -34 70 0 68 28 113 44
71z m-89 -17 c4 -13 5 -48 3 -78 -3 -46 -6 -54 -23 -54 -17 0 -20 8 -23 57 -4
79 28 135 43 75z m3125 -97 c0 -73 -3 -90 -15 -90 -12 0 -15 17 -15 90 0 73 3
90 15 90 12 0 15 -17 15 -90z m-650 35 c0 -18 -5 -25 -20 -25 -15 0 -20 7 -20
25 0 18 5 25 20 25 15 0 20 -7 20 -25z m598 -63 c3 -77 2 -82 -18 -82 -18 0
-20 6 -20 78 0 43 3 82 7 86 19 18 28 -7 31 -82z m582 33 c0 -33 -4 -45 -15
-45 -11 0 -15 12 -15 45 0 33 4 45 15 45 11 0 15 -12 15 -45z m-1280 6 c0 -22
-15 -35 -29 -27 -13 9 -1 46 15 46 8 0 14 -9 14 -19z m1170 -21 c0 -23 -4 -30
-20 -30 -16 0 -20 7 -20 30 0 23 4 30 20 30 16 0 20 -7 20 -30z m-860 -45 c0
-16 -6 -25 -15 -25 -9 0 -15 9 -15 25 0 16 6 25 15 25 9 0 15 -9 15 -25z
m-960 -5 c0 -11 -7 -20 -15 -20 -8 0 -15 9 -15 20 0 11 7 20 15 20 8 0 15 -9
15 -20z m70 -15 c0 -16 -6 -25 -15 -25 -9 0 -15 9 -15 25 0 16 6 25 15 25 9 0
15 -9 15 -25z m160 0 c0 -14 -4 -25 -10 -25 -5 0 -10 11 -10 25 0 14 5 25 10
25 6 0 10 -11 10 -25z m-1385 -33 c-3 -8 -5 -18 -5 -24 0 -5 -10 -8 -22 -6
-30 4 -37 47 -12 65 16 12 21 11 32 -4 7 -10 10 -24 7 -31z m1525 23 c0 -14
-4 -25 -10 -25 -5 0 -10 11 -10 25 0 14 5 25 10 25 6 0 10 -11 10 -25z m-1635
-4 c9 -29 -5 -52 -29 -49 -37 5 -34 68 3 68 11 0 22 -8 26 -19z m1395 -1 c0
-11 -4 -20 -10 -20 -5 0 -10 9 -10 20 0 11 5 20 10 20 6 0 10 -9 10 -20z
m2130 -10 c0 -23 -4 -30 -20 -30 -16 0 -20 7 -20 30 0 23 4 30 20 30 16 0 20
-7 20 -30z m-3625 -25 c0 -23 -5 -31 -21 -33 -24 -3 -38 20 -28 50 4 13 13 18
27 16 17 -2 22 -10 22 -33z m-103 8 c7 -33 -4 -54 -26 -51 -37 5 -34 68 3 68
11 0 21 -8 23 -17z m1068 -33 c0 -47 -2 -50 -25 -50 -23 0 -25 3 -25 50 0 47
2 50 25 50 23 0 25 -3 25 -50z m2058 -78 c2 -104 0 -122 -13 -122 -13 0 -15
20 -15 126 0 96 3 125 13 122 8 -3 13 -40 15 -126z m-3230 80 c3 -26 0 -32
-17 -32 -24 0 -37 35 -20 56 18 22 34 12 37 -24z m1082 -12 c0 -47 -2 -50 -25
-50 -23 0 -25 3 -25 50 0 47 2 50 25 50 23 0 25 -3 25 -50z m1130 15 c0 -28
-4 -35 -20 -35 -15 0 -20 7 -20 28 0 32 7 42 27 42 8 0 13 -12 13 -35z m-2287
4 c8 -29 -2 -49 -24 -49 -14 0 -19 7 -19 28 0 45 33 61 43 21z m-88 -24 c0
-23 -4 -30 -20 -30 -21 0 -31 25 -21 51 11 28 41 12 41 -21z m3315 -95 c0
-109 -2 -130 -15 -130 -13 0 -15 21 -15 130 0 109 2 130 15 130 13 0 15 -21
15 -130z m928 38 c-3 -70 -6 -83 -20 -86 -16 -3 -18 6 -18 82 0 80 1 86 20 86
20 0 21 -5 18 -82z m52 -3 c0 -69 -3 -85 -15 -85 -12 0 -15 16 -15 85 0 69 3
85 15 85 12 0 15 -16 15 -85z m-3860 35 c0 -5 -5 -10 -11 -10 -5 0 -7 5 -4 10
3 6 8 10 11 10 2 0 4 -4 4 -10z m360 -15 c0 -14 -4 -25 -10 -25 -11 0 -14 33
-3 43 11 11 13 8 13 -18z m-160 -21 c0 -24 -4 -34 -12 -32 -24 8 -22 68 2 68
5 0 10 -16 10 -36z m-360 16 c0 -5 -4 -10 -10 -10 -5 0 -10 5 -10 10 0 6 5 10
10 10 6 0 10 -4 10 -10z m1533 -32 c28 -57 16 -89 -51 -142 -55 -44 -57 -45
-65 -23 -5 12 -7 49 -5 82 7 117 80 167 121 83z m2597 -13 c0 -38 -3 -45 -20
-45 -17 0 -20 7 -20 45 0 38 3 45 20 45 17 0 20 -7 20 -45z m-4280 25 c0 -5
-7 -10 -15 -10 -8 0 -15 5 -15 10 0 6 7 10 15 10 8 0 15 -4 15 -10z m2038 -42
c-2 -13 -7 -23 -13 -23 -5 0 -11 10 -13 23 -2 15 2 22 13 22 11 0 15 -7 13
-22z m312 -8 c0 -23 -4 -30 -20 -30 -16 0 -20 7 -20 30 0 23 4 30 20 30 16 0
20 -7 20 -30z m-1830 -70 c0 -16 -4 -30 -10 -30 -5 0 -10 14 -10 30 0 17 5 30
10 30 6 0 10 -13 10 -30z m2040 5 c0 -16 -6 -25 -15 -25 -9 0 -15 9 -15 25 0
16 6 25 15 25 9 0 15 -9 15 -25z m-1890 -14 c0 -11 -4 -23 -10 -26 -6 -4 -10
5 -10 19 0 14 5 26 10 26 6 0 10 -9 10 -19z m570 -36 c0 -8 -7 -15 -15 -15
-16 0 -20 12 -8 23 11 12 23 8 23 -8z m90 -20 c0 -8 -7 -15 -15 -15 -8 0 -15
7 -15 15 0 8 7 15 15 15 8 0 15 -7 15 -15z m-270 -10 c0 -8 -4 -15 -10 -15 -5
0 -10 7 -10 15 0 8 5 15 10 15 6 0 10 -7 10 -15z m-165 -25 c3 -5 1 -10 -4
-10 -6 0 -11 5 -11 10 0 6 2 10 4 10 3 0 8 -4 11 -10z m515 -20 c0 -5 -4 -10
-10 -10 -5 0 -10 5 -10 10 0 6 5 10 10 10 6 0 10 -4 10 -10z m70 -55 c0 -8 -7
-15 -15 -15 -8 0 -15 7 -15 15 0 8 7 15 15 15 8 0 15 -7 15 -15z m110 0 c0 -8
-4 -15 -10 -15 -5 0 -10 7 -10 15 0 8 5 15 10 15 6 0 10 -7 10 -15z m270 -65
c0 -13 -7 -20 -20 -20 -13 0 -20 7 -20 20 0 13 7 20 20 20 13 0 20 -7 20 -20z
m210 -40 c0 -11 -7 -20 -15 -20 -8 0 -15 9 -15 20 0 11 7 20 15 20 8 0 15 -9
15 -20z m-1050 -15 c0 -8 -7 -15 -15 -15 -8 0 -15 7 -15 15 0 8 7 15 15 15 8
0 15 -7 15 -15z m1280 -30 c0 -8 -9 -15 -20 -15 -11 0 -20 7 -20 15 0 8 9 15
20 15 11 0 20 -7 20 -15z m220 -40 c0 -8 -7 -15 -15 -15 -8 0 -15 7 -15 15 0
8 7 15 15 15 8 0 15 -7 15 -15z m180 -20 c0 -8 -4 -15 -10 -15 -5 0 -10 7 -10
15 0 8 5 15 10 15 6 0 10 -7 10 -15z m-552 -242 c-3 -198 -5 -218 -20 -221
-17 -3 -18 12 -18 217 0 215 1 221 20 221 20 0 20 -5 18 -217z m111 -13 c-3
-187 -6 -220 -19 -220 -13 0 -16 33 -19 220 l-3 220 22 0 22 0 -3 -220z
m-1109 190 c0 -5 -4 -10 -10 -10 -5 0 -10 5 -10 10 0 6 5 10 10 10 6 0 10 -4
10 -10z m1229 -215 c-1 -191 -7 -241 -25 -223 -2 3 -7 102 -10 221 l-6 217 21
0 c22 0 22 -1 20 -215z m121 -25 c0 -198 -2 -230 -15 -230 -13 0 -15 32 -15
230 0 198 2 230 15 230 13 0 15 -32 15 -230z m115 -20 c0 -206 -1 -225 -17
-228 -17 -3 -18 13 -18 228 0 215 1 231 18 228 16 -3 17 -22 17 -228z m-1227
169 c-2 -6 -8 -10 -13 -10 -5 0 -11 4 -13 10 -2 6 4 11 13 11 9 0 15 -5 13
-11z m592 -264 c0 -16 -6 -25 -15 -25 -9 0 -15 9 -15 25 0 16 6 25 15 25 9 0
15 -9 15 -25z m90 -185 c0 -5 -4 -10 -10 -10 -5 0 -10 5 -10 10 0 6 5 10 10
10 6 0 10 -4 10 -10z"/>
</g>
</svg>
